<svg xmlns="http://www.w3.org/2000/svg" xmlns:xlink="http://www.w3.org/1999/xlink" width="3761pt" height="1493pt" viewBox="0 0 3760.75 1492.8"><g id="graph0" class="graph" transform="scale(1 1) rotate(0) translate(4 1488.8)"><title>UmlClassDiagram</title><polygon fill="#fff" stroke="transparent" points="-4 4 -4 -1488.8 3756.754 -1488.8 3756.754 4 -4 4"/><g id="node1" class="node"><title>0</title><polygon fill="#f2f2f2" stroke="#000" points="375.624 -1267.1 375.624 -1391.9 593.769 -1391.9 593.769 -1267.1 375.624 -1267.1"/><text x="484.696" y="-1375.3" fill="#000" font-family="Times,serif" font-size="14" text-anchor="middle">&lt;&lt;Abstract&gt;&gt;</text><text x="484.696" y="-1358.5" fill="#000" font-family="Times,serif" font-size="14" text-anchor="middle">Context</text><polyline fill="none" stroke="#000" points="375.624 -1350.3 593.769 -1350.3"/><polyline fill="none" stroke="#000" points="375.624 -1325.5 593.769 -1325.5"/><text x="383.624" y="-1308.9" fill="#000" font-family="Times,serif" font-size="14" text-anchor="start">Internal:</text><text x="383.624" y="-1292.1" fill="#000" font-family="Times,serif" font-size="14" text-anchor="start">_msgSender(): (payable: address)</text><text x="383.624" y="-1275.3" fill="#000" font-family="Times,serif" font-size="14" text-anchor="start">_msgData(): bytes</text></g><g id="node2" class="node"><title>1</title><polygon fill="#f2f2f2" stroke="#000" points="1013.396 -1208.3 1013.396 -1450.7 1451.996 -1450.7 1451.996 -1208.3 1013.396 -1208.3"/><text x="1232.696" y="-1434.1" fill="#000" font-family="Times,serif" font-size="14" text-anchor="middle">&lt;&lt;Interface&gt;&gt;</text><text x="1232.696" y="-1417.3" fill="#000" font-family="Times,serif" font-size="14" text-anchor="middle">IERC20</text><polyline fill="none" stroke="#000" points="1013.396 -1409.1 1451.996 -1409.1"/><polyline fill="none" stroke="#000" points="1013.396 -1384.3 1451.996 -1384.3"/><text x="1021.396" y="-1367.7" fill="#000" font-family="Times,serif" font-size="14" text-anchor="start">External:</text><text x="1021.396" y="-1350.9" fill="#000" font-family="Times,serif" font-size="14" text-anchor="start">totalSupply(): uint256</text><text x="1021.396" y="-1334.1" fill="#000" font-family="Times,serif" font-size="14" text-anchor="start">balanceOf(account: address): uint256</text><text x="1021.396" y="-1317.3" fill="#000" font-family="Times,serif" font-size="14" text-anchor="start">transfer(recipient: address, amount: uint256): bool</text><text x="1021.396" y="-1300.5" fill="#000" font-family="Times,serif" font-size="14" text-anchor="start">allowance(owner: address, spender: address): uint256</text><text x="1021.396" y="-1283.7" fill="#000" font-family="Times,serif" font-size="14" text-anchor="start">approve(spender: address, amount: uint256): bool</text><text x="1021.396" y="-1266.9" fill="#000" font-family="Times,serif" font-size="14" text-anchor="start">transferFrom(sender: address, recipient: address, amount: uint256): bool</text><text x="1021.396" y="-1250.1" fill="#000" font-family="Times,serif" font-size="14" text-anchor="start">Public:</text><text x="1021.396" y="-1233.3" fill="#000" font-family="Times,serif" font-size="14" text-anchor="start">&lt;&lt;event&gt;&gt; Transfer(from: address, to: address, value: uint256)</text><text x="1021.396" y="-1216.5" fill="#000" font-family="Times,serif" font-size="14" text-anchor="start">&lt;&lt;event&gt;&gt; Approval(owner: address, spender: address, value: uint256)</text></g><g id="node3" class="node"><title>2</title><polygon fill="#f2f2f2" stroke="#000" points="0 -1174.7 0 -1484.3 357.393 -1484.3 357.393 -1174.7 0 -1174.7"/><text x="178.696" y="-1467.7" fill="#000" font-family="Times,serif" font-size="14" text-anchor="middle">&lt;&lt;Library&gt;&gt;</text><text x="178.696" y="-1450.9" fill="#000" font-family="Times,serif" font-size="14" text-anchor="middle">SafeMath</text><polyline fill="none" stroke="#000" points="0 -1442.7 357.393 -1442.7"/><polyline fill="none" stroke="#000" points="0 -1417.9 357.393 -1417.9"/><text x="8" y="-1401.3" fill="#000" font-family="Times,serif" font-size="14" text-anchor="start">Internal:</text><text x="8" y="-1384.5" fill="#000" font-family="Times,serif" font-size="14" text-anchor="start">tryAdd(a: uint256, b: uint256): (bool, uint256)</text><text x="8" y="-1367.7" fill="#000" font-family="Times,serif" font-size="14" text-anchor="start">trySub(a: uint256, b: uint256): (bool, uint256)</text><text x="8" y="-1350.9" fill="#000" font-family="Times,serif" font-size="14" text-anchor="start">tryMul(a: uint256, b: uint256): (bool, uint256)</text><text x="8" y="-1334.1" fill="#000" font-family="Times,serif" font-size="14" text-anchor="start">tryDiv(a: uint256, b: uint256): (bool, uint256)</text><text x="8" y="-1317.3" fill="#000" font-family="Times,serif" font-size="14" text-anchor="start">tryMod(a: uint256, b: uint256): (bool, uint256)</text><text x="8" y="-1300.5" fill="#000" font-family="Times,serif" font-size="14" text-anchor="start">add(a: uint256, b: uint256): uint256</text><text x="8" y="-1283.7" fill="#000" font-family="Times,serif" font-size="14" text-anchor="start">sub(a: uint256, b: uint256): uint256</text><text x="8" y="-1266.9" fill="#000" font-family="Times,serif" font-size="14" text-anchor="start">mul(a: uint256, b: uint256): uint256</text><text x="8" y="-1250.1" fill="#000" font-family="Times,serif" font-size="14" text-anchor="start">div(a: uint256, b: uint256): uint256</text><text x="8" y="-1233.3" fill="#000" font-family="Times,serif" font-size="14" text-anchor="start">mod(a: uint256, b: uint256): uint256</text><text x="8" y="-1216.5" fill="#000" font-family="Times,serif" font-size="14" text-anchor="start">sub(a: uint256, b: uint256, errorMessage: string): uint256</text><text x="8" y="-1199.7" fill="#000" font-family="Times,serif" font-size="14" text-anchor="start">div(a: uint256, b: uint256, errorMessage: string): uint256</text><text x="8" y="-1182.9" fill="#000" font-family="Times,serif" font-size="14" text-anchor="start">mod(a: uint256, b: uint256, errorMessage: string): uint256</text></g><g id="node4" class="node"><title>3</title><polygon fill="#f2f2f2" stroke="#000" points="267.147 -643.3 267.147 -1137.7 702.246 -1137.7 702.246 -643.3 267.147 -643.3"/><text x="484.696" y="-1121.1" fill="#000" font-family="Times,serif" font-size="14" text-anchor="middle">ERC20</text><polyline fill="none" stroke="#000" points="267.147 -1112.9 702.246 -1112.9"/><text x="275.147" y="-1096.3" fill="#000" font-family="Times,serif" font-size="14" text-anchor="start">Private:</text><text x="275.147" y="-1079.5" fill="#000" font-family="Times,serif" font-size="14" text-anchor="start">_balances: mapping(address=&gt;uint256)</text><text x="275.147" y="-1062.7" fill="#000" font-family="Times,serif" font-size="14" text-anchor="start">_allowances: mapping(address=&gt;mapping(address=&gt;uint256))</text><text x="275.147" y="-1045.9" fill="#000" font-family="Times,serif" font-size="14" text-anchor="start">_totalSupply: uint256</text><text x="275.147" y="-1029.1" fill="#000" font-family="Times,serif" font-size="14" text-anchor="start">_name: string</text><text x="275.147" y="-1012.3" fill="#000" font-family="Times,serif" font-size="14" text-anchor="start">_symbol: string</text><text x="275.147" y="-995.5" fill="#000" font-family="Times,serif" font-size="14" text-anchor="start">_decimals: uint8</text><polyline fill="none" stroke="#000" points="267.147 -987.3 702.246 -987.3"/><text x="275.147" y="-970.7" fill="#000" font-family="Times,serif" font-size="14" text-anchor="start">Internal:</text><text x="275.147" y="-953.9" fill="#000" font-family="Times,serif" font-size="14" text-anchor="start">_transfer(sender: address, recipient: address, amount: uint256)</text><text x="275.147" y="-937.1" fill="#000" font-family="Times,serif" font-size="14" text-anchor="start">_mint(account: address, amount: uint256)</text><text x="275.147" y="-920.3" fill="#000" font-family="Times,serif" font-size="14" text-anchor="start">_burn(account: address, amount: uint256)</text><text x="275.147" y="-903.5" fill="#000" font-family="Times,serif" font-size="14" text-anchor="start">_approve(owner: address, spender: address, amount: uint256)</text><text x="275.147" y="-886.7" fill="#000" font-family="Times,serif" font-size="14" text-anchor="start">_setupDecimals(decimals_: uint8)</text><text x="275.147" y="-869.9" fill="#000" font-family="Times,serif" font-size="14" text-anchor="start">_beforeTokenTransfer(from: address, to: address, amount: uint256)</text><text x="275.147" y="-853.1" fill="#000" font-family="Times,serif" font-size="14" text-anchor="start">Public:</text><text x="275.147" y="-836.3" fill="#000" font-family="Times,serif" font-size="14" text-anchor="start">constructor(name_: string, symbol_: string)</text><text x="275.147" y="-819.5" fill="#000" font-family="Times,serif" font-size="14" text-anchor="start">name(): string</text><text x="275.147" y="-802.7" fill="#000" font-family="Times,serif" font-size="14" text-anchor="start">symbol(): string</text><text x="275.147" y="-785.9" fill="#000" font-family="Times,serif" font-size="14" text-anchor="start">decimals(): uint8</text><text x="275.147" y="-769.1" fill="#000" font-family="Times,serif" font-size="14" text-anchor="start">totalSupply(): uint256</text><text x="275.147" y="-752.3" fill="#000" font-family="Times,serif" font-size="14" text-anchor="start">balanceOf(account: address): uint256</text><text x="275.147" y="-735.5" fill="#000" font-family="Times,serif" font-size="14" text-anchor="start">transfer(recipient: address, amount: uint256): bool</text><text x="275.147" y="-718.7" fill="#000" font-family="Times,serif" font-size="14" text-anchor="start">allowance(owner: address, spender: address): uint256</text><text x="275.147" y="-701.9" fill="#000" font-family="Times,serif" font-size="14" text-anchor="start">approve(spender: address, amount: uint256): bool</text><text x="275.147" y="-685.1" fill="#000" font-family="Times,serif" font-size="14" text-anchor="start">transferFrom(sender: address, recipient: address, amount: uint256): bool</text><text x="275.147" y="-668.3" fill="#000" font-family="Times,serif" font-size="14" text-anchor="start">increaseAllowance(spender: address, addedValue: uint256): bool</text><text x="275.147" y="-651.5" fill="#000" font-family="Times,serif" font-size="14" text-anchor="start">decreaseAllowance(spender: address, subtractedValue: uint256): bool</text></g><g id="edge1" class="edge"><title>3-&gt;0</title><path fill="none" stroke="#000" d="M484.6964,-1137.9061C484.6964,-1173.0849 484.6964,-1207.2917 484.6964,-1236.8326"/><polygon fill="none" stroke="#000" points="474.197 -1236.882 484.696 -1266.882 495.197 -1236.882 474.197 -1236.882"/></g><g id="edge2" class="edge"><title>3-&gt;1</title><path fill="none" stroke="#000" stroke-dasharray="5 2" d="M702.2898,-1131.7141C705.4109,-1133.9259 708.5468,-1136.0892 711.6964,-1138.2 793.9424,-1193.3203 894.1002,-1235.0117 984.5409,-1265.1742"/><polygon fill="none" stroke="#000" points="981.436 -1275.206 1013.212 -1274.465 987.91 -1255.228 981.436 -1275.206"/></g><g id="edge3" class="edge"><title>3-&gt;2</title><path fill="none" stroke="#000" stroke-dasharray="5 2" d="M312.2448,-1137.9061C305.6458,-1147.3732 299.096,-1156.7699 292.6453,-1166.0243"/><polygon fill="#000" stroke="#000" points="289.598 -1164.276 286.751 -1174.481 295.34 -1168.279 289.598 -1164.276"/></g><g id="node5" class="node"><title>4</title><polygon fill="#f2f2f2" stroke="#000" points="191.003 -380.7 191.003 -505.5 478.39 -505.5 478.39 -380.7 191.003 -380.7"/><text x="334.696" y="-488.9" fill="#000" font-family="Times,serif" font-size="14" text-anchor="middle">&lt;&lt;Abstract&gt;&gt;</text><text x="334.696" y="-472.1" fill="#000" font-family="Times,serif" font-size="14" text-anchor="middle">ERC20Burnable</text><polyline fill="none" stroke="#000" points="191.003 -463.9 478.39 -463.9"/><polyline fill="none" stroke="#000" points="191.003 -439.1 478.39 -439.1"/><text x="199.003" y="-422.5" fill="#000" font-family="Times,serif" font-size="14" text-anchor="start">Public:</text><text x="199.003" y="-405.7" fill="#000" font-family="Times,serif" font-size="14" text-anchor="start">burn(amount: uint256)</text><text x="199.003" y="-388.9" fill="#000" font-family="Times,serif" font-size="14" text-anchor="start">burnFrom(account: address, amount: uint256)</text></g><g id="edge4" class="edge"><title>4-&gt;0</title><path fill="none" stroke="#000" d="M303.7211,-505.6536C286.4048,-544.1642 266.5688,-595.1273 257.6964,-642.8 237.5535,-751.0304 193.2033,-1048.98 257.6964,-1138.2 287.5843,-1179.547 325.1743,-1144.5558 366.6964,-1174.2 391.9872,-1192.256 414.3092,-1217.3235 432.541,-1242.0552"/><polygon fill="none" stroke="#000" points="424.006 -1248.174 449.689 -1266.899 441.289 -1236.245 424.006 -1248.174"/></g><g id="edge6" class="edge"><title>4-&gt;2</title><path fill="none" stroke="#000" stroke-dasharray="5 2" d="M288.9428,-505.7835C264.0264,-543.5177 235.3606,-593.6414 220.6964,-642.8 169.1816,-815.4923 163.8004,-1023.1556 168.0673,-1164.5822"/><polygon fill="#000" stroke="#000" points="164.571 -1164.767 168.391 -1174.649 171.568 -1164.542 164.571 -1164.767"/></g><g id="edge5" class="edge"><title>4-&gt;3</title><path fill="none" stroke="#000" d="M355.7112,-505.7801C365.7672,-535.7737 378.5776,-573.983 392.2039,-614.6256"/><polygon fill="none" stroke="#000" points="382.252 -617.974 401.744 -643.081 402.163 -611.299 382.252 -617.974"/></g><g id="node6" class="node"><title>5</title><polygon fill="#f2f2f2" stroke="#000" points="1653.279 -1275.5 1653.279 -1383.5 1930.114 -1383.5 1930.114 -1275.5 1653.279 -1275.5"/><text x="1791.696" y="-1366.9" fill="#000" font-family="Times,serif" font-size="14" text-anchor="middle">&lt;&lt;Interface&gt;&gt;</text><text x="1791.696" y="-1350.1" fill="#000" font-family="Times,serif" font-size="14" text-anchor="middle">IERC165</text><polyline fill="none" stroke="#000" points="1653.279 -1341.9 1930.114 -1341.9"/><polyline fill="none" stroke="#000" points="1653.279 -1317.1 1930.114 -1317.1"/><text x="1661.279" y="-1300.5" fill="#000" font-family="Times,serif" font-size="14" text-anchor="start">External:</text><text x="1661.279" y="-1283.7" fill="#000" font-family="Times,serif" font-size="14" text-anchor="start">supportsInterface(interfaceId: bytes4): bool</text></g><g id="node7" class="node"><title>6</title><polygon fill="#f2f2f2" stroke="#000" points="1261.047 -794.5 1261.047 -986.5 1814.346 -986.5 1814.346 -794.5 1261.047 -794.5"/><text x="1537.696" y="-969.9" fill="#000" font-family="Times,serif" font-size="14" text-anchor="middle">&lt;&lt;Interface&gt;&gt;</text><text x="1537.696" y="-953.1" fill="#000" font-family="Times,serif" font-size="14" text-anchor="middle">IERC1363</text><polyline fill="none" stroke="#000" points="1261.047 -944.9 1814.346 -944.9"/><polyline fill="none" stroke="#000" points="1261.047 -920.1 1814.346 -920.1"/><text x="1269.047" y="-903.5" fill="#000" font-family="Times,serif" font-size="14" text-anchor="start">External:</text><text x="1269.047" y="-886.7" fill="#000" font-family="Times,serif" font-size="14" text-anchor="start">transferAndCall(recipient: address, amount: uint256): bool</text><text x="1269.047" y="-869.9" fill="#000" font-family="Times,serif" font-size="14" text-anchor="start">transferAndCall(recipient: address, amount: uint256, data: bytes): bool</text><text x="1269.047" y="-853.1" fill="#000" font-family="Times,serif" font-size="14" text-anchor="start">transferFromAndCall(sender: address, recipient: address, amount: uint256): bool</text><text x="1269.047" y="-836.3" fill="#000" font-family="Times,serif" font-size="14" text-anchor="start">transferFromAndCall(sender: address, recipient: address, amount: uint256, data: bytes): bool</text><text x="1269.047" y="-819.5" fill="#000" font-family="Times,serif" font-size="14" text-anchor="start">approveAndCall(spender: address, amount: uint256): bool</text><text x="1269.047" y="-802.7" fill="#000" font-family="Times,serif" font-size="14" text-anchor="start">approveAndCall(spender: address, amount: uint256, data: bytes): bool</text></g><g id="edge7" class="edge"><title>6-&gt;1</title><path fill="none" stroke="#000" stroke-dasharray="5 2" d="M1470.9514,-986.5691C1430.9318,-1044.1711 1379.2382,-1118.5758 1334.235,-1183.351"/><polygon fill="none" stroke="#000" points="1325.526 -1177.484 1317.032 -1208.112 1342.772 -1189.466 1325.526 -1177.484"/></g><g id="edge8" class="edge"><title>6-&gt;5</title><path fill="none" stroke="#000" stroke-dasharray="5 2" d="M1593.2808,-986.5691C1638.8223,-1065.2806 1702.5169,-1175.3669 1745.3429,-1249.3851"/><polygon fill="none" stroke="#000" points="1736.266 -1254.664 1760.379 -1275.372 1754.443 -1244.147 1736.266 -1254.664"/></g><g id="node8" class="node"><title>7</title><polygon fill="#f2f2f2" stroke="#000" points="2136.898 -836.5 2136.898 -944.5 2692.495 -944.5 2692.495 -836.5 2136.898 -836.5"/><text x="2414.696" y="-927.9" fill="#000" font-family="Times,serif" font-size="14" text-anchor="middle">&lt;&lt;Interface&gt;&gt;</text><text x="2414.696" y="-911.1" fill="#000" font-family="Times,serif" font-size="14" text-anchor="middle">IERC1363Receiver</text><polyline fill="none" stroke="#000" points="2136.898 -902.9 2692.495 -902.9"/><polyline fill="none" stroke="#000" points="2136.898 -878.1 2692.495 -878.1"/><text x="2144.898" y="-861.5" fill="#000" font-family="Times,serif" font-size="14" text-anchor="start">External:</text><text x="2144.898" y="-844.7" fill="#000" font-family="Times,serif" font-size="14" text-anchor="start">onTransferReceived(operator: address, sender: address, amount: uint256, data: bytes): bytes4</text></g><g id="node9" class="node"><title>8</title><polygon fill="#f2f2f2" stroke="#000" points="2710.671 -836.5 2710.671 -944.5 3168.722 -944.5 3168.722 -836.5 2710.671 -836.5"/><text x="2939.696" y="-927.9" fill="#000" font-family="Times,serif" font-size="14" text-anchor="middle">&lt;&lt;Interface&gt;&gt;</text><text x="2939.696" y="-911.1" fill="#000" font-family="Times,serif" font-size="14" text-anchor="middle">IERC1363Spender</text><polyline fill="none" stroke="#000" points="2710.671 -902.9 3168.722 -902.9"/><polyline fill="none" stroke="#000" points="2710.671 -878.1 3168.722 -878.1"/><text x="2718.671" y="-861.5" fill="#000" font-family="Times,serif" font-size="14" text-anchor="start">External:</text><text x="2718.671" y="-844.7" fill="#000" font-family="Times,serif" font-size="14" text-anchor="start">onApprovalReceived(sender: address, amount: uint256, data: bytes): bytes4</text></g><g id="node10" class="node"><title>9</title><polygon fill="#f2f2f2" stroke="#000" points="3186.638 -744.1 3186.638 -1036.9 3752.754 -1036.9 3752.754 -744.1 3186.638 -744.1"/><text x="3469.696" y="-1020.3" fill="#000" font-family="Times,serif" font-size="14" text-anchor="middle">&lt;&lt;Library&gt;&gt;</text><text x="3469.696" y="-1003.5" fill="#000" font-family="Times,serif" font-size="14" text-anchor="middle">Address</text><polyline fill="none" stroke="#000" points="3186.638 -995.3 3752.754 -995.3"/><polyline fill="none" stroke="#000" points="3186.638 -970.5 3752.754 -970.5"/><text x="3194.638" y="-953.9" fill="#000" font-family="Times,serif" font-size="14" text-anchor="start">Private:</text><text x="3194.638" y="-937.1" fill="#000" font-family="Times,serif" font-size="14" text-anchor="start">_verifyCallResult(success: bool, returndata: bytes, errorMessage: string): bytes</text><text x="3194.638" y="-920.3" fill="#000" font-family="Times,serif" font-size="14" text-anchor="start">Internal:</text><text x="3194.638" y="-903.5" fill="#000" font-family="Times,serif" font-size="14" text-anchor="start">isContract(account: address): bool</text><text x="3194.638" y="-886.7" fill="#000" font-family="Times,serif" font-size="14" text-anchor="start">sendValue(recipient: address, amount: uint256)</text><text x="3194.638" y="-869.9" fill="#000" font-family="Times,serif" font-size="14" text-anchor="start">functionCall(target: address, data: bytes): bytes</text><text x="3194.638" y="-853.1" fill="#000" font-family="Times,serif" font-size="14" text-anchor="start">functionCall(target: address, data: bytes, errorMessage: string): bytes</text><text x="3194.638" y="-836.3" fill="#000" font-family="Times,serif" font-size="14" text-anchor="start">functionCallWithValue(target: address, data: bytes, value: uint256): bytes</text><text x="3194.638" y="-819.5" fill="#000" font-family="Times,serif" font-size="14" text-anchor="start">functionCallWithValue(target: address, data: bytes, value: uint256, errorMessage: string): bytes</text><text x="3194.638" y="-802.7" fill="#000" font-family="Times,serif" font-size="14" text-anchor="start">functionStaticCall(target: address, data: bytes): bytes</text><text x="3194.638" y="-785.9" fill="#000" font-family="Times,serif" font-size="14" text-anchor="start">functionStaticCall(target: address, data: bytes, errorMessage: string): bytes</text><text x="3194.638" y="-769.1" fill="#000" font-family="Times,serif" font-size="14" text-anchor="start">functionDelegateCall(target: address, data: bytes): bytes</text><text x="3194.638" y="-752.3" fill="#000" font-family="Times,serif" font-size="14" text-anchor="start">functionDelegateCall(target: address, data: bytes, errorMessage: string): bytes</text></g><g id="node11" class="node"><title>10</title><polygon fill="#f2f2f2" stroke="#000" points="1285.584 -.5 1285.584 -242.9 1777.809 -242.9 1777.809 -.5 1285.584 -.5"/><text x="1531.696" y="-226.3" fill="#000" font-family="Times,serif" font-size="14" text-anchor="middle">&lt;&lt;Library&gt;&gt;</text><text x="1531.696" y="-209.5" fill="#000" font-family="Times,serif" font-size="14" text-anchor="middle">ERC165Checker</text><polyline fill="none" stroke="#000" points="1285.584 -201.3 1777.809 -201.3"/><text x="1293.584" y="-184.7" fill="#000" font-family="Times,serif" font-size="14" text-anchor="start">Private:</text><text x="1293.584" y="-167.9" fill="#000" font-family="Times,serif" font-size="14" text-anchor="start">_INTERFACE_ID_INVALID: bytes4</text><text x="1293.584" y="-151.1" fill="#000" font-family="Times,serif" font-size="14" text-anchor="start">_INTERFACE_ID_ERC165: bytes4</text><polyline fill="none" stroke="#000" points="1285.584 -142.9 1777.809 -142.9"/><text x="1293.584" y="-126.3" fill="#000" font-family="Times,serif" font-size="14" text-anchor="start">Private:</text><text x="1293.584" y="-109.5" fill="#000" font-family="Times,serif" font-size="14" text-anchor="start">_supportsERC165Interface(account: address, interfaceId: bytes4): bool</text><text x="1293.584" y="-92.7" fill="#000" font-family="Times,serif" font-size="14" text-anchor="start">_callERC165SupportsInterface(account: address, interfaceId: bytes4): (bool, bool)</text><text x="1293.584" y="-75.9" fill="#000" font-family="Times,serif" font-size="14" text-anchor="start">Internal:</text><text x="1293.584" y="-59.1" fill="#000" font-family="Times,serif" font-size="14" text-anchor="start">supportsERC165(account: address): bool</text><text x="1293.584" y="-42.3" fill="#000" font-family="Times,serif" font-size="14" text-anchor="start">supportsInterface(account: address, interfaceId: bytes4): bool</text><text x="1293.584" y="-25.5" fill="#000" font-family="Times,serif" font-size="14" text-anchor="start">getSupportedInterfaces(account: address, interfaceIds: bytes4[]): bool[]</text><text x="1293.584" y="-8.7" fill="#000" font-family="Times,serif" font-size="14" text-anchor="start">supportsAllInterfaces(account: address, interfaceIds: bytes4[]): bool</text></g><g id="node12" class="node"><title>11</title><polygon fill="#f2f2f2" stroke="#000" points="1832.285 -794.5 1832.285 -986.5 2119.108 -986.5 2119.108 -794.5 1832.285 -794.5"/><text x="1975.696" y="-969.9" fill="#000" font-family="Times,serif" font-size="14" text-anchor="middle">&lt;&lt;Abstract&gt;&gt;</text><text x="1975.696" y="-953.1" fill="#000" font-family="Times,serif" font-size="14" text-anchor="middle">ERC165</text><polyline fill="none" stroke="#000" points="1832.285 -944.9 2119.108 -944.9"/><text x="1840.285" y="-928.3" fill="#000" font-family="Times,serif" font-size="14" text-anchor="start">Private:</text><text x="1840.285" y="-911.5" fill="#000" font-family="Times,serif" font-size="14" text-anchor="start">_INTERFACE_ID_ERC165: bytes4</text><text x="1840.285" y="-894.7" fill="#000" font-family="Times,serif" font-size="14" text-anchor="start">_supportedInterfaces: mapping(bytes4=&gt;bool)</text><polyline fill="none" stroke="#000" points="1832.285 -886.5 2119.108 -886.5"/><text x="1840.285" y="-869.9" fill="#000" font-family="Times,serif" font-size="14" text-anchor="start">Internal:</text><text x="1840.285" y="-853.1" fill="#000" font-family="Times,serif" font-size="14" text-anchor="start">_registerInterface(interfaceId: bytes4)</text><text x="1840.285" y="-836.3" fill="#000" font-family="Times,serif" font-size="14" text-anchor="start">Public:</text><text x="1840.285" y="-819.5" fill="#000" font-family="Times,serif" font-size="14" text-anchor="start">constructor()</text><text x="1840.285" y="-802.7" fill="#000" font-family="Times,serif" font-size="14" text-anchor="start">supportsInterface(interfaceId: bytes4): bool</text></g><g id="edge9" class="edge"><title>11-&gt;5</title><path fill="none" stroke="#000" stroke-dasharray="5 2" d="M1935.4306,-986.5691C1902.7299,-1064.5886 1857.1091,-1173.4338 1826.097,-1247.4246"/><polygon fill="none" stroke="#000" points="1816.296 -1243.645 1814.383 -1275.372 1835.664 -1251.763 1816.296 -1243.645"/></g><g id="node13" class="node"><title>12</title><polygon fill="#f2f2f2" stroke="#000" points="1171.811 -279.9 1171.811 -606.3 1735.582 -606.3 1735.582 -279.9 1171.811 -279.9"/><text x="1453.696" y="-589.7" fill="#000" font-family="Times,serif" font-size="14" text-anchor="middle">ERC1363</text><polyline fill="none" stroke="#000" points="1171.811 -581.5 1735.582 -581.5"/><text x="1179.811" y="-564.9" fill="#000" font-family="Times,serif" font-size="14" text-anchor="start">Private:</text><text x="1179.811" y="-548.1" fill="#000" font-family="Times,serif" font-size="14" text-anchor="start">_ERC1363_RECEIVED: bytes4</text><text x="1179.811" y="-531.3" fill="#000" font-family="Times,serif" font-size="14" text-anchor="start">_ERC1363_APPROVED: bytes4</text><text x="1179.811" y="-514.5" fill="#000" font-family="Times,serif" font-size="14" text-anchor="start">Internal:</text><text x="1179.811" y="-497.7" fill="#000" font-family="Times,serif" font-size="14" text-anchor="start">_INTERFACE_ID_ERC1363_TRANSFER: bytes4</text><text x="1179.811" y="-480.9" fill="#000" font-family="Times,serif" font-size="14" text-anchor="start">_INTERFACE_ID_ERC1363_APPROVE: bytes4</text><polyline fill="none" stroke="#000" points="1171.811 -472.7 1735.582 -472.7"/><text x="1179.811" y="-456.1" fill="#000" font-family="Times,serif" font-size="14" text-anchor="start">Internal:</text><text x="1179.811" y="-439.3" fill="#000" font-family="Times,serif" font-size="14" text-anchor="start">_checkAndCallTransfer(sender: address, recipient: address, amount: uint256, data: bytes): bool</text><text x="1179.811" y="-422.5" fill="#000" font-family="Times,serif" font-size="14" text-anchor="start">_checkAndCallApprove(spender: address, amount: uint256, data: bytes): bool</text><text x="1179.811" y="-405.7" fill="#000" font-family="Times,serif" font-size="14" text-anchor="start">Public:</text><text x="1179.811" y="-388.9" fill="#000" font-family="Times,serif" font-size="14" text-anchor="start">constructor(name: string, symbol: string)</text><text x="1179.811" y="-372.1" fill="#000" font-family="Times,serif" font-size="14" text-anchor="start">transferAndCall(recipient: address, amount: uint256): bool</text><text x="1179.811" y="-355.3" fill="#000" font-family="Times,serif" font-size="14" text-anchor="start">transferAndCall(recipient: address, amount: uint256, data: bytes): bool</text><text x="1179.811" y="-338.5" fill="#000" font-family="Times,serif" font-size="14" text-anchor="start">transferFromAndCall(sender: address, recipient: address, amount: uint256): bool</text><text x="1179.811" y="-321.7" fill="#000" font-family="Times,serif" font-size="14" text-anchor="start">transferFromAndCall(sender: address, recipient: address, amount: uint256, data: bytes): bool</text><text x="1179.811" y="-304.9" fill="#000" font-family="Times,serif" font-size="14" text-anchor="start">approveAndCall(spender: address, amount: uint256): bool</text><text x="1179.811" y="-288.1" fill="#000" font-family="Times,serif" font-size="14" text-anchor="start">approveAndCall(spender: address, amount: uint256, data: bytes): bool</text></g><g id="edge10" class="edge"><title>12-&gt;3</title><path fill="none" stroke="#000" d="M1171.5812,-604.313C1168.9512,-605.1677 1166.3226,-605.9971 1163.6964,-606.8 980.4802,-662.8109 900.7774,-564.9448 729.7164,-635.2513"/><polygon fill="none" stroke="#000" points="725.366 -625.695 702.33 -647.595 733.995 -644.84 725.366 -625.695"/></g><g id="edge11" class="edge"><title>12-&gt;6</title><path fill="none" stroke="#000" stroke-dasharray="5 2" d="M1484.3789,-606.5208C1494.175,-658.6969 1504.8588,-715.6009 1514.0729,-764.6766"/><polygon fill="none" stroke="#000" points="1503.816 -766.949 1519.672 -794.497 1524.455 -763.074 1503.816 -766.949"/></g><g id="edge14" class="edge"><title>12-&gt;7</title><path fill="none" stroke="#000" stroke-dasharray="5 2" d="M1735.9744,-603.9821C1738.8841,-604.9519 1741.7919,-605.8917 1744.6964,-606.8 1907.8768,-657.8272 1970.4124,-575.7677 2127.6964,-642.8 2224.0324,-683.8571 2311.4816,-769.5595 2363.8783,-828.553"/><polygon fill="#000" stroke="#000" points="2361.488 -831.135 2370.722 -836.331 2366.744 -826.511 2361.488 -831.135"/></g><g id="edge15" class="edge"><title>12-&gt;8</title><path fill="none" stroke="#000" stroke-dasharray="5 2" d="M1735.9044,-604.2177C1738.8364,-605.1122 1741.7675,-605.9736 1744.6964,-606.8 1949.5163,-664.5921 2507.5044,-555.7335 2701.6964,-642.8 2788.3144,-681.6354 2859.2292,-767.9366 2900.4823,-827.665"/><polygon fill="#000" stroke="#000" points="2897.827 -829.984 2906.352 -836.276 2903.611 -826.042 2897.827 -829.984"/></g><g id="edge13" class="edge"><title>12-&gt;9</title><path fill="none" stroke="#000" stroke-dasharray="5 2" d="M1735.8897,-604.2704C1738.8264,-605.1481 1741.7624,-605.9919 1744.6964,-606.8 1898.2507,-649.094 3028.8769,-586.0508 3177.6964,-642.8 3232.3037,-663.6234 3283.8417,-699.3567 3327.9784,-737.3037"/><polygon fill="#000" stroke="#000" points="3325.724 -739.981 3335.563 -743.909 3330.321 -734.702 3325.724 -739.981"/></g><g id="edge12" class="edge"><title>12-&gt;11</title><path fill="none" stroke="#000" d="M1735.7436,-602.2286C1738.7398,-603.7662 1741.7248,-605.2905 1744.6964,-606.8 1779.0974,-624.2746 1794.7899,-617.2421 1823.6964,-642.8 1862.5895,-677.1876 1894.7733,-723.9479 1919.358,-767.5798"/><polygon fill="none" stroke="#000" points="1910.219 -772.755 1933.676 -794.204 1928.714 -762.809 1910.219 -772.755"/></g><g id="node14" class="node"><title>13</title><polygon fill="#f2f2f2" stroke="#000" points="720.259 -786.1 720.259 -994.9 1205.133 -994.9 1205.133 -786.1 720.259 -786.1"/><text x="962.696" y="-978.3" fill="#000" font-family="Times,serif" font-size="14" text-anchor="middle">&lt;&lt;Abstract&gt;&gt;</text><text x="962.696" y="-961.5" fill="#000" font-family="Times,serif" font-size="14" text-anchor="middle">Ownable</text><polyline fill="none" stroke="#000" points="720.259 -953.3 1205.133 -953.3"/><text x="728.259" y="-936.7" fill="#000" font-family="Times,serif" font-size="14" text-anchor="start">Private:</text><text x="728.259" y="-919.9" fill="#000" font-family="Times,serif" font-size="14" text-anchor="start">_owner: address</text><polyline fill="none" stroke="#000" points="720.259 -911.7 1205.133 -911.7"/><text x="728.259" y="-895.1" fill="#000" font-family="Times,serif" font-size="14" text-anchor="start">Public:</text><text x="728.259" y="-878.3" fill="#000" font-family="Times,serif" font-size="14" text-anchor="start">&lt;&lt;event&gt;&gt; OwnershipTransferred(previousOwner: address, newOwner: address)</text><text x="728.259" y="-861.5" fill="#000" font-family="Times,serif" font-size="14" text-anchor="start">&lt;&lt;modifier&gt;&gt; onlyOwner()</text><text x="728.259" y="-844.7" fill="#000" font-family="Times,serif" font-size="14" text-anchor="start">constructor()</text><text x="728.259" y="-827.9" fill="#000" font-family="Times,serif" font-size="14" text-anchor="start">owner(): address</text><text x="728.259" y="-811.1" fill="#000" font-family="Times,serif" font-size="14" text-anchor="start">renounceOwnership()</text><text x="728.259" y="-794.3" fill="#000" font-family="Times,serif" font-size="14" text-anchor="start">transferOwnership(newOwner: address)</text></g><g id="edge16" class="edge"><title>13-&gt;0</title><path fill="none" stroke="#000" d="M860.3587,-995.1033C815.5168,-1039.9875 761.7894,-1092.5046 711.6964,-1138.2 671.2249,-1175.1185 625.2279,-1214.3585 585.2707,-1247.6278"/><polygon fill="none" stroke="#000" points="578.313 -1239.757 561.905 -1266.978 591.707 -1255.93 578.313 -1239.757"/></g><g id="node15" class="node"><title>14</title><polygon fill="#f2f2f2" stroke="#000" points="771.185 -397.5 771.185 -488.7 1154.208 -488.7 1154.208 -397.5 771.185 -397.5"/><text x="962.696" y="-472.1" fill="#000" font-family="Times,serif" font-size="14" text-anchor="middle">TokenRecover</text><polyline fill="none" stroke="#000" points="771.185 -463.9 1154.208 -463.9"/><polyline fill="none" stroke="#000" points="771.185 -439.1 1154.208 -439.1"/><text x="779.185" y="-422.5" fill="#000" font-family="Times,serif" font-size="14" text-anchor="start">Public:</text><text x="779.185" y="-405.7" fill="#000" font-family="Times,serif" font-size="14" text-anchor="start">recoverERC20(tokenAddress: address, tokenAmount: uint256)</text></g><g id="edge18" class="edge"><title>14-&gt;1</title><path fill="none" stroke="#000" stroke-dasharray="5 2" d="M1016.6077,-488.9804C1056.3898,-522.4024 1112.1632,-568.3612 1162.6964,-606.8 1184.7787,-623.5973 1200.5925,-618.3446 1213.6964,-642.8 1263.3328,-735.435 1253.6313,-1025.9799 1242.7676,-1198.0349"/><polygon fill="#000" stroke="#000" points="1239.265 -1197.97 1242.118 -1208.174 1246.25 -1198.418 1239.265 -1197.97"/></g><g id="edge17" class="edge"><title>14-&gt;13</title><path fill="none" stroke="#000" d="M962.6964,-488.8771C962.6964,-551.1375 962.6964,-665.1441 962.6964,-755.8269"/><polygon fill="none" stroke="#000" points="952.197 -755.884 962.696 -785.884 973.197 -755.884 952.197 -755.884"/></g><g id="node16" class="node"><title>15</title><polygon fill="#f2f2f2" stroke="#000" points="496.164 -330.3 496.164 -555.9 753.229 -555.9 753.229 -330.3 496.164 -330.3"/><text x="624.696" y="-539.3" fill="#000" font-family="Times,serif" font-size="14" text-anchor="middle">&lt;&lt;Abstract&gt;&gt;</text><text x="624.696" y="-522.5" fill="#000" font-family="Times,serif" font-size="14" text-anchor="middle">ERC20Mintable</text><polyline fill="none" stroke="#000" points="496.164 -514.3 753.229 -514.3"/><text x="504.164" y="-497.7" fill="#000" font-family="Times,serif" font-size="14" text-anchor="start">Private:</text><text x="504.164" y="-480.9" fill="#000" font-family="Times,serif" font-size="14" text-anchor="start">_mintingFinished: bool</text><polyline fill="none" stroke="#000" points="496.164 -472.7 753.229 -472.7"/><text x="504.164" y="-456.1" fill="#000" font-family="Times,serif" font-size="14" text-anchor="start">Internal:</text><text x="504.164" y="-439.3" fill="#000" font-family="Times,serif" font-size="14" text-anchor="start">_finishMinting()</text><text x="504.164" y="-422.5" fill="#000" font-family="Times,serif" font-size="14" text-anchor="start">Public:</text><text x="504.164" y="-405.7" fill="#000" font-family="Times,serif" font-size="14" text-anchor="start">&lt;&lt;event&gt;&gt; MintFinished()</text><text x="504.164" y="-388.9" fill="#000" font-family="Times,serif" font-size="14" text-anchor="start">&lt;&lt;modifier&gt;&gt; canMint()</text><text x="504.164" y="-372.1" fill="#000" font-family="Times,serif" font-size="14" text-anchor="start">mintingFinished(): bool</text><text x="504.164" y="-355.3" fill="#000" font-family="Times,serif" font-size="14" text-anchor="start">mint(account: address, amount: uint256)</text><text x="504.164" y="-338.5" fill="#000" font-family="Times,serif" font-size="14" text-anchor="start">finishMinting()</text></g><g id="edge19" class="edge"><title>15-&gt;3</title><path fill="none" stroke="#000" d="M589.3685,-555.9979C583.6425,-574.2964 577.5025,-593.9182 571.1719,-614.1491"/><polygon fill="none" stroke="#000" points="561.057 -611.316 562.118 -643.082 581.098 -617.587 561.057 -611.316"/></g><g id="node17" class="node"><title>16</title><polygon fill="#f2f2f2" stroke="#000" points="1796.007 -67.7 1796.007 -175.7 1971.386 -175.7 1971.386 -67.7 1796.007 -67.7"/><text x="1883.696" y="-159.1" fill="#000" font-family="Times,serif" font-size="14" text-anchor="middle">&lt;&lt;Interface&gt;&gt;</text><text x="1883.696" y="-142.3" fill="#000" font-family="Times,serif" font-size="14" text-anchor="middle">IPayable</text><polyline fill="none" stroke="#000" points="1796.007 -134.1 1971.386 -134.1"/><polyline fill="none" stroke="#000" points="1796.007 -109.3 1971.386 -109.3"/><text x="1804.007" y="-92.7" fill="#000" font-family="Times,serif" font-size="14" text-anchor="start">External:</text><text x="1804.007" y="-75.9" fill="#000" font-family="Times,serif" font-size="14" text-anchor="start">pay(serviceName: string)</text></g><g id="node18" class="node"><title>17</title><polygon fill="#f2f2f2" stroke="#000" points="1753.656 -389.1 1753.656 -497.1 2069.736 -497.1 2069.736 -389.1 1753.656 -389.1"/><text x="1911.696" y="-480.5" fill="#000" font-family="Times,serif" font-size="14" text-anchor="middle">&lt;&lt;Abstract&gt;&gt;</text><text x="1911.696" y="-463.7" fill="#000" font-family="Times,serif" font-size="14" text-anchor="middle">ServicePayer</text><polyline fill="none" stroke="#000" points="1753.656 -455.5 2069.736 -455.5"/><polyline fill="none" stroke="#000" points="1753.656 -430.7 2069.736 -430.7"/><text x="1761.656" y="-414.1" fill="#000" font-family="Times,serif" font-size="14" text-anchor="start">Public:</text><text x="1761.656" y="-397.3" fill="#000" font-family="Times,serif" font-size="14" text-anchor="start">constructor(receiver: address, serviceName: string)</text></g><g id="node19" class="node"><title>18</title><polygon fill="#f2f2f2" stroke="#000" points="657.467 -50.9 657.467 -192.5 1267.926 -192.5 1267.926 -50.9 657.467 -50.9"/><text x="962.696" y="-175.9" fill="#000" font-family="Times,serif" font-size="14" text-anchor="middle">AmazingERC20</text><polyline fill="none" stroke="#000" points="657.467 -167.7 1267.926 -167.7"/><polyline fill="none" stroke="#000" points="657.467 -142.9 1267.926 -142.9"/><text x="665.467" y="-126.3" fill="#000" font-family="Times,serif" font-size="14" text-anchor="start">Internal:</text><text x="665.467" y="-109.5" fill="#000" font-family="Times,serif" font-size="14" text-anchor="start">_mint(account: address, amount: uint256)</text><text x="665.467" y="-92.7" fill="#000" font-family="Times,serif" font-size="14" text-anchor="start">_finishMinting()</text><text x="665.467" y="-75.9" fill="#000" font-family="Times,serif" font-size="14" text-anchor="start">Public:</text><text x="665.467" y="-59.1" fill="#000" font-family="Times,serif" font-size="14" text-anchor="start">constructor(name: string, symbol: string, decimals: uint8, initialBalance: uint256, feeReceiver: address)</text></g><g id="edge21" class="edge"><title>18-&gt;4</title><path fill="none" stroke="#000" d="M671.1329,-192.5749C607.558,-214.9202 542.6312,-243.4542 486.6964,-279.4 454.3251,-300.203 424.2139,-329.4705 399.4735,-357.5164"/><polygon fill="none" stroke="#000" points="391.34 -350.874 380.023 -380.575 407.392 -364.414 391.34 -350.874"/></g><g id="edge22" class="edge"><title>18-&gt;12</title><path fill="none" stroke="#000" d="M1071.0563,-192.6305C1103.6052,-213.9364 1140.8896,-238.3421 1179.1281,-263.3724"/><polygon fill="none" stroke="#000" points="1173.503 -272.24 1204.354 -279.885 1185.004 -254.669 1173.503 -272.24"/></g><g id="edge23" class="edge"><title>18-&gt;14</title><path fill="none" stroke="#000" d="M962.6964,-192.6305C962.6964,-244.2212 962.6964,-313.9864 962.6964,-366.7852"/><polygon fill="none" stroke="#000" points="952.197 -367.153 962.696 -397.153 973.197 -367.153 952.197 -367.153"/></g><g id="edge20" class="edge"><title>18-&gt;15</title><path fill="none" stroke="#000" d="M863.9537,-192.6076C830.249,-218.4915 793.1526,-248.9216 761.6964,-279.4 752.4371,-288.3715 743.1644,-297.9277 734.0528,-307.7441"/><polygon fill="none" stroke="#000" points="726.074 -300.914 713.807 -330.236 741.682 -314.963 726.074 -300.914"/></g><g id="edge24" class="edge"><title>18-&gt;17</title><path fill="none" stroke="#000" d="M1118.8004,-192.5628C1168.3366,-212.2161 1223.9584,-231.4259 1276.6964,-243.4 1378.4148,-266.4949 1649.7156,-236.2879 1744.6964,-279.4 1786.9394,-298.5743 1824.7432,-333.2454 1853.6547,-365.7592"/><polygon fill="none" stroke="#000" points="1845.71 -372.626 1873.072 -388.801 1861.769 -359.094 1845.71 -372.626"/></g></g></svg>