<svg xmlns="http://www.w3.org/2000/svg" xmlns:xlink="http://www.w3.org/1999/xlink" width="1058pt" height="1157pt" viewBox="0 0 1057.77 1156.8"><g id="graph0" class="graph" transform="scale(1 1) rotate(0) translate(4 1152.8)"><title>UmlClassDiagram</title><polygon fill="#fff" stroke="transparent" points="-4 4 -4 -1152.8 1053.769 -1152.8 1053.769 4 -4 4"/><g id="node1" class="node"><title>0</title><polygon fill="#f2f2f2" stroke="#000" points="0 -931.1 0 -1055.9 218.145 -1055.9 218.145 -931.1 0 -931.1"/><text x="109.072" y="-1039.3" fill="#000" font-family="Times,serif" font-size="14" text-anchor="middle">&lt;&lt;Abstract&gt;&gt;</text><text x="109.072" y="-1022.5" fill="#000" font-family="Times,serif" font-size="14" text-anchor="middle">Context</text><polyline fill="none" stroke="#000" points="0 -1014.3 218.145 -1014.3"/><polyline fill="none" stroke="#000" points="0 -989.5 218.145 -989.5"/><text x="8" y="-972.9" fill="#000" font-family="Times,serif" font-size="14" text-anchor="start">Internal:</text><text x="8" y="-956.1" fill="#000" font-family="Times,serif" font-size="14" text-anchor="start">_msgSender(): (payable: address)</text><text x="8" y="-939.3" fill="#000" font-family="Times,serif" font-size="14" text-anchor="start">_msgData(): bytes</text></g><g id="node2" class="node"><title>1</title><polygon fill="#f2f2f2" stroke="#000" points="235.772 -872.3 235.772 -1114.7 674.372 -1114.7 674.372 -872.3 235.772 -872.3"/><text x="455.072" y="-1098.1" fill="#000" font-family="Times,serif" font-size="14" text-anchor="middle">&lt;&lt;Interface&gt;&gt;</text><text x="455.072" y="-1081.3" fill="#000" font-family="Times,serif" font-size="14" text-anchor="middle">IERC20</text><polyline fill="none" stroke="#000" points="235.772 -1073.1 674.372 -1073.1"/><polyline fill="none" stroke="#000" points="235.772 -1048.3 674.372 -1048.3"/><text x="243.772" y="-1031.7" fill="#000" font-family="Times,serif" font-size="14" text-anchor="start">External:</text><text x="243.772" y="-1014.9" fill="#000" font-family="Times,serif" font-size="14" text-anchor="start">totalSupply(): uint256</text><text x="243.772" y="-998.1" fill="#000" font-family="Times,serif" font-size="14" text-anchor="start">balanceOf(account: address): uint256</text><text x="243.772" y="-981.3" fill="#000" font-family="Times,serif" font-size="14" text-anchor="start">transfer(recipient: address, amount: uint256): bool</text><text x="243.772" y="-964.5" fill="#000" font-family="Times,serif" font-size="14" text-anchor="start">allowance(owner: address, spender: address): uint256</text><text x="243.772" y="-947.7" fill="#000" font-family="Times,serif" font-size="14" text-anchor="start">approve(spender: address, amount: uint256): bool</text><text x="243.772" y="-930.9" fill="#000" font-family="Times,serif" font-size="14" text-anchor="start">transferFrom(sender: address, recipient: address, amount: uint256): bool</text><text x="243.772" y="-914.1" fill="#000" font-family="Times,serif" font-size="14" text-anchor="start">Public:</text><text x="243.772" y="-897.3" fill="#000" font-family="Times,serif" font-size="14" text-anchor="start">&lt;&lt;event&gt;&gt; Transfer(from: address, to: address, value: uint256)</text><text x="243.772" y="-880.5" fill="#000" font-family="Times,serif" font-size="14" text-anchor="start">&lt;&lt;event&gt;&gt; Approval(owner: address, spender: address, value: uint256)</text></g><g id="node3" class="node"><title>2</title><polygon fill="#f2f2f2" stroke="#000" points="692.376 -838.7 692.376 -1148.3 1049.769 -1148.3 1049.769 -838.7 692.376 -838.7"/><text x="871.072" y="-1131.7" fill="#000" font-family="Times,serif" font-size="14" text-anchor="middle">&lt;&lt;Library&gt;&gt;</text><text x="871.072" y="-1114.9" fill="#000" font-family="Times,serif" font-size="14" text-anchor="middle">SafeMath</text><polyline fill="none" stroke="#000" points="692.376 -1106.7 1049.769 -1106.7"/><polyline fill="none" stroke="#000" points="692.376 -1081.9 1049.769 -1081.9"/><text x="700.376" y="-1065.3" fill="#000" font-family="Times,serif" font-size="14" text-anchor="start">Internal:</text><text x="700.376" y="-1048.5" fill="#000" font-family="Times,serif" font-size="14" text-anchor="start">tryAdd(a: uint256, b: uint256): (bool, uint256)</text><text x="700.376" y="-1031.7" fill="#000" font-family="Times,serif" font-size="14" text-anchor="start">trySub(a: uint256, b: uint256): (bool, uint256)</text><text x="700.376" y="-1014.9" fill="#000" font-family="Times,serif" font-size="14" text-anchor="start">tryMul(a: uint256, b: uint256): (bool, uint256)</text><text x="700.376" y="-998.1" fill="#000" font-family="Times,serif" font-size="14" text-anchor="start">tryDiv(a: uint256, b: uint256): (bool, uint256)</text><text x="700.376" y="-981.3" fill="#000" font-family="Times,serif" font-size="14" text-anchor="start">tryMod(a: uint256, b: uint256): (bool, uint256)</text><text x="700.376" y="-964.5" fill="#000" font-family="Times,serif" font-size="14" text-anchor="start">add(a: uint256, b: uint256): uint256</text><text x="700.376" y="-947.7" fill="#000" font-family="Times,serif" font-size="14" text-anchor="start">sub(a: uint256, b: uint256): uint256</text><text x="700.376" y="-930.9" fill="#000" font-family="Times,serif" font-size="14" text-anchor="start">mul(a: uint256, b: uint256): uint256</text><text x="700.376" y="-914.1" fill="#000" font-family="Times,serif" font-size="14" text-anchor="start">div(a: uint256, b: uint256): uint256</text><text x="700.376" y="-897.3" fill="#000" font-family="Times,serif" font-size="14" text-anchor="start">mod(a: uint256, b: uint256): uint256</text><text x="700.376" y="-880.5" fill="#000" font-family="Times,serif" font-size="14" text-anchor="start">sub(a: uint256, b: uint256, errorMessage: string): uint256</text><text x="700.376" y="-863.7" fill="#000" font-family="Times,serif" font-size="14" text-anchor="start">div(a: uint256, b: uint256, errorMessage: string): uint256</text><text x="700.376" y="-846.9" fill="#000" font-family="Times,serif" font-size="14" text-anchor="start">mod(a: uint256, b: uint256, errorMessage: string): uint256</text></g><g id="node4" class="node"><title>3</title><polygon fill="#f2f2f2" stroke="#000" points="137.522 -307.3 137.522 -801.7 572.622 -801.7 572.622 -307.3 137.522 -307.3"/><text x="355.072" y="-785.1" fill="#000" font-family="Times,serif" font-size="14" text-anchor="middle">ERC20</text><polyline fill="none" stroke="#000" points="137.522 -776.9 572.622 -776.9"/><text x="145.522" y="-760.3" fill="#000" font-family="Times,serif" font-size="14" text-anchor="start">Private:</text><text x="145.522" y="-743.5" fill="#000" font-family="Times,serif" font-size="14" text-anchor="start">_balances: mapping(address=&gt;uint256)</text><text x="145.522" y="-726.7" fill="#000" font-family="Times,serif" font-size="14" text-anchor="start">_allowances: mapping(address=&gt;mapping(address=&gt;uint256))</text><text x="145.522" y="-709.9" fill="#000" font-family="Times,serif" font-size="14" text-anchor="start">_totalSupply: uint256</text><text x="145.522" y="-693.1" fill="#000" font-family="Times,serif" font-size="14" text-anchor="start">_name: string</text><text x="145.522" y="-676.3" fill="#000" font-family="Times,serif" font-size="14" text-anchor="start">_symbol: string</text><text x="145.522" y="-659.5" fill="#000" font-family="Times,serif" font-size="14" text-anchor="start">_decimals: uint8</text><polyline fill="none" stroke="#000" points="137.522 -651.3 572.622 -651.3"/><text x="145.522" y="-634.7" fill="#000" font-family="Times,serif" font-size="14" text-anchor="start">Internal:</text><text x="145.522" y="-617.9" fill="#000" font-family="Times,serif" font-size="14" text-anchor="start">_transfer(sender: address, recipient: address, amount: uint256)</text><text x="145.522" y="-601.1" fill="#000" font-family="Times,serif" font-size="14" text-anchor="start">_mint(account: address, amount: uint256)</text><text x="145.522" y="-584.3" fill="#000" font-family="Times,serif" font-size="14" text-anchor="start">_burn(account: address, amount: uint256)</text><text x="145.522" y="-567.5" fill="#000" font-family="Times,serif" font-size="14" text-anchor="start">_approve(owner: address, spender: address, amount: uint256)</text><text x="145.522" y="-550.7" fill="#000" font-family="Times,serif" font-size="14" text-anchor="start">_setupDecimals(decimals_: uint8)</text><text x="145.522" y="-533.9" fill="#000" font-family="Times,serif" font-size="14" text-anchor="start">_beforeTokenTransfer(from: address, to: address, amount: uint256)</text><text x="145.522" y="-517.1" fill="#000" font-family="Times,serif" font-size="14" text-anchor="start">Public:</text><text x="145.522" y="-500.3" fill="#000" font-family="Times,serif" font-size="14" text-anchor="start">constructor(name_: string, symbol_: string)</text><text x="145.522" y="-483.5" fill="#000" font-family="Times,serif" font-size="14" text-anchor="start">name(): string</text><text x="145.522" y="-466.7" fill="#000" font-family="Times,serif" font-size="14" text-anchor="start">symbol(): string</text><text x="145.522" y="-449.9" fill="#000" font-family="Times,serif" font-size="14" text-anchor="start">decimals(): uint8</text><text x="145.522" y="-433.1" fill="#000" font-family="Times,serif" font-size="14" text-anchor="start">totalSupply(): uint256</text><text x="145.522" y="-416.3" fill="#000" font-family="Times,serif" font-size="14" text-anchor="start">balanceOf(account: address): uint256</text><text x="145.522" y="-399.5" fill="#000" font-family="Times,serif" font-size="14" text-anchor="start">transfer(recipient: address, amount: uint256): bool</text><text x="145.522" y="-382.7" fill="#000" font-family="Times,serif" font-size="14" text-anchor="start">allowance(owner: address, spender: address): uint256</text><text x="145.522" y="-365.9" fill="#000" font-family="Times,serif" font-size="14" text-anchor="start">approve(spender: address, amount: uint256): bool</text><text x="145.522" y="-349.1" fill="#000" font-family="Times,serif" font-size="14" text-anchor="start">transferFrom(sender: address, recipient: address, amount: uint256): bool</text><text x="145.522" y="-332.3" fill="#000" font-family="Times,serif" font-size="14" text-anchor="start">increaseAllowance(spender: address, addedValue: uint256): bool</text><text x="145.522" y="-315.5" fill="#000" font-family="Times,serif" font-size="14" text-anchor="start">decreaseAllowance(spender: address, subtractedValue: uint256): bool</text></g><g id="edge1" class="edge"><title>3-&gt;0</title><path fill="none" stroke="#000" d="M216.4347,-801.9061C195.8829,-838.5818 175.9232,-874.2011 158.9009,-904.5782"/><polygon fill="none" stroke="#000" points="149.667 -899.578 144.161 -930.882 167.987 -909.843 149.667 -899.578"/></g><g id="edge2" class="edge"><title>3-&gt;1</title><path fill="none" stroke="#000" stroke-dasharray="5 2" d="M411.429,-801.9061C414.5786,-815.7325 417.6939,-829.4088 420.7239,-842.7107"/><polygon fill="none" stroke="#000" points="410.505 -845.124 427.406 -872.043 430.98 -840.46 410.505 -845.124"/></g><g id="edge3" class="edge"><title>3-&gt;2</title><path fill="none" stroke="#000" stroke-dasharray="5 2" d="M572.781,-739.7212C609.9123,-771.3116 648.1852,-803.8732 684.4203,-834.7011"/><polygon fill="#000" stroke="#000" points="682.236 -837.438 692.12 -841.252 686.772 -832.106 682.236 -837.438"/></g><g id="node5" class="node"><title>4</title><polygon fill="#f2f2f2" stroke="#000" points="211.379 -145.5 211.379 -270.3 498.766 -270.3 498.766 -145.5 211.379 -145.5"/><text x="355.072" y="-253.7" fill="#000" font-family="Times,serif" font-size="14" text-anchor="middle">&lt;&lt;Abstract&gt;&gt;</text><text x="355.072" y="-236.9" fill="#000" font-family="Times,serif" font-size="14" text-anchor="middle">ERC20Burnable</text><polyline fill="none" stroke="#000" points="211.379 -228.7 498.766 -228.7"/><polyline fill="none" stroke="#000" points="211.379 -203.9 498.766 -203.9"/><text x="219.379" y="-187.3" fill="#000" font-family="Times,serif" font-size="14" text-anchor="start">Public:</text><text x="219.379" y="-170.5" fill="#000" font-family="Times,serif" font-size="14" text-anchor="start">burn(amount: uint256)</text><text x="219.379" y="-153.7" fill="#000" font-family="Times,serif" font-size="14" text-anchor="start">burnFrom(account: address, amount: uint256)</text></g><g id="edge4" class="edge"><title>4-&gt;0</title><path fill="none" stroke="#000" d="M211.24,-241.9695C178.7293,-256.5603 147.9751,-277.3167 128.0723,-306.8 6.0416,-487.5718 48.6621,-760.4997 82.9673,-901.6699"/><polygon fill="none" stroke="#000" points="72.842 -904.457 90.425 -930.936 93.192 -899.272 72.842 -904.457"/></g><g id="edge6" class="edge"><title>4-&gt;2</title><path fill="none" stroke="#000" stroke-dasharray="5 2" d="M498.813,-268.1113C541.5823,-286.4882 578.2305,-302.9098 582.0723,-306.8 724.3671,-450.8892 800.7068,-675.5764 838.5428,-828.3863"/><polygon fill="#000" stroke="#000" points="835.203 -829.464 840.98 -838.346 842.003 -827.801 835.203 -829.464"/></g><g id="edge5" class="edge"><title>4-&gt;3</title><path fill="none" stroke="#000" d="M355.0723,-270.6666C355.0723,-272.7698 355.0723,-274.9103 355.0723,-277.0856"/><polygon fill="none" stroke="#000" points="344.572 -277.119 355.072 -307.119 365.572 -277.119 344.572 -277.119"/></g><g id="node6" class="node"><title>5</title><polygon fill="#f2f2f2" stroke="#000" points="838.383 -.5 838.383 -108.5 1013.762 -108.5 1013.762 -.5 838.383 -.5"/><text x="926.072" y="-91.9" fill="#000" font-family="Times,serif" font-size="14" text-anchor="middle">&lt;&lt;Interface&gt;&gt;</text><text x="926.072" y="-75.1" fill="#000" font-family="Times,serif" font-size="14" text-anchor="middle">IPayable</text><polyline fill="none" stroke="#000" points="838.383 -66.9 1013.762 -66.9"/><polyline fill="none" stroke="#000" points="838.383 -42.1 1013.762 -42.1"/><text x="846.383" y="-25.5" fill="#000" font-family="Times,serif" font-size="14" text-anchor="start">External:</text><text x="846.383" y="-8.7" fill="#000" font-family="Times,serif" font-size="14" text-anchor="start">pay(serviceName: string)</text></g><g id="node7" class="node"><title>6</title><polygon fill="#f2f2f2" stroke="#000" points="517.032 -153.9 517.032 -261.9 833.112 -261.9 833.112 -153.9 517.032 -153.9"/><text x="675.072" y="-245.3" fill="#000" font-family="Times,serif" font-size="14" text-anchor="middle">&lt;&lt;Abstract&gt;&gt;</text><text x="675.072" y="-228.5" fill="#000" font-family="Times,serif" font-size="14" text-anchor="middle">ServicePayer</text><polyline fill="none" stroke="#000" points="517.032 -220.3 833.112 -220.3"/><polyline fill="none" stroke="#000" points="517.032 -195.5 833.112 -195.5"/><text x="525.032" y="-178.9" fill="#000" font-family="Times,serif" font-size="14" text-anchor="start">Public:</text><text x="525.032" y="-162.1" fill="#000" font-family="Times,serif" font-size="14" text-anchor="start">constructor(receiver: address, serviceName: string)</text></g><g id="node8" class="node"><title>7</title><polygon fill="#f2f2f2" stroke="#000" points="209.843 -8.9 209.843 -100.1 820.302 -100.1 820.302 -8.9 209.843 -8.9"/><text x="515.072" y="-83.5" fill="#000" font-family="Times,serif" font-size="14" text-anchor="middle">BurnableERC20</text><polyline fill="none" stroke="#000" points="209.843 -75.3 820.302 -75.3"/><polyline fill="none" stroke="#000" points="209.843 -50.5 820.302 -50.5"/><text x="217.843" y="-33.9" fill="#000" font-family="Times,serif" font-size="14" text-anchor="start">Public:</text><text x="217.843" y="-17.1" fill="#000" font-family="Times,serif" font-size="14" text-anchor="start">constructor(name: string, symbol: string, decimals: uint8, initialBalance: uint256, feeReceiver: address)</text></g><g id="edge7" class="edge"><title>7-&gt;4</title><path fill="none" stroke="#000" d="M467.5002,-100.1097C459.3897,-107.8857 450.7438,-116.1749 441.9866,-124.5709"/><polygon fill="none" stroke="#000" points="434.619 -117.088 420.231 -145.429 449.152 -132.247 434.619 -117.088"/></g><g id="edge8" class="edge"><title>7-&gt;6</title><path fill="none" stroke="#000" d="M562.6444,-100.1097C573.3659,-110.389 585.0228,-121.565 596.6357,-132.6989"/><polygon fill="none" stroke="#000" points="589.734 -140.628 618.656 -153.811 604.268 -125.47 589.734 -140.628"/></g></g></svg>