<svg xmlns="http://www.w3.org/2000/svg" xmlns:xlink="http://www.w3.org/1999/xlink" width="1636pt" height="1744" viewBox="0 0 1636.48 1308"><g id="graph0" class="graph" transform="scale(1 1) rotate(0) translate(4 1304)"><title>UmlClassDiagram</title><polygon fill="#fff" stroke="transparent" points="-4 4 -4 -1304 1632.477 -1304 1632.477 4 -4 4"/><g id="node1" class="node"><title>0</title><polygon fill="#f2f2f2" stroke="#000" points="303.365 -1082.3 303.365 -1207.1 521.509 -1207.1 521.509 -1082.3 303.365 -1082.3"/><text x="412.437" y="-1190.5" fill="#000" font-family="Times,serif" font-size="14" text-anchor="middle">&lt;&lt;Abstract&gt;&gt;</text><text x="412.437" y="-1173.7" fill="#000" font-family="Times,serif" font-size="14" text-anchor="middle">Context</text><polyline fill="none" stroke="#000" points="303.365 -1165.5 521.509 -1165.5"/><polyline fill="none" stroke="#000" points="303.365 -1140.7 521.509 -1140.7"/><text x="311.365" y="-1124.1" fill="#000" font-family="Times,serif" font-size="14" text-anchor="start">Internal:</text><text x="311.365" y="-1107.3" fill="#000" font-family="Times,serif" font-size="14" text-anchor="start">_msgSender(): (payable: address)</text><text x="311.365" y="-1090.5" fill="#000" font-family="Times,serif" font-size="14" text-anchor="start">_msgData(): bytes</text></g><g id="node2" class="node"><title>1</title><polygon fill="#f2f2f2" stroke="#000" points="0 -601.3 0 -810.1 484.874 -810.1 484.874 -601.3 0 -601.3"/><text x="242.437" y="-793.5" fill="#000" font-family="Times,serif" font-size="14" text-anchor="middle">&lt;&lt;Abstract&gt;&gt;</text><text x="242.437" y="-776.7" fill="#000" font-family="Times,serif" font-size="14" text-anchor="middle">Ownable</text><polyline fill="none" stroke="#000" points="0 -768.5 484.874 -768.5"/><text x="8" y="-751.9" fill="#000" font-family="Times,serif" font-size="14" text-anchor="start">Private:</text><text x="8" y="-735.1" fill="#000" font-family="Times,serif" font-size="14" text-anchor="start">_owner: address</text><polyline fill="none" stroke="#000" points="0 -726.9 484.874 -726.9"/><text x="8" y="-710.3" fill="#000" font-family="Times,serif" font-size="14" text-anchor="start">Public:</text><text x="8" y="-693.5" fill="#000" font-family="Times,serif" font-size="14" text-anchor="start">&lt;&lt;event&gt;&gt; OwnershipTransferred(previousOwner: address, newOwner: address)</text><text x="8" y="-676.7" fill="#000" font-family="Times,serif" font-size="14" text-anchor="start">&lt;&lt;modifier&gt;&gt; onlyOwner()</text><text x="8" y="-659.9" fill="#000" font-family="Times,serif" font-size="14" text-anchor="start">constructor()</text><text x="8" y="-643.1" fill="#000" font-family="Times,serif" font-size="14" text-anchor="start">owner(): address</text><text x="8" y="-626.3" fill="#000" font-family="Times,serif" font-size="14" text-anchor="start">renounceOwnership()</text><text x="8" y="-609.5" fill="#000" font-family="Times,serif" font-size="14" text-anchor="start">transferOwnership(newOwner: address)</text></g><g id="edge1" class="edge"><title>1-&gt;0</title><path fill="none" stroke="#000" d="M282.9403,-810.2937C311.7056,-884.576 349.9394,-983.3092 377.3944,-1054.2076"/><polygon fill="none" stroke="#000" points="367.634 -1058.079 388.259 -1082.263 387.217 -1050.495 367.634 -1058.079"/></g><g id="node3" class="node"><title>2</title><polygon fill="#f2f2f2" stroke="#000" points="539.137 -1023.5 539.137 -1265.9 977.737 -1265.9 977.737 -1023.5 539.137 -1023.5"/><text x="758.437" y="-1249.3" fill="#000" font-family="Times,serif" font-size="14" text-anchor="middle">&lt;&lt;Interface&gt;&gt;</text><text x="758.437" y="-1232.5" fill="#000" font-family="Times,serif" font-size="14" text-anchor="middle">IERC20</text><polyline fill="none" stroke="#000" points="539.137 -1224.3 977.737 -1224.3"/><polyline fill="none" stroke="#000" points="539.137 -1199.5 977.737 -1199.5"/><text x="547.137" y="-1182.9" fill="#000" font-family="Times,serif" font-size="14" text-anchor="start">External:</text><text x="547.137" y="-1166.1" fill="#000" font-family="Times,serif" font-size="14" text-anchor="start">totalSupply(): uint256</text><text x="547.137" y="-1149.3" fill="#000" font-family="Times,serif" font-size="14" text-anchor="start">balanceOf(account: address): uint256</text><text x="547.137" y="-1132.5" fill="#000" font-family="Times,serif" font-size="14" text-anchor="start">transfer(recipient: address, amount: uint256): bool</text><text x="547.137" y="-1115.7" fill="#000" font-family="Times,serif" font-size="14" text-anchor="start">allowance(owner: address, spender: address): uint256</text><text x="547.137" y="-1098.9" fill="#000" font-family="Times,serif" font-size="14" text-anchor="start">approve(spender: address, amount: uint256): bool</text><text x="547.137" y="-1082.1" fill="#000" font-family="Times,serif" font-size="14" text-anchor="start">transferFrom(sender: address, recipient: address, amount: uint256): bool</text><text x="547.137" y="-1065.3" fill="#000" font-family="Times,serif" font-size="14" text-anchor="start">Public:</text><text x="547.137" y="-1048.5" fill="#000" font-family="Times,serif" font-size="14" text-anchor="start">&lt;&lt;event&gt;&gt; Transfer(from: address, to: address, value: uint256)</text><text x="547.137" y="-1031.7" fill="#000" font-family="Times,serif" font-size="14" text-anchor="start">&lt;&lt;event&gt;&gt; Approval(owner: address, spender: address, value: uint256)</text></g><g id="node4" class="node"><title>3</title><polygon fill="#f2f2f2" stroke="#000" points="995.741 -989.9 995.741 -1299.5 1353.133 -1299.5 1353.133 -989.9 995.741 -989.9"/><text x="1174.437" y="-1282.9" fill="#000" font-family="Times,serif" font-size="14" text-anchor="middle">&lt;&lt;Library&gt;&gt;</text><text x="1174.437" y="-1266.1" fill="#000" font-family="Times,serif" font-size="14" text-anchor="middle">SafeMath</text><polyline fill="none" stroke="#000" points="995.741 -1257.9 1353.133 -1257.9"/><polyline fill="none" stroke="#000" points="995.741 -1233.1 1353.133 -1233.1"/><text x="1003.741" y="-1216.5" fill="#000" font-family="Times,serif" font-size="14" text-anchor="start">Internal:</text><text x="1003.741" y="-1199.7" fill="#000" font-family="Times,serif" font-size="14" text-anchor="start">tryAdd(a: uint256, b: uint256): (bool, uint256)</text><text x="1003.741" y="-1182.9" fill="#000" font-family="Times,serif" font-size="14" text-anchor="start">trySub(a: uint256, b: uint256): (bool, uint256)</text><text x="1003.741" y="-1166.1" fill="#000" font-family="Times,serif" font-size="14" text-anchor="start">tryMul(a: uint256, b: uint256): (bool, uint256)</text><text x="1003.741" y="-1149.3" fill="#000" font-family="Times,serif" font-size="14" text-anchor="start">tryDiv(a: uint256, b: uint256): (bool, uint256)</text><text x="1003.741" y="-1132.5" fill="#000" font-family="Times,serif" font-size="14" text-anchor="start">tryMod(a: uint256, b: uint256): (bool, uint256)</text><text x="1003.741" y="-1115.7" fill="#000" font-family="Times,serif" font-size="14" text-anchor="start">add(a: uint256, b: uint256): uint256</text><text x="1003.741" y="-1098.9" fill="#000" font-family="Times,serif" font-size="14" text-anchor="start">sub(a: uint256, b: uint256): uint256</text><text x="1003.741" y="-1082.1" fill="#000" font-family="Times,serif" font-size="14" text-anchor="start">mul(a: uint256, b: uint256): uint256</text><text x="1003.741" y="-1065.3" fill="#000" font-family="Times,serif" font-size="14" text-anchor="start">div(a: uint256, b: uint256): uint256</text><text x="1003.741" y="-1048.5" fill="#000" font-family="Times,serif" font-size="14" text-anchor="start">mod(a: uint256, b: uint256): uint256</text><text x="1003.741" y="-1031.7" fill="#000" font-family="Times,serif" font-size="14" text-anchor="start">sub(a: uint256, b: uint256, errorMessage: string): uint256</text><text x="1003.741" y="-1014.9" fill="#000" font-family="Times,serif" font-size="14" text-anchor="start">div(a: uint256, b: uint256, errorMessage: string): uint256</text><text x="1003.741" y="-998.1" fill="#000" font-family="Times,serif" font-size="14" text-anchor="start">mod(a: uint256, b: uint256, errorMessage: string): uint256</text></g><g id="node5" class="node"><title>4</title><polygon fill="#f2f2f2" stroke="#000" points="540.887 -458.5 540.887 -952.9 975.987 -952.9 975.987 -458.5 540.887 -458.5"/><text x="758.437" y="-936.3" fill="#000" font-family="Times,serif" font-size="14" text-anchor="middle">ERC20</text><polyline fill="none" stroke="#000" points="540.887 -928.1 975.987 -928.1"/><text x="548.887" y="-911.5" fill="#000" font-family="Times,serif" font-size="14" text-anchor="start">Private:</text><text x="548.887" y="-894.7" fill="#000" font-family="Times,serif" font-size="14" text-anchor="start">_balances: mapping(address=&gt;uint256)</text><text x="548.887" y="-877.9" fill="#000" font-family="Times,serif" font-size="14" text-anchor="start">_allowances: mapping(address=&gt;mapping(address=&gt;uint256))</text><text x="548.887" y="-861.1" fill="#000" font-family="Times,serif" font-size="14" text-anchor="start">_totalSupply: uint256</text><text x="548.887" y="-844.3" fill="#000" font-family="Times,serif" font-size="14" text-anchor="start">_name: string</text><text x="548.887" y="-827.5" fill="#000" font-family="Times,serif" font-size="14" text-anchor="start">_symbol: string</text><text x="548.887" y="-810.7" fill="#000" font-family="Times,serif" font-size="14" text-anchor="start">_decimals: uint8</text><polyline fill="none" stroke="#000" points="540.887 -802.5 975.987 -802.5"/><text x="548.887" y="-785.9" fill="#000" font-family="Times,serif" font-size="14" text-anchor="start">Internal:</text><text x="548.887" y="-769.1" fill="#000" font-family="Times,serif" font-size="14" text-anchor="start">_transfer(sender: address, recipient: address, amount: uint256)</text><text x="548.887" y="-752.3" fill="#000" font-family="Times,serif" font-size="14" text-anchor="start">_mint(account: address, amount: uint256)</text><text x="548.887" y="-735.5" fill="#000" font-family="Times,serif" font-size="14" text-anchor="start">_burn(account: address, amount: uint256)</text><text x="548.887" y="-718.7" fill="#000" font-family="Times,serif" font-size="14" text-anchor="start">_approve(owner: address, spender: address, amount: uint256)</text><text x="548.887" y="-701.9" fill="#000" font-family="Times,serif" font-size="14" text-anchor="start">_setupDecimals(decimals_: uint8)</text><text x="548.887" y="-685.1" fill="#000" font-family="Times,serif" font-size="14" text-anchor="start">_beforeTokenTransfer(from: address, to: address, amount: uint256)</text><text x="548.887" y="-668.3" fill="#000" font-family="Times,serif" font-size="14" text-anchor="start">Public:</text><text x="548.887" y="-651.5" fill="#000" font-family="Times,serif" font-size="14" text-anchor="start">constructor(name_: string, symbol_: string)</text><text x="548.887" y="-634.7" fill="#000" font-family="Times,serif" font-size="14" text-anchor="start">name(): string</text><text x="548.887" y="-617.9" fill="#000" font-family="Times,serif" font-size="14" text-anchor="start">symbol(): string</text><text x="548.887" y="-601.1" fill="#000" font-family="Times,serif" font-size="14" text-anchor="start">decimals(): uint8</text><text x="548.887" y="-584.3" fill="#000" font-family="Times,serif" font-size="14" text-anchor="start">totalSupply(): uint256</text><text x="548.887" y="-567.5" fill="#000" font-family="Times,serif" font-size="14" text-anchor="start">balanceOf(account: address): uint256</text><text x="548.887" y="-550.7" fill="#000" font-family="Times,serif" font-size="14" text-anchor="start">transfer(recipient: address, amount: uint256): bool</text><text x="548.887" y="-533.9" fill="#000" font-family="Times,serif" font-size="14" text-anchor="start">allowance(owner: address, spender: address): uint256</text><text x="548.887" y="-517.1" fill="#000" font-family="Times,serif" font-size="14" text-anchor="start">approve(spender: address, amount: uint256): bool</text><text x="548.887" y="-500.3" fill="#000" font-family="Times,serif" font-size="14" text-anchor="start">transferFrom(sender: address, recipient: address, amount: uint256): bool</text><text x="548.887" y="-483.5" fill="#000" font-family="Times,serif" font-size="14" text-anchor="start">increaseAllowance(spender: address, addedValue: uint256): bool</text><text x="548.887" y="-466.7" fill="#000" font-family="Times,serif" font-size="14" text-anchor="start">decreaseAllowance(spender: address, subtractedValue: uint256): bool</text></g><g id="edge2" class="edge"><title>4-&gt;0</title><path fill="none" stroke="#000" d="M559.0812,-952.9464C549.3665,-965.249 539.7753,-977.451 530.437,-989.4 513.1497,-1011.5204 494.6833,-1035.6016 477.6147,-1058.0536"/><polygon fill="none" stroke="#000" points="469.172 -1051.809 459.421 -1082.061 485.909 -1064.493 469.172 -1051.809"/></g><g id="edge3" class="edge"><title>4-&gt;2</title><path fill="none" stroke="#000" stroke-dasharray="5 2" d="M758.437,-953.1061C758.437,-966.6484 758.437,-980.0467 758.437,-993.0902"/><polygon fill="none" stroke="#000" points="747.937 -993.243 758.437 -1023.243 768.937 -993.243 747.937 -993.243"/></g><g id="edge4" class="edge"><title>4-&gt;3</title><path fill="none" stroke="#000" stroke-dasharray="5 2" d="M976.1838,-935.4857C991.1351,-951.2636 1006.019,-966.9704 1020.5257,-982.2792"/><polygon fill="#000" stroke="#000" points="1018.197 -984.91 1027.616 -989.761 1023.278 -980.095 1018.197 -984.91"/></g><g id="node6" class="node"><title>5</title><polygon fill="#f2f2f2" stroke="#000" points="886.309 -221.1 886.309 -396.3 1294.565 -396.3 1294.565 -221.1 886.309 -221.1"/><text x="1090.437" y="-379.7" fill="#000" font-family="Times,serif" font-size="14" text-anchor="middle">&lt;&lt;Abstract&gt;&gt;</text><text x="1090.437" y="-362.9" fill="#000" font-family="Times,serif" font-size="14" text-anchor="middle">ERC20Capped</text><polyline fill="none" stroke="#000" points="886.309 -354.7 1294.565 -354.7"/><text x="894.309" y="-338.1" fill="#000" font-family="Times,serif" font-size="14" text-anchor="start">Private:</text><text x="894.309" y="-321.3" fill="#000" font-family="Times,serif" font-size="14" text-anchor="start">_cap: uint256</text><polyline fill="none" stroke="#000" points="886.309 -313.1 1294.565 -313.1"/><text x="894.309" y="-296.5" fill="#000" font-family="Times,serif" font-size="14" text-anchor="start">Internal:</text><text x="894.309" y="-279.7" fill="#000" font-family="Times,serif" font-size="14" text-anchor="start">_beforeTokenTransfer(from: address, to: address, amount: uint256)</text><text x="894.309" y="-262.9" fill="#000" font-family="Times,serif" font-size="14" text-anchor="start">Public:</text><text x="894.309" y="-246.1" fill="#000" font-family="Times,serif" font-size="14" text-anchor="start">constructor(cap_: uint256)</text><text x="894.309" y="-229.3" fill="#000" font-family="Times,serif" font-size="14" text-anchor="start">cap(): uint256</text></g><g id="edge6" class="edge"><title>5-&gt;3</title><path fill="none" stroke="#000" stroke-dasharray="5 2" d="M1099.2677,-396.5866C1113.141,-534.6588 1140.2708,-804.6649 1157.8612,-979.7312"/><polygon fill="#000" stroke="#000" points="1154.392 -980.218 1158.875 -989.818 1161.357 -979.518 1154.392 -980.218"/></g><g id="edge5" class="edge"><title>5-&gt;4</title><path fill="none" stroke="#000" d="M1017.1672,-396.3148C1006.9524,-408.5294 996.0479,-421.5689 984.7093,-435.1274"/><polygon fill="none" stroke="#000" points="976.453 -428.632 965.263 -458.382 992.563 -442.104 976.453 -428.632"/></g><g id="node7" class="node"><title>6</title><polygon fill="#f2f2f2" stroke="#000" points="580.743 -246.3 580.743 -371.1 868.131 -371.1 868.131 -246.3 580.743 -246.3"/><text x="724.437" y="-354.5" fill="#000" font-family="Times,serif" font-size="14" text-anchor="middle">&lt;&lt;Abstract&gt;&gt;</text><text x="724.437" y="-337.7" fill="#000" font-family="Times,serif" font-size="14" text-anchor="middle">ERC20Burnable</text><polyline fill="none" stroke="#000" points="580.743 -329.5 868.131 -329.5"/><polyline fill="none" stroke="#000" points="580.743 -304.7 868.131 -304.7"/><text x="588.743" y="-288.1" fill="#000" font-family="Times,serif" font-size="14" text-anchor="start">Public:</text><text x="588.743" y="-271.3" fill="#000" font-family="Times,serif" font-size="14" text-anchor="start">burn(amount: uint256)</text><text x="588.743" y="-254.5" fill="#000" font-family="Times,serif" font-size="14" text-anchor="start">burnFrom(account: address, amount: uint256)</text></g><g id="edge7" class="edge"><title>6-&gt;0</title><path fill="none" stroke="#000" d="M640.6056,-371.1426C590.1124,-409.1505 534.886,-451.6027 531.437,-458 479.0395,-555.1873 519.526,-846.1142 493.437,-953.4 485.1181,-987.61 471.3658,-1023.5458 457.5335,-1054.917"/><polygon fill="none" stroke="#000" points="447.952 -1050.62 444.961 -1082.264 467.033 -1059.392 447.952 -1050.62"/></g><g id="edge9" class="edge"><title>6-&gt;3</title><path fill="none" stroke="#000" stroke-dasharray="5 2" d="M799.144,-371.3445C823.1113,-389.3905 850.4589,-407.9693 877.437,-422 922.3256,-445.3455 951.3023,-420.6526 985.437,-458 1138.0654,-624.9935 1036.4563,-737.0004 1102.437,-953.4 1105.0971,-962.1245 1107.9489,-971.0256 1110.927,-979.9798"/><polygon fill="#000" stroke="#000" points="1107.696 -981.352 1114.205 -989.711 1114.33 -979.117 1107.696 -981.352"/></g><g id="edge8" class="edge"><title>6-&gt;4</title><path fill="none" stroke="#000" d="M729.7869,-371.168C731.2296,-388.0133 732.8879,-407.377 734.6642,-428.1178"/><polygon fill="none" stroke="#000" points="724.222 -429.244 737.244 -458.239 745.146 -427.452 724.222 -429.244"/></g><g id="node8" class="node"><title>7</title><polygon fill="#f2f2f2" stroke="#000" points="305.905 -195.9 305.905 -421.5 562.969 -421.5 562.969 -195.9 305.905 -195.9"/><text x="434.437" y="-404.9" fill="#000" font-family="Times,serif" font-size="14" text-anchor="middle">&lt;&lt;Abstract&gt;&gt;</text><text x="434.437" y="-388.1" fill="#000" font-family="Times,serif" font-size="14" text-anchor="middle">ERC20Mintable</text><polyline fill="none" stroke="#000" points="305.905 -379.9 562.969 -379.9"/><text x="313.905" y="-363.3" fill="#000" font-family="Times,serif" font-size="14" text-anchor="start">Private:</text><text x="313.905" y="-346.5" fill="#000" font-family="Times,serif" font-size="14" text-anchor="start">_mintingFinished: bool</text><polyline fill="none" stroke="#000" points="305.905 -338.3 562.969 -338.3"/><text x="313.905" y="-321.7" fill="#000" font-family="Times,serif" font-size="14" text-anchor="start">Internal:</text><text x="313.905" y="-304.9" fill="#000" font-family="Times,serif" font-size="14" text-anchor="start">_finishMinting()</text><text x="313.905" y="-288.1" fill="#000" font-family="Times,serif" font-size="14" text-anchor="start">Public:</text><text x="313.905" y="-271.3" fill="#000" font-family="Times,serif" font-size="14" text-anchor="start">&lt;&lt;event&gt;&gt; MintFinished()</text><text x="313.905" y="-254.5" fill="#000" font-family="Times,serif" font-size="14" text-anchor="start">&lt;&lt;modifier&gt;&gt; canMint()</text><text x="313.905" y="-237.7" fill="#000" font-family="Times,serif" font-size="14" text-anchor="start">mintingFinished(): bool</text><text x="313.905" y="-220.9" fill="#000" font-family="Times,serif" font-size="14" text-anchor="start">mint(account: address, amount: uint256)</text><text x="313.905" y="-204.1" fill="#000" font-family="Times,serif" font-size="14" text-anchor="start">finishMinting()</text></g><g id="edge10" class="edge"><title>7-&gt;4</title><path fill="none" stroke="#000" d="M526.6322,-421.6676C530.1696,-426.002 533.762,-430.4037 537.4003,-434.8618"/><polygon fill="none" stroke="#000" points="529.473 -441.755 556.576 -458.358 545.742 -428.477 529.473 -441.755"/></g><g id="node9" class="node"><title>8</title><polygon fill="#f2f2f2" stroke="#000" points="1085.748 -25.7 1085.748 -133.7 1261.126 -133.7 1261.126 -25.7 1085.748 -25.7"/><text x="1173.437" y="-117.1" fill="#000" font-family="Times,serif" font-size="14" text-anchor="middle">&lt;&lt;Interface&gt;&gt;</text><text x="1173.437" y="-100.3" fill="#000" font-family="Times,serif" font-size="14" text-anchor="middle">IPayable</text><polyline fill="none" stroke="#000" points="1085.748 -92.1 1261.126 -92.1"/><polyline fill="none" stroke="#000" points="1085.748 -67.3 1261.126 -67.3"/><text x="1093.748" y="-50.7" fill="#000" font-family="Times,serif" font-size="14" text-anchor="start">External:</text><text x="1093.748" y="-33.9" fill="#000" font-family="Times,serif" font-size="14" text-anchor="start">pay(serviceName: string)</text></g><g id="node10" class="node"><title>9</title><polygon fill="#f2f2f2" stroke="#000" points="1312.397 -254.7 1312.397 -362.7 1628.477 -362.7 1628.477 -254.7 1312.397 -254.7"/><text x="1470.437" y="-346.1" fill="#000" font-family="Times,serif" font-size="14" text-anchor="middle">&lt;&lt;Abstract&gt;&gt;</text><text x="1470.437" y="-329.3" fill="#000" font-family="Times,serif" font-size="14" text-anchor="middle">ServicePayer</text><polyline fill="none" stroke="#000" points="1312.397 -321.1 1628.477 -321.1"/><polyline fill="none" stroke="#000" points="1312.397 -296.3 1628.477 -296.3"/><text x="1320.397" y="-279.7" fill="#000" font-family="Times,serif" font-size="14" text-anchor="start">Public:</text><text x="1320.397" y="-262.9" fill="#000" font-family="Times,serif" font-size="14" text-anchor="start">constructor(receiver: address, serviceName: string)</text></g><g id="node11" class="node"><title>10</title><polygon fill="#f2f2f2" stroke="#000" points="380.907 -.5 380.907 -158.9 1067.967 -158.9 1067.967 -.5 380.907 -.5"/><text x="724.437" y="-142.3" fill="#000" font-family="Times,serif" font-size="14" text-anchor="middle">CommonERC20</text><polyline fill="none" stroke="#000" points="380.907 -134.1 1067.967 -134.1"/><polyline fill="none" stroke="#000" points="380.907 -109.3 1067.967 -109.3"/><text x="388.907" y="-92.7" fill="#000" font-family="Times,serif" font-size="14" text-anchor="start">Internal:</text><text x="388.907" y="-75.9" fill="#000" font-family="Times,serif" font-size="14" text-anchor="start">_mint(account: address, amount: uint256)</text><text x="388.907" y="-59.1" fill="#000" font-family="Times,serif" font-size="14" text-anchor="start">_finishMinting()</text><text x="388.907" y="-42.3" fill="#000" font-family="Times,serif" font-size="14" text-anchor="start">_beforeTokenTransfer(from: address, to: address, amount: uint256)</text><text x="388.907" y="-25.5" fill="#000" font-family="Times,serif" font-size="14" text-anchor="start">Public:</text><text x="388.907" y="-8.7" fill="#000" font-family="Times,serif" font-size="14" text-anchor="start">constructor(name: string, symbol: string, decimals: uint8, cap: uint256, initialBalance: uint256, feeReceiver: address)</text></g><g id="edge14" class="edge"><title>10-&gt;1</title><path fill="none" stroke="#000" d="M380.824,-148.9296C342.1073,-162.5322 311.2334,-178.0492 296.437,-195.4 208.8672,-298.0879 206.0264,-457.9324 218.3024,-571.3325"/><polygon fill="none" stroke="#000" points="207.902 -572.789 222.006 -601.273 228.744 -570.21 207.902 -572.789"/></g><g id="edge11" class="edge"><title>10-&gt;5</title><path fill="none" stroke="#000" d="M851.1623,-158.9899C874.9229,-173.8565 900.0856,-189.6004 924.8209,-205.0768"/><polygon fill="none" stroke="#000" points="919.365 -214.049 950.366 -221.06 930.503 -196.246 919.365 -214.049"/></g><g id="edge13" class="edge"><title>10-&gt;6</title><path fill="none" stroke="#000" d="M724.437,-159.1504C724.437,-177.4679 724.437,-197.1098 724.437,-215.9376"/><polygon fill="none" stroke="#000" points="713.937 -215.988 724.437 -245.988 734.937 -215.988 713.937 -215.988"/></g><g id="edge12" class="edge"><title>10-&gt;7</title><path fill="none" stroke="#000" d="M618.2145,-159.084C608.3593,-166.6192 598.4172,-174.2809 586.6236,-183.5014"/><polygon fill="none" stroke="#000" points="580.089 -175.282 563.014 -202.091 593.081 -191.782 580.089 -175.282"/></g><g id="edge15" class="edge"><title>10-&gt;9</title><path fill="none" stroke="#000" d="M1068.0973,-157.7853C1070.8878,-158.3292 1073.6681,-158.8676 1076.437,-159.4 1176.749,-178.6892 1208.4495,-157.8242 1303.437,-195.4 1329.9942,-205.9057 1356.5711,-221.2086 1380.4625,-237.1885"/><polygon fill="none" stroke="#000" points="1374.628 -245.922 1405.205 -254.599 1386.713 -228.748 1374.628 -245.922"/></g></g></svg>