<svg xmlns="http://www.w3.org/2000/svg" xmlns:xlink="http://www.w3.org/1999/xlink" width="1764" height="1744" viewBox="0 0 1323.13 1308"><g id="graph0" class="graph" transform="scale(1 1) rotate(0) translate(4 1304)"><title>UmlClassDiagram</title><polygon fill="#fff" stroke="transparent" points="-4 4 -4 -1304 1319.133 -1304 1319.133 4 -4 4"/><g id="node1" class="node"><title>0</title><polygon fill="#f2f2f2" stroke="#000" points="199.365 -1082.3 199.365 -1207.1 417.509 -1207.1 417.509 -1082.3 199.365 -1082.3"/><text x="308.437" y="-1190.5" fill="#000" font-family="Times,serif" font-size="14" text-anchor="middle">&lt;&lt;Abstract&gt;&gt;</text><text x="308.437" y="-1173.7" fill="#000" font-family="Times,serif" font-size="14" text-anchor="middle">Context</text><polyline fill="none" stroke="#000" points="199.365 -1165.5 417.509 -1165.5"/><polyline fill="none" stroke="#000" points="199.365 -1140.7 417.509 -1140.7"/><text x="207.365" y="-1124.1" fill="#000" font-family="Times,serif" font-size="14" text-anchor="start">Internal:</text><text x="207.365" y="-1107.3" fill="#000" font-family="Times,serif" font-size="14" text-anchor="start">_msgSender(): (payable: address)</text><text x="207.365" y="-1090.5" fill="#000" font-family="Times,serif" font-size="14" text-anchor="start">_msgData(): bytes</text></g><g id="node2" class="node"><title>1</title><polygon fill="#f2f2f2" stroke="#000" points="0 -601.3 0 -810.1 484.874 -810.1 484.874 -601.3 0 -601.3"/><text x="242.437" y="-793.5" fill="#000" font-family="Times,serif" font-size="14" text-anchor="middle">&lt;&lt;Abstract&gt;&gt;</text><text x="242.437" y="-776.7" fill="#000" font-family="Times,serif" font-size="14" text-anchor="middle">Ownable</text><polyline fill="none" stroke="#000" points="0 -768.5 484.874 -768.5"/><text x="8" y="-751.9" fill="#000" font-family="Times,serif" font-size="14" text-anchor="start">Private:</text><text x="8" y="-735.1" fill="#000" font-family="Times,serif" font-size="14" text-anchor="start">_owner: address</text><polyline fill="none" stroke="#000" points="0 -726.9 484.874 -726.9"/><text x="8" y="-710.3" fill="#000" font-family="Times,serif" font-size="14" text-anchor="start">Public:</text><text x="8" y="-693.5" fill="#000" font-family="Times,serif" font-size="14" text-anchor="start">&lt;&lt;event&gt;&gt; OwnershipTransferred(previousOwner: address, newOwner: address)</text><text x="8" y="-676.7" fill="#000" font-family="Times,serif" font-size="14" text-anchor="start">&lt;&lt;modifier&gt;&gt; onlyOwner()</text><text x="8" y="-659.9" fill="#000" font-family="Times,serif" font-size="14" text-anchor="start">constructor()</text><text x="8" y="-643.1" fill="#000" font-family="Times,serif" font-size="14" text-anchor="start">owner(): address</text><text x="8" y="-626.3" fill="#000" font-family="Times,serif" font-size="14" text-anchor="start">renounceOwnership()</text><text x="8" y="-609.5" fill="#000" font-family="Times,serif" font-size="14" text-anchor="start">transferOwnership(newOwner: address)</text></g><g id="edge1" class="edge"><title>1-&gt;0</title><path fill="none" stroke="#000" d="M258.1618,-810.2937C269.23,-883.9142 283.9091,-981.552 294.5464,-1052.3062"/><polygon fill="none" stroke="#000" points="284.207 -1054.157 299.05 -1082.263 304.973 -1051.035 284.207 -1054.157"/></g><g id="node3" class="node"><title>2</title><polygon fill="#f2f2f2" stroke="#000" points="501.137 -1023.5 501.137 -1265.9 939.737 -1265.9 939.737 -1023.5 501.137 -1023.5"/><text x="720.437" y="-1249.3" fill="#000" font-family="Times,serif" font-size="14" text-anchor="middle">&lt;&lt;Interface&gt;&gt;</text><text x="720.437" y="-1232.5" fill="#000" font-family="Times,serif" font-size="14" text-anchor="middle">IERC20</text><polyline fill="none" stroke="#000" points="501.137 -1224.3 939.737 -1224.3"/><polyline fill="none" stroke="#000" points="501.137 -1199.5 939.737 -1199.5"/><text x="509.137" y="-1182.9" fill="#000" font-family="Times,serif" font-size="14" text-anchor="start">External:</text><text x="509.137" y="-1166.1" fill="#000" font-family="Times,serif" font-size="14" text-anchor="start">totalSupply(): uint256</text><text x="509.137" y="-1149.3" fill="#000" font-family="Times,serif" font-size="14" text-anchor="start">balanceOf(account: address): uint256</text><text x="509.137" y="-1132.5" fill="#000" font-family="Times,serif" font-size="14" text-anchor="start">transfer(recipient: address, amount: uint256): bool</text><text x="509.137" y="-1115.7" fill="#000" font-family="Times,serif" font-size="14" text-anchor="start">allowance(owner: address, spender: address): uint256</text><text x="509.137" y="-1098.9" fill="#000" font-family="Times,serif" font-size="14" text-anchor="start">approve(spender: address, amount: uint256): bool</text><text x="509.137" y="-1082.1" fill="#000" font-family="Times,serif" font-size="14" text-anchor="start">transferFrom(sender: address, recipient: address, amount: uint256): bool</text><text x="509.137" y="-1065.3" fill="#000" font-family="Times,serif" font-size="14" text-anchor="start">Public:</text><text x="509.137" y="-1048.5" fill="#000" font-family="Times,serif" font-size="14" text-anchor="start">&lt;&lt;event&gt;&gt; Transfer(from: address, to: address, value: uint256)</text><text x="509.137" y="-1031.7" fill="#000" font-family="Times,serif" font-size="14" text-anchor="start">&lt;&lt;event&gt;&gt; Approval(owner: address, spender: address, value: uint256)</text></g><g id="node4" class="node"><title>3</title><polygon fill="#f2f2f2" stroke="#000" points="957.741 -989.9 957.741 -1299.5 1315.133 -1299.5 1315.133 -989.9 957.741 -989.9"/><text x="1136.437" y="-1282.9" fill="#000" font-family="Times,serif" font-size="14" text-anchor="middle">&lt;&lt;Library&gt;&gt;</text><text x="1136.437" y="-1266.1" fill="#000" font-family="Times,serif" font-size="14" text-anchor="middle">SafeMath</text><polyline fill="none" stroke="#000" points="957.741 -1257.9 1315.133 -1257.9"/><polyline fill="none" stroke="#000" points="957.741 -1233.1 1315.133 -1233.1"/><text x="965.741" y="-1216.5" fill="#000" font-family="Times,serif" font-size="14" text-anchor="start">Internal:</text><text x="965.741" y="-1199.7" fill="#000" font-family="Times,serif" font-size="14" text-anchor="start">tryAdd(a: uint256, b: uint256): (bool, uint256)</text><text x="965.741" y="-1182.9" fill="#000" font-family="Times,serif" font-size="14" text-anchor="start">trySub(a: uint256, b: uint256): (bool, uint256)</text><text x="965.741" y="-1166.1" fill="#000" font-family="Times,serif" font-size="14" text-anchor="start">tryMul(a: uint256, b: uint256): (bool, uint256)</text><text x="965.741" y="-1149.3" fill="#000" font-family="Times,serif" font-size="14" text-anchor="start">tryDiv(a: uint256, b: uint256): (bool, uint256)</text><text x="965.741" y="-1132.5" fill="#000" font-family="Times,serif" font-size="14" text-anchor="start">tryMod(a: uint256, b: uint256): (bool, uint256)</text><text x="965.741" y="-1115.7" fill="#000" font-family="Times,serif" font-size="14" text-anchor="start">add(a: uint256, b: uint256): uint256</text><text x="965.741" y="-1098.9" fill="#000" font-family="Times,serif" font-size="14" text-anchor="start">sub(a: uint256, b: uint256): uint256</text><text x="965.741" y="-1082.1" fill="#000" font-family="Times,serif" font-size="14" text-anchor="start">mul(a: uint256, b: uint256): uint256</text><text x="965.741" y="-1065.3" fill="#000" font-family="Times,serif" font-size="14" text-anchor="start">div(a: uint256, b: uint256): uint256</text><text x="965.741" y="-1048.5" fill="#000" font-family="Times,serif" font-size="14" text-anchor="start">mod(a: uint256, b: uint256): uint256</text><text x="965.741" y="-1031.7" fill="#000" font-family="Times,serif" font-size="14" text-anchor="start">sub(a: uint256, b: uint256, errorMessage: string): uint256</text><text x="965.741" y="-1014.9" fill="#000" font-family="Times,serif" font-size="14" text-anchor="start">div(a: uint256, b: uint256, errorMessage: string): uint256</text><text x="965.741" y="-998.1" fill="#000" font-family="Times,serif" font-size="14" text-anchor="start">mod(a: uint256, b: uint256, errorMessage: string): uint256</text></g><g id="node5" class="node"><title>4</title><polygon fill="#f2f2f2" stroke="#000" points="502.887 -458.5 502.887 -952.9 937.987 -952.9 937.987 -458.5 502.887 -458.5"/><text x="720.437" y="-936.3" fill="#000" font-family="Times,serif" font-size="14" text-anchor="middle">ERC20</text><polyline fill="none" stroke="#000" points="502.887 -928.1 937.987 -928.1"/><text x="510.887" y="-911.5" fill="#000" font-family="Times,serif" font-size="14" text-anchor="start">Private:</text><text x="510.887" y="-894.7" fill="#000" font-family="Times,serif" font-size="14" text-anchor="start">_balances: mapping(address=&gt;uint256)</text><text x="510.887" y="-877.9" fill="#000" font-family="Times,serif" font-size="14" text-anchor="start">_allowances: mapping(address=&gt;mapping(address=&gt;uint256))</text><text x="510.887" y="-861.1" fill="#000" font-family="Times,serif" font-size="14" text-anchor="start">_totalSupply: uint256</text><text x="510.887" y="-844.3" fill="#000" font-family="Times,serif" font-size="14" text-anchor="start">_name: string</text><text x="510.887" y="-827.5" fill="#000" font-family="Times,serif" font-size="14" text-anchor="start">_symbol: string</text><text x="510.887" y="-810.7" fill="#000" font-family="Times,serif" font-size="14" text-anchor="start">_decimals: uint8</text><polyline fill="none" stroke="#000" points="502.887 -802.5 937.987 -802.5"/><text x="510.887" y="-785.9" fill="#000" font-family="Times,serif" font-size="14" text-anchor="start">Internal:</text><text x="510.887" y="-769.1" fill="#000" font-family="Times,serif" font-size="14" text-anchor="start">_transfer(sender: address, recipient: address, amount: uint256)</text><text x="510.887" y="-752.3" fill="#000" font-family="Times,serif" font-size="14" text-anchor="start">_mint(account: address, amount: uint256)</text><text x="510.887" y="-735.5" fill="#000" font-family="Times,serif" font-size="14" text-anchor="start">_burn(account: address, amount: uint256)</text><text x="510.887" y="-718.7" fill="#000" font-family="Times,serif" font-size="14" text-anchor="start">_approve(owner: address, spender: address, amount: uint256)</text><text x="510.887" y="-701.9" fill="#000" font-family="Times,serif" font-size="14" text-anchor="start">_setupDecimals(decimals_: uint8)</text><text x="510.887" y="-685.1" fill="#000" font-family="Times,serif" font-size="14" text-anchor="start">_beforeTokenTransfer(from: address, to: address, amount: uint256)</text><text x="510.887" y="-668.3" fill="#000" font-family="Times,serif" font-size="14" text-anchor="start">Public:</text><text x="510.887" y="-651.5" fill="#000" font-family="Times,serif" font-size="14" text-anchor="start">constructor(name_: string, symbol_: string)</text><text x="510.887" y="-634.7" fill="#000" font-family="Times,serif" font-size="14" text-anchor="start">name(): string</text><text x="510.887" y="-617.9" fill="#000" font-family="Times,serif" font-size="14" text-anchor="start">symbol(): string</text><text x="510.887" y="-601.1" fill="#000" font-family="Times,serif" font-size="14" text-anchor="start">decimals(): uint8</text><text x="510.887" y="-584.3" fill="#000" font-family="Times,serif" font-size="14" text-anchor="start">totalSupply(): uint256</text><text x="510.887" y="-567.5" fill="#000" font-family="Times,serif" font-size="14" text-anchor="start">balanceOf(account: address): uint256</text><text x="510.887" y="-550.7" fill="#000" font-family="Times,serif" font-size="14" text-anchor="start">transfer(recipient: address, amount: uint256): bool</text><text x="510.887" y="-533.9" fill="#000" font-family="Times,serif" font-size="14" text-anchor="start">allowance(owner: address, spender: address): uint256</text><text x="510.887" y="-517.1" fill="#000" font-family="Times,serif" font-size="14" text-anchor="start">approve(spender: address, amount: uint256): bool</text><text x="510.887" y="-500.3" fill="#000" font-family="Times,serif" font-size="14" text-anchor="start">transferFrom(sender: address, recipient: address, amount: uint256): bool</text><text x="510.887" y="-483.5" fill="#000" font-family="Times,serif" font-size="14" text-anchor="start">increaseAllowance(spender: address, addedValue: uint256): bool</text><text x="510.887" y="-466.7" fill="#000" font-family="Times,serif" font-size="14" text-anchor="start">decreaseAllowance(spender: address, subtractedValue: uint256): bool</text></g><g id="edge2" class="edge"><title>4-&gt;0</title><path fill="none" stroke="#000" d="M502.7903,-943.4471C499.6548,-946.7893 496.5357,-950.1085 493.437,-953.4 460.2434,-988.6587 423.2192,-1027.1131 391.0651,-1060.2361"/><polygon fill="none" stroke="#000" points="383.081 -1053.385 369.69 -1082.211 398.134 -1068.028 383.081 -1053.385"/></g><g id="edge3" class="edge"><title>4-&gt;2</title><path fill="none" stroke="#000" stroke-dasharray="5 2" d="M720.437,-953.1061C720.437,-966.6484 720.437,-980.0467 720.437,-993.0902"/><polygon fill="none" stroke="#000" points="709.937 -993.243 720.437 -1023.243 730.937 -993.243 709.937 -993.243"/></g><g id="edge4" class="edge"><title>4-&gt;3</title><path fill="none" stroke="#000" stroke-dasharray="5 2" d="M938.1838,-935.4857C953.1351,-951.2636 968.019,-966.9704 982.5257,-982.2792"/><polygon fill="#000" stroke="#000" points="980.197 -984.91 989.615 -989.761 985.278 -980.095 980.197 -984.91"/></g><g id="node6" class="node"><title>5</title><polygon fill="#f2f2f2" stroke="#000" points="546.309 -221.1 546.309 -396.3 954.565 -396.3 954.565 -221.1 546.309 -221.1"/><text x="750.437" y="-379.7" fill="#000" font-family="Times,serif" font-size="14" text-anchor="middle">&lt;&lt;Abstract&gt;&gt;</text><text x="750.437" y="-362.9" fill="#000" font-family="Times,serif" font-size="14" text-anchor="middle">ERC20Capped</text><polyline fill="none" stroke="#000" points="546.309 -354.7 954.565 -354.7"/><text x="554.309" y="-338.1" fill="#000" font-family="Times,serif" font-size="14" text-anchor="start">Private:</text><text x="554.309" y="-321.3" fill="#000" font-family="Times,serif" font-size="14" text-anchor="start">_cap: uint256</text><polyline fill="none" stroke="#000" points="546.309 -313.1 954.565 -313.1"/><text x="554.309" y="-296.5" fill="#000" font-family="Times,serif" font-size="14" text-anchor="start">Internal:</text><text x="554.309" y="-279.7" fill="#000" font-family="Times,serif" font-size="14" text-anchor="start">_beforeTokenTransfer(from: address, to: address, amount: uint256)</text><text x="554.309" y="-262.9" fill="#000" font-family="Times,serif" font-size="14" text-anchor="start">Public:</text><text x="554.309" y="-246.1" fill="#000" font-family="Times,serif" font-size="14" text-anchor="start">constructor(cap_: uint256)</text><text x="554.309" y="-229.3" fill="#000" font-family="Times,serif" font-size="14" text-anchor="start">cap(): uint256</text></g><g id="edge6" class="edge"><title>5-&gt;3</title><path fill="none" stroke="#000" stroke-dasharray="5 2" d="M890.6615,-396.301C912.0185,-414.5613 932.033,-435.2617 947.437,-458 1054.2128,-615.6149 1100.9168,-832.0256 1121.1843,-979.5012"/><polygon fill="#000" stroke="#000" points="1117.735 -980.114 1122.54 -989.556 1124.672 -979.178 1117.735 -980.114"/></g><g id="edge5" class="edge"><title>5-&gt;4</title><path fill="none" stroke="#000" d="M743.8162,-396.3148C743.0508,-406.444 742.2425,-417.1404 741.4045,-428.2297"/><polygon fill="none" stroke="#000" points="730.917 -427.676 739.126 -458.382 751.857 -429.258 730.917 -427.676"/></g><g id="node7" class="node"><title>6</title><polygon fill="#f2f2f2" stroke="#000" points="270.905 -195.9 270.905 -421.5 527.969 -421.5 527.969 -195.9 270.905 -195.9"/><text x="399.437" y="-404.9" fill="#000" font-family="Times,serif" font-size="14" text-anchor="middle">&lt;&lt;Abstract&gt;&gt;</text><text x="399.437" y="-388.1" fill="#000" font-family="Times,serif" font-size="14" text-anchor="middle">ERC20Mintable</text><polyline fill="none" stroke="#000" points="270.905 -379.9 527.969 -379.9"/><text x="278.905" y="-363.3" fill="#000" font-family="Times,serif" font-size="14" text-anchor="start">Private:</text><text x="278.905" y="-346.5" fill="#000" font-family="Times,serif" font-size="14" text-anchor="start">_mintingFinished: bool</text><polyline fill="none" stroke="#000" points="270.905 -338.3 527.969 -338.3"/><text x="278.905" y="-321.7" fill="#000" font-family="Times,serif" font-size="14" text-anchor="start">Internal:</text><text x="278.905" y="-304.9" fill="#000" font-family="Times,serif" font-size="14" text-anchor="start">_finishMinting()</text><text x="278.905" y="-288.1" fill="#000" font-family="Times,serif" font-size="14" text-anchor="start">Public:</text><text x="278.905" y="-271.3" fill="#000" font-family="Times,serif" font-size="14" text-anchor="start">&lt;&lt;event&gt;&gt; MintFinished()</text><text x="278.905" y="-254.5" fill="#000" font-family="Times,serif" font-size="14" text-anchor="start">&lt;&lt;modifier&gt;&gt; canMint()</text><text x="278.905" y="-237.7" fill="#000" font-family="Times,serif" font-size="14" text-anchor="start">mintingFinished(): bool</text><text x="278.905" y="-220.9" fill="#000" font-family="Times,serif" font-size="14" text-anchor="start">mint(account: address, amount: uint256)</text><text x="278.905" y="-204.1" fill="#000" font-family="Times,serif" font-size="14" text-anchor="start">finishMinting()</text></g><g id="edge7" class="edge"><title>6-&gt;4</title><path fill="none" stroke="#000" d="M490.7785,-421.6676C494.2832,-426.002 497.8423,-430.4037 501.447,-434.8618"/><polygon fill="none" stroke="#000" points="493.418 -441.632 520.445 -458.358 509.748 -428.428 493.418 -441.632"/></g><g id="node8" class="node"><title>7</title><polygon fill="#f2f2f2" stroke="#000" points="935.748 -25.7 935.748 -133.7 1111.126 -133.7 1111.126 -25.7 935.748 -25.7"/><text x="1023.437" y="-117.1" fill="#000" font-family="Times,serif" font-size="14" text-anchor="middle">&lt;&lt;Interface&gt;&gt;</text><text x="1023.437" y="-100.3" fill="#000" font-family="Times,serif" font-size="14" text-anchor="middle">IPayable</text><polyline fill="none" stroke="#000" points="935.748 -92.1 1111.126 -92.1"/><polyline fill="none" stroke="#000" points="935.748 -67.3 1111.126 -67.3"/><text x="943.748" y="-50.7" fill="#000" font-family="Times,serif" font-size="14" text-anchor="start">External:</text><text x="943.748" y="-33.9" fill="#000" font-family="Times,serif" font-size="14" text-anchor="start">pay(serviceName: string)</text></g><g id="node9" class="node"><title>8</title><polygon fill="#f2f2f2" stroke="#000" points="972.397 -254.7 972.397 -362.7 1288.477 -362.7 1288.477 -254.7 972.397 -254.7"/><text x="1130.437" y="-346.1" fill="#000" font-family="Times,serif" font-size="14" text-anchor="middle">&lt;&lt;Abstract&gt;&gt;</text><text x="1130.437" y="-329.3" fill="#000" font-family="Times,serif" font-size="14" text-anchor="middle">ServicePayer</text><polyline fill="none" stroke="#000" points="972.397 -321.1 1288.477 -321.1"/><polyline fill="none" stroke="#000" points="972.397 -296.3 1288.477 -296.3"/><text x="980.397" y="-279.7" fill="#000" font-family="Times,serif" font-size="14" text-anchor="start">Public:</text><text x="980.397" y="-262.9" fill="#000" font-family="Times,serif" font-size="14" text-anchor="start">constructor(receiver: address, serviceName: string)</text></g><g id="node10" class="node"><title>9</title><polygon fill="#f2f2f2" stroke="#000" points="230.907 -.5 230.907 -158.9 917.967 -158.9 917.967 -.5 230.907 -.5"/><text x="574.437" y="-142.3" fill="#000" font-family="Times,serif" font-size="14" text-anchor="middle">MintableERC20</text><polyline fill="none" stroke="#000" points="230.907 -134.1 917.967 -134.1"/><polyline fill="none" stroke="#000" points="230.907 -109.3 917.967 -109.3"/><text x="238.907" y="-92.7" fill="#000" font-family="Times,serif" font-size="14" text-anchor="start">Internal:</text><text x="238.907" y="-75.9" fill="#000" font-family="Times,serif" font-size="14" text-anchor="start">_mint(account: address, amount: uint256)</text><text x="238.907" y="-59.1" fill="#000" font-family="Times,serif" font-size="14" text-anchor="start">_finishMinting()</text><text x="238.907" y="-42.3" fill="#000" font-family="Times,serif" font-size="14" text-anchor="start">_beforeTokenTransfer(from: address, to: address, amount: uint256)</text><text x="238.907" y="-25.5" fill="#000" font-family="Times,serif" font-size="14" text-anchor="start">Public:</text><text x="238.907" y="-8.7" fill="#000" font-family="Times,serif" font-size="14" text-anchor="start">constructor(name: string, symbol: string, decimals: uint8, cap: uint256, initialBalance: uint256, feeReceiver: address)</text></g><g id="edge10" class="edge"><title>9-&gt;1</title><path fill="none" stroke="#000" d="M313.4603,-158.9591C289.3143,-170.6081 270.4867,-182.9088 261.437,-195.4 183.3228,-303.2203 190.3201,-460.1566 209.4518,-571.4752"/><polygon fill="none" stroke="#000" points="199.182 -573.679 215.036 -601.227 219.822 -569.805 199.182 -573.679"/></g><g id="edge8" class="edge"><title>9-&gt;5</title><path fill="none" stroke="#000" d="M635.4993,-159.1504C644.8164,-171.2732 654.5794,-183.9762 664.3118,-196.6393"/><polygon fill="none" stroke="#000" points="656.258 -203.391 682.865 -220.779 672.909 -190.594 656.258 -203.391"/></g><g id="edge9" class="edge"><title>9-&gt;6</title><path fill="none" stroke="#000" d="M513.7216,-159.1504C510.5287,-163.3286 507.2831,-167.5757 504.0042,-171.8664"/><polygon fill="none" stroke="#000" points="495.516 -165.681 485.643 -195.893 512.202 -178.432 495.516 -165.681"/></g><g id="edge11" class="edge"><title>9-&gt;8</title><path fill="none" stroke="#000" d="M875.0187,-158.91C905.3769,-169.9217 935.343,-182.0844 963.437,-195.4 988.05,-207.0657 1013.1151,-222.0949 1036.0878,-237.3688"/><polygon fill="none" stroke="#000" points="1030.343 -246.162 1061 -254.551 1042.266 -228.875 1030.343 -246.162"/></g></g></svg>