<svg xmlns="http://www.w3.org/2000/svg" xmlns:xlink="http://www.w3.org/1999/xlink" width="1594pt" height="1174pt" viewBox="0 0 1594.13 1173.6"><g id="graph0" class="graph" transform="scale(1 1) rotate(0) translate(4 1169.6)"><title>UmlClassDiagram</title><polygon fill="#fff" stroke="transparent" points="-4 4 -4 -1169.6 1590.133 -1169.6 1590.133 4 -4 4"/><g id="node1" class="node"><title>0</title><polygon fill="#f2f2f2" stroke="#000" points="520.365 -947.9 520.365 -1072.7 738.509 -1072.7 738.509 -947.9 520.365 -947.9"/><text x="629.437" y="-1056.1" fill="#000" font-family="Times,serif" font-size="14" text-anchor="middle">&lt;&lt;Abstract&gt;&gt;</text><text x="629.437" y="-1039.3" fill="#000" font-family="Times,serif" font-size="14" text-anchor="middle">Context</text><polyline fill="none" stroke="#000" points="520.365 -1031.1 738.509 -1031.1"/><polyline fill="none" stroke="#000" points="520.365 -1006.3 738.509 -1006.3"/><text x="528.365" y="-989.7" fill="#000" font-family="Times,serif" font-size="14" text-anchor="start">Internal:</text><text x="528.365" y="-972.9" fill="#000" font-family="Times,serif" font-size="14" text-anchor="start">_msgSender(): (payable: address)</text><text x="528.365" y="-956.1" fill="#000" font-family="Times,serif" font-size="14" text-anchor="start">_msgData(): bytes</text></g><g id="node2" class="node"><title>1</title><polygon fill="#f2f2f2" stroke="#000" points="0 -466.9 0 -675.7 484.874 -675.7 484.874 -466.9 0 -466.9"/><text x="242.437" y="-659.1" fill="#000" font-family="Times,serif" font-size="14" text-anchor="middle">&lt;&lt;Abstract&gt;&gt;</text><text x="242.437" y="-642.3" fill="#000" font-family="Times,serif" font-size="14" text-anchor="middle">Ownable</text><polyline fill="none" stroke="#000" points="0 -634.1 484.874 -634.1"/><text x="8" y="-617.5" fill="#000" font-family="Times,serif" font-size="14" text-anchor="start">Private:</text><text x="8" y="-600.7" fill="#000" font-family="Times,serif" font-size="14" text-anchor="start">_owner: address</text><polyline fill="none" stroke="#000" points="0 -592.5 484.874 -592.5"/><text x="8" y="-575.9" fill="#000" font-family="Times,serif" font-size="14" text-anchor="start">Public:</text><text x="8" y="-559.1" fill="#000" font-family="Times,serif" font-size="14" text-anchor="start">&lt;&lt;event&gt;&gt; OwnershipTransferred(previousOwner: address, newOwner: address)</text><text x="8" y="-542.3" fill="#000" font-family="Times,serif" font-size="14" text-anchor="start">&lt;&lt;modifier&gt;&gt; onlyOwner()</text><text x="8" y="-525.5" fill="#000" font-family="Times,serif" font-size="14" text-anchor="start">constructor()</text><text x="8" y="-508.7" fill="#000" font-family="Times,serif" font-size="14" text-anchor="start">owner(): address</text><text x="8" y="-491.9" fill="#000" font-family="Times,serif" font-size="14" text-anchor="start">renounceOwnership()</text><text x="8" y="-475.1" fill="#000" font-family="Times,serif" font-size="14" text-anchor="start">transferOwnership(newOwner: address)</text></g><g id="edge1" class="edge"><title>1-&gt;0</title><path fill="none" stroke="#000" d="M334.6415,-675.8937C401.7292,-751.9958 491.4408,-853.7616 554.2122,-924.9675"/><polygon fill="none" stroke="#000" points="546.681 -932.302 574.395 -947.863 562.433 -918.415 546.681 -932.302"/></g><g id="node3" class="node"><title>2</title><polygon fill="#f2f2f2" stroke="#000" points="772.137 -889.1 772.137 -1131.5 1210.737 -1131.5 1210.737 -889.1 772.137 -889.1"/><text x="991.437" y="-1114.9" fill="#000" font-family="Times,serif" font-size="14" text-anchor="middle">&lt;&lt;Interface&gt;&gt;</text><text x="991.437" y="-1098.1" fill="#000" font-family="Times,serif" font-size="14" text-anchor="middle">IERC20</text><polyline fill="none" stroke="#000" points="772.137 -1089.9 1210.737 -1089.9"/><polyline fill="none" stroke="#000" points="772.137 -1065.1 1210.737 -1065.1"/><text x="780.137" y="-1048.5" fill="#000" font-family="Times,serif" font-size="14" text-anchor="start">External:</text><text x="780.137" y="-1031.7" fill="#000" font-family="Times,serif" font-size="14" text-anchor="start">totalSupply(): uint256</text><text x="780.137" y="-1014.9" fill="#000" font-family="Times,serif" font-size="14" text-anchor="start">balanceOf(account: address): uint256</text><text x="780.137" y="-998.1" fill="#000" font-family="Times,serif" font-size="14" text-anchor="start">transfer(recipient: address, amount: uint256): bool</text><text x="780.137" y="-981.3" fill="#000" font-family="Times,serif" font-size="14" text-anchor="start">allowance(owner: address, spender: address): uint256</text><text x="780.137" y="-964.5" fill="#000" font-family="Times,serif" font-size="14" text-anchor="start">approve(spender: address, amount: uint256): bool</text><text x="780.137" y="-947.7" fill="#000" font-family="Times,serif" font-size="14" text-anchor="start">transferFrom(sender: address, recipient: address, amount: uint256): bool</text><text x="780.137" y="-930.9" fill="#000" font-family="Times,serif" font-size="14" text-anchor="start">Public:</text><text x="780.137" y="-914.1" fill="#000" font-family="Times,serif" font-size="14" text-anchor="start">&lt;&lt;event&gt;&gt; Transfer(from: address, to: address, value: uint256)</text><text x="780.137" y="-897.3" fill="#000" font-family="Times,serif" font-size="14" text-anchor="start">&lt;&lt;event&gt;&gt; Approval(owner: address, spender: address, value: uint256)</text></g><g id="node4" class="node"><title>3</title><polygon fill="#f2f2f2" stroke="#000" points="1228.741 -855.5 1228.741 -1165.1 1586.133 -1165.1 1586.133 -855.5 1228.741 -855.5"/><text x="1407.437" y="-1148.5" fill="#000" font-family="Times,serif" font-size="14" text-anchor="middle">&lt;&lt;Library&gt;&gt;</text><text x="1407.437" y="-1131.7" fill="#000" font-family="Times,serif" font-size="14" text-anchor="middle">SafeMath</text><polyline fill="none" stroke="#000" points="1228.741 -1123.5 1586.133 -1123.5"/><polyline fill="none" stroke="#000" points="1228.741 -1098.7 1586.133 -1098.7"/><text x="1236.741" y="-1082.1" fill="#000" font-family="Times,serif" font-size="14" text-anchor="start">Internal:</text><text x="1236.741" y="-1065.3" fill="#000" font-family="Times,serif" font-size="14" text-anchor="start">tryAdd(a: uint256, b: uint256): (bool, uint256)</text><text x="1236.741" y="-1048.5" fill="#000" font-family="Times,serif" font-size="14" text-anchor="start">trySub(a: uint256, b: uint256): (bool, uint256)</text><text x="1236.741" y="-1031.7" fill="#000" font-family="Times,serif" font-size="14" text-anchor="start">tryMul(a: uint256, b: uint256): (bool, uint256)</text><text x="1236.741" y="-1014.9" fill="#000" font-family="Times,serif" font-size="14" text-anchor="start">tryDiv(a: uint256, b: uint256): (bool, uint256)</text><text x="1236.741" y="-998.1" fill="#000" font-family="Times,serif" font-size="14" text-anchor="start">tryMod(a: uint256, b: uint256): (bool, uint256)</text><text x="1236.741" y="-981.3" fill="#000" font-family="Times,serif" font-size="14" text-anchor="start">add(a: uint256, b: uint256): uint256</text><text x="1236.741" y="-964.5" fill="#000" font-family="Times,serif" font-size="14" text-anchor="start">sub(a: uint256, b: uint256): uint256</text><text x="1236.741" y="-947.7" fill="#000" font-family="Times,serif" font-size="14" text-anchor="start">mul(a: uint256, b: uint256): uint256</text><text x="1236.741" y="-930.9" fill="#000" font-family="Times,serif" font-size="14" text-anchor="start">div(a: uint256, b: uint256): uint256</text><text x="1236.741" y="-914.1" fill="#000" font-family="Times,serif" font-size="14" text-anchor="start">mod(a: uint256, b: uint256): uint256</text><text x="1236.741" y="-897.3" fill="#000" font-family="Times,serif" font-size="14" text-anchor="start">sub(a: uint256, b: uint256, errorMessage: string): uint256</text><text x="1236.741" y="-880.5" fill="#000" font-family="Times,serif" font-size="14" text-anchor="start">div(a: uint256, b: uint256, errorMessage: string): uint256</text><text x="1236.741" y="-863.7" fill="#000" font-family="Times,serif" font-size="14" text-anchor="start">mod(a: uint256, b: uint256, errorMessage: string): uint256</text></g><g id="node5" class="node"><title>4</title><polygon fill="#f2f2f2" stroke="#000" points="773.887 -324.1 773.887 -818.5 1208.987 -818.5 1208.987 -324.1 773.887 -324.1"/><text x="991.437" y="-801.9" fill="#000" font-family="Times,serif" font-size="14" text-anchor="middle">ERC20</text><polyline fill="none" stroke="#000" points="773.887 -793.7 1208.987 -793.7"/><text x="781.887" y="-777.1" fill="#000" font-family="Times,serif" font-size="14" text-anchor="start">Private:</text><text x="781.887" y="-760.3" fill="#000" font-family="Times,serif" font-size="14" text-anchor="start">_balances: mapping(address=&gt;uint256)</text><text x="781.887" y="-743.5" fill="#000" font-family="Times,serif" font-size="14" text-anchor="start">_allowances: mapping(address=&gt;mapping(address=&gt;uint256))</text><text x="781.887" y="-726.7" fill="#000" font-family="Times,serif" font-size="14" text-anchor="start">_totalSupply: uint256</text><text x="781.887" y="-709.9" fill="#000" font-family="Times,serif" font-size="14" text-anchor="start">_name: string</text><text x="781.887" y="-693.1" fill="#000" font-family="Times,serif" font-size="14" text-anchor="start">_symbol: string</text><text x="781.887" y="-676.3" fill="#000" font-family="Times,serif" font-size="14" text-anchor="start">_decimals: uint8</text><polyline fill="none" stroke="#000" points="773.887 -668.1 1208.987 -668.1"/><text x="781.887" y="-651.5" fill="#000" font-family="Times,serif" font-size="14" text-anchor="start">Internal:</text><text x="781.887" y="-634.7" fill="#000" font-family="Times,serif" font-size="14" text-anchor="start">_transfer(sender: address, recipient: address, amount: uint256)</text><text x="781.887" y="-617.9" fill="#000" font-family="Times,serif" font-size="14" text-anchor="start">_mint(account: address, amount: uint256)</text><text x="781.887" y="-601.1" fill="#000" font-family="Times,serif" font-size="14" text-anchor="start">_burn(account: address, amount: uint256)</text><text x="781.887" y="-584.3" fill="#000" font-family="Times,serif" font-size="14" text-anchor="start">_approve(owner: address, spender: address, amount: uint256)</text><text x="781.887" y="-567.5" fill="#000" font-family="Times,serif" font-size="14" text-anchor="start">_setupDecimals(decimals_: uint8)</text><text x="781.887" y="-550.7" fill="#000" font-family="Times,serif" font-size="14" text-anchor="start">_beforeTokenTransfer(from: address, to: address, amount: uint256)</text><text x="781.887" y="-533.9" fill="#000" font-family="Times,serif" font-size="14" text-anchor="start">Public:</text><text x="781.887" y="-517.1" fill="#000" font-family="Times,serif" font-size="14" text-anchor="start">constructor(name_: string, symbol_: string)</text><text x="781.887" y="-500.3" fill="#000" font-family="Times,serif" font-size="14" text-anchor="start">name(): string</text><text x="781.887" y="-483.5" fill="#000" font-family="Times,serif" font-size="14" text-anchor="start">symbol(): string</text><text x="781.887" y="-466.7" fill="#000" font-family="Times,serif" font-size="14" text-anchor="start">decimals(): uint8</text><text x="781.887" y="-449.9" fill="#000" font-family="Times,serif" font-size="14" text-anchor="start">totalSupply(): uint256</text><text x="781.887" y="-433.1" fill="#000" font-family="Times,serif" font-size="14" text-anchor="start">balanceOf(account: address): uint256</text><text x="781.887" y="-416.3" fill="#000" font-family="Times,serif" font-size="14" text-anchor="start">transfer(recipient: address, amount: uint256): bool</text><text x="781.887" y="-399.5" fill="#000" font-family="Times,serif" font-size="14" text-anchor="start">allowance(owner: address, spender: address): uint256</text><text x="781.887" y="-382.7" fill="#000" font-family="Times,serif" font-size="14" text-anchor="start">approve(spender: address, amount: uint256): bool</text><text x="781.887" y="-365.9" fill="#000" font-family="Times,serif" font-size="14" text-anchor="start">transferFrom(sender: address, recipient: address, amount: uint256): bool</text><text x="781.887" y="-349.1" fill="#000" font-family="Times,serif" font-size="14" text-anchor="start">increaseAllowance(spender: address, addedValue: uint256): bool</text><text x="781.887" y="-332.3" fill="#000" font-family="Times,serif" font-size="14" text-anchor="start">decreaseAllowance(spender: address, subtractedValue: uint256): bool</text></g><g id="edge2" class="edge"><title>4-&gt;0</title><path fill="none" stroke="#000" d="M787.4256,-818.7061C756.2569,-856.5046 726.0136,-893.1809 700.4739,-924.1531"/><polygon fill="none" stroke="#000" points="692.057 -917.856 681.072 -947.682 708.259 -931.216 692.057 -917.856"/></g><g id="edge3" class="edge"><title>4-&gt;2</title><path fill="none" stroke="#000" stroke-dasharray="5 2" d="M991.437,-818.7061C991.437,-832.2484 991.437,-845.6467 991.437,-858.6902"/><polygon fill="none" stroke="#000" points="980.937 -858.843 991.437 -888.843 1001.937 -858.843 980.937 -858.843"/></g><g id="edge4" class="edge"><title>4-&gt;3</title><path fill="none" stroke="#000" stroke-dasharray="5 2" d="M1209.1838,-801.0857C1224.1351,-816.8636 1239.019,-832.5704 1253.5257,-847.8792"/><polygon fill="#000" stroke="#000" points="1251.197 -850.51 1260.616 -855.361 1256.278 -845.695 1251.197 -850.51"/></g><g id="node6" class="node"><title>5</title><polygon fill="#f2f2f2" stroke="#000" points="502.635 -441.7 502.635 -700.9 756.239 -700.9 756.239 -441.7 502.635 -441.7"/><text x="629.437" y="-684.3" fill="#000" font-family="Times,serif" font-size="14" text-anchor="middle">&lt;&lt;Abstract&gt;&gt;</text><text x="629.437" y="-667.5" fill="#000" font-family="Times,serif" font-size="14" text-anchor="middle">Pausable</text><polyline fill="none" stroke="#000" points="502.635 -659.3 756.239 -659.3"/><text x="510.635" y="-642.7" fill="#000" font-family="Times,serif" font-size="14" text-anchor="start">Private:</text><text x="510.635" y="-625.9" fill="#000" font-family="Times,serif" font-size="14" text-anchor="start">_paused: bool</text><polyline fill="none" stroke="#000" points="502.635 -617.7 756.239 -617.7"/><text x="510.635" y="-601.1" fill="#000" font-family="Times,serif" font-size="14" text-anchor="start">Internal:</text><text x="510.635" y="-584.3" fill="#000" font-family="Times,serif" font-size="14" text-anchor="start">_pause()</text><text x="510.635" y="-567.5" fill="#000" font-family="Times,serif" font-size="14" text-anchor="start">_unpause()</text><text x="510.635" y="-550.7" fill="#000" font-family="Times,serif" font-size="14" text-anchor="start">Public:</text><text x="510.635" y="-533.9" fill="#000" font-family="Times,serif" font-size="14" text-anchor="start">&lt;&lt;event&gt;&gt; Paused(account: address)</text><text x="510.635" y="-517.1" fill="#000" font-family="Times,serif" font-size="14" text-anchor="start">&lt;&lt;event&gt;&gt; Unpaused(account: address)</text><text x="510.635" y="-500.3" fill="#000" font-family="Times,serif" font-size="14" text-anchor="start">&lt;&lt;modifier&gt;&gt; whenNotPaused()</text><text x="510.635" y="-483.5" fill="#000" font-family="Times,serif" font-size="14" text-anchor="start">&lt;&lt;modifier&gt;&gt; whenPaused()</text><text x="510.635" y="-466.7" fill="#000" font-family="Times,serif" font-size="14" text-anchor="start">constructor()</text><text x="510.635" y="-449.9" fill="#000" font-family="Times,serif" font-size="14" text-anchor="start">paused(): bool</text></g><g id="edge5" class="edge"><title>5-&gt;0</title><path fill="none" stroke="#000" d="M629.437,-700.9363C629.437,-770.4347 629.437,-854.4605 629.437,-917.3927"/><polygon fill="none" stroke="#000" points="618.937 -917.751 629.437 -947.751 639.937 -917.751 618.937 -917.751"/></g><g id="node7" class="node"><title>6</title><polygon fill="#f2f2f2" stroke="#000" points="425.309 -179.1 425.309 -287.1 833.565 -287.1 833.565 -179.1 425.309 -179.1"/><text x="629.437" y="-270.5" fill="#000" font-family="Times,serif" font-size="14" text-anchor="middle">&lt;&lt;Abstract&gt;&gt;</text><text x="629.437" y="-253.7" fill="#000" font-family="Times,serif" font-size="14" text-anchor="middle">ERC20Pausable</text><polyline fill="none" stroke="#000" points="425.309 -245.5 833.565 -245.5"/><polyline fill="none" stroke="#000" points="425.309 -220.7 833.565 -220.7"/><text x="433.309" y="-204.1" fill="#000" font-family="Times,serif" font-size="14" text-anchor="start">Internal:</text><text x="433.309" y="-187.3" fill="#000" font-family="Times,serif" font-size="14" text-anchor="start">_beforeTokenTransfer(from: address, to: address, amount: uint256)</text></g><g id="edge6" class="edge"><title>6-&gt;4</title><path fill="none" stroke="#000" d="M717.7089,-287.2691C727.9551,-294.3438 738.2782,-301.825 750.2009,-311.2877"/><polygon fill="none" stroke="#000" points="743.926 -319.725 773.718 -330.801 757.336 -303.564 743.926 -319.725"/></g><g id="edge7" class="edge"><title>6-&gt;5</title><path fill="none" stroke="#000" d="M629.437,-287.4377C629.437,-321.2745 629.437,-366.719 629.437,-411.3156"/><polygon fill="none" stroke="#000" points="618.937 -411.516 629.437 -441.516 639.937 -411.516 618.937 -411.516"/></g><g id="node8" class="node"><title>7</title><polygon fill="#f2f2f2" stroke="#000" points="952.748 -17.3 952.748 -125.3 1128.126 -125.3 1128.126 -17.3 952.748 -17.3"/><text x="1040.437" y="-108.7" fill="#000" font-family="Times,serif" font-size="14" text-anchor="middle">&lt;&lt;Interface&gt;&gt;</text><text x="1040.437" y="-91.9" fill="#000" font-family="Times,serif" font-size="14" text-anchor="middle">IPayable</text><polyline fill="none" stroke="#000" points="952.748 -83.7 1128.126 -83.7"/><polyline fill="none" stroke="#000" points="952.748 -58.9 1128.126 -58.9"/><text x="960.748" y="-42.3" fill="#000" font-family="Times,serif" font-size="14" text-anchor="start">External:</text><text x="960.748" y="-25.5" fill="#000" font-family="Times,serif" font-size="14" text-anchor="start">pay(serviceName: string)</text></g><g id="node9" class="node"><title>8</title><polygon fill="#f2f2f2" stroke="#000" points="851.397 -179.1 851.397 -287.1 1167.477 -287.1 1167.477 -179.1 851.397 -179.1"/><text x="1009.437" y="-270.5" fill="#000" font-family="Times,serif" font-size="14" text-anchor="middle">&lt;&lt;Abstract&gt;&gt;</text><text x="1009.437" y="-253.7" fill="#000" font-family="Times,serif" font-size="14" text-anchor="middle">ServicePayer</text><polyline fill="none" stroke="#000" points="851.397 -245.5 1167.477 -245.5"/><polyline fill="none" stroke="#000" points="851.397 -220.7 1167.477 -220.7"/><text x="859.397" y="-204.1" fill="#000" font-family="Times,serif" font-size="14" text-anchor="start">Public:</text><text x="859.397" y="-187.3" fill="#000" font-family="Times,serif" font-size="14" text-anchor="start">constructor(receiver: address, serviceName: string)</text></g><g id="node10" class="node"><title>9</title><polygon fill="#f2f2f2" stroke="#000" points="324.207 -.5 324.207 -142.1 934.667 -142.1 934.667 -.5 324.207 -.5"/><text x="629.437" y="-125.5" fill="#000" font-family="Times,serif" font-size="14" text-anchor="middle">PausableERC20</text><polyline fill="none" stroke="#000" points="324.207 -117.3 934.667 -117.3"/><polyline fill="none" stroke="#000" points="324.207 -92.5 934.667 -92.5"/><text x="332.207" y="-75.9" fill="#000" font-family="Times,serif" font-size="14" text-anchor="start">External:</text><text x="332.207" y="-59.1" fill="#000" font-family="Times,serif" font-size="14" text-anchor="start">pause()</text><text x="332.207" y="-42.3" fill="#000" font-family="Times,serif" font-size="14" text-anchor="start">unpause()</text><text x="332.207" y="-25.5" fill="#000" font-family="Times,serif" font-size="14" text-anchor="start">Public:</text><text x="332.207" y="-8.7" fill="#000" font-family="Times,serif" font-size="14" text-anchor="start">constructor(name: string, symbol: string, decimals: uint8, initialBalance: uint256, feeReceiver: address)</text></g><g id="edge9" class="edge"><title>9-&gt;1</title><path fill="none" stroke="#000" d="M460.31,-142.132C444.3583,-152.9002 429.3533,-165.0272 416.437,-178.6 347.6109,-250.9244 303.1831,-355.011 276.4588,-437.8544"/><polygon fill="none" stroke="#000" points="266.355 -434.988 267.567 -466.75 286.426 -441.164 266.355 -434.988"/></g><g id="edge8" class="edge"><title>9-&gt;6</title><path fill="none" stroke="#000" d="M629.437,-142.2678C629.437,-144.3693 629.437,-146.4799 629.437,-148.5938"/><polygon fill="none" stroke="#000" points="618.937 -148.731 629.437 -178.731 639.937 -148.731 618.937 -148.731"/></g><g id="edge10" class="edge"><title>9-&gt;8</title><path fill="none" stroke="#000" d="M795.8341,-142.1501C815.3431,-150.4568 835.1892,-158.9071 854.5326,-167.1433"/><polygon fill="none" stroke="#000" points="850.7 -176.923 882.415 -179.016 858.927 -157.602 850.7 -176.923"/></g></g></svg>