<svg xmlns="http://www.w3.org/2000/svg" xmlns:xlink="http://www.w3.org/1999/xlink" width="1309pt" height="995pt" viewBox="0 0 1308.76 995"><g id="graph0" class="graph" transform="scale(1 1) rotate(0) translate(4 991)"><title>UmlClassDiagram</title><polygon fill="#fff" stroke="transparent" points="-4 4 -4 -991 1304.762 -991 1304.762 4 -4 4"/><g id="node1" class="node"><title>0</title><polygon fill="#f2f2f2" stroke="#000" points="0 -769.3 0 -894.1 218.145 -894.1 218.145 -769.3 0 -769.3"/><text x="109.072" y="-877.5" fill="#000" font-family="Times,serif" font-size="14" text-anchor="middle">&lt;&lt;Abstract&gt;&gt;</text><text x="109.072" y="-860.7" fill="#000" font-family="Times,serif" font-size="14" text-anchor="middle">Context</text><polyline fill="none" stroke="#000" points="0 -852.5 218.145 -852.5"/><polyline fill="none" stroke="#000" points="0 -827.7 218.145 -827.7"/><text x="8" y="-811.1" fill="#000" font-family="Times,serif" font-size="14" text-anchor="start">Internal:</text><text x="8" y="-794.3" fill="#000" font-family="Times,serif" font-size="14" text-anchor="start">_msgSender(): (payable: address)</text><text x="8" y="-777.5" fill="#000" font-family="Times,serif" font-size="14" text-anchor="start">_msgData(): bytes</text></g><g id="node2" class="node"><title>1</title><polygon fill="#f2f2f2" stroke="#000" points="235.772 -710.5 235.772 -952.9 674.372 -952.9 674.372 -710.5 235.772 -710.5"/><text x="455.072" y="-936.3" fill="#000" font-family="Times,serif" font-size="14" text-anchor="middle">&lt;&lt;Interface&gt;&gt;</text><text x="455.072" y="-919.5" fill="#000" font-family="Times,serif" font-size="14" text-anchor="middle">IERC20</text><polyline fill="none" stroke="#000" points="235.772 -911.3 674.372 -911.3"/><polyline fill="none" stroke="#000" points="235.772 -886.5 674.372 -886.5"/><text x="243.772" y="-869.9" fill="#000" font-family="Times,serif" font-size="14" text-anchor="start">External:</text><text x="243.772" y="-853.1" fill="#000" font-family="Times,serif" font-size="14" text-anchor="start">totalSupply(): uint256</text><text x="243.772" y="-836.3" fill="#000" font-family="Times,serif" font-size="14" text-anchor="start">balanceOf(account: address): uint256</text><text x="243.772" y="-819.5" fill="#000" font-family="Times,serif" font-size="14" text-anchor="start">transfer(recipient: address, amount: uint256): bool</text><text x="243.772" y="-802.7" fill="#000" font-family="Times,serif" font-size="14" text-anchor="start">allowance(owner: address, spender: address): uint256</text><text x="243.772" y="-785.9" fill="#000" font-family="Times,serif" font-size="14" text-anchor="start">approve(spender: address, amount: uint256): bool</text><text x="243.772" y="-769.1" fill="#000" font-family="Times,serif" font-size="14" text-anchor="start">transferFrom(sender: address, recipient: address, amount: uint256): bool</text><text x="243.772" y="-752.3" fill="#000" font-family="Times,serif" font-size="14" text-anchor="start">Public:</text><text x="243.772" y="-735.5" fill="#000" font-family="Times,serif" font-size="14" text-anchor="start">&lt;&lt;event&gt;&gt; Transfer(from: address, to: address, value: uint256)</text><text x="243.772" y="-718.7" fill="#000" font-family="Times,serif" font-size="14" text-anchor="start">&lt;&lt;event&gt;&gt; Approval(owner: address, spender: address, value: uint256)</text></g><g id="node3" class="node"><title>2</title><polygon fill="#f2f2f2" stroke="#000" points="692.376 -676.9 692.376 -986.5 1049.769 -986.5 1049.769 -676.9 692.376 -676.9"/><text x="871.072" y="-969.9" fill="#000" font-family="Times,serif" font-size="14" text-anchor="middle">&lt;&lt;Library&gt;&gt;</text><text x="871.072" y="-953.1" fill="#000" font-family="Times,serif" font-size="14" text-anchor="middle">SafeMath</text><polyline fill="none" stroke="#000" points="692.376 -944.9 1049.769 -944.9"/><polyline fill="none" stroke="#000" points="692.376 -920.1 1049.769 -920.1"/><text x="700.376" y="-903.5" fill="#000" font-family="Times,serif" font-size="14" text-anchor="start">Internal:</text><text x="700.376" y="-886.7" fill="#000" font-family="Times,serif" font-size="14" text-anchor="start">tryAdd(a: uint256, b: uint256): (bool, uint256)</text><text x="700.376" y="-869.9" fill="#000" font-family="Times,serif" font-size="14" text-anchor="start">trySub(a: uint256, b: uint256): (bool, uint256)</text><text x="700.376" y="-853.1" fill="#000" font-family="Times,serif" font-size="14" text-anchor="start">tryMul(a: uint256, b: uint256): (bool, uint256)</text><text x="700.376" y="-836.3" fill="#000" font-family="Times,serif" font-size="14" text-anchor="start">tryDiv(a: uint256, b: uint256): (bool, uint256)</text><text x="700.376" y="-819.5" fill="#000" font-family="Times,serif" font-size="14" text-anchor="start">tryMod(a: uint256, b: uint256): (bool, uint256)</text><text x="700.376" y="-802.7" fill="#000" font-family="Times,serif" font-size="14" text-anchor="start">add(a: uint256, b: uint256): uint256</text><text x="700.376" y="-785.9" fill="#000" font-family="Times,serif" font-size="14" text-anchor="start">sub(a: uint256, b: uint256): uint256</text><text x="700.376" y="-769.1" fill="#000" font-family="Times,serif" font-size="14" text-anchor="start">mul(a: uint256, b: uint256): uint256</text><text x="700.376" y="-752.3" fill="#000" font-family="Times,serif" font-size="14" text-anchor="start">div(a: uint256, b: uint256): uint256</text><text x="700.376" y="-735.5" fill="#000" font-family="Times,serif" font-size="14" text-anchor="start">mod(a: uint256, b: uint256): uint256</text><text x="700.376" y="-718.7" fill="#000" font-family="Times,serif" font-size="14" text-anchor="start">sub(a: uint256, b: uint256, errorMessage: string): uint256</text><text x="700.376" y="-701.9" fill="#000" font-family="Times,serif" font-size="14" text-anchor="start">div(a: uint256, b: uint256, errorMessage: string): uint256</text><text x="700.376" y="-685.1" fill="#000" font-family="Times,serif" font-size="14" text-anchor="start">mod(a: uint256, b: uint256, errorMessage: string): uint256</text></g><g id="node4" class="node"><title>3</title><polygon fill="#f2f2f2" stroke="#000" points="237.522 -145.5 237.522 -639.9 672.622 -639.9 672.622 -145.5 237.522 -145.5"/><text x="455.072" y="-623.3" fill="#000" font-family="Times,serif" font-size="14" text-anchor="middle">ERC20</text><polyline fill="none" stroke="#000" points="237.522 -615.1 672.622 -615.1"/><text x="245.522" y="-598.5" fill="#000" font-family="Times,serif" font-size="14" text-anchor="start">Private:</text><text x="245.522" y="-581.7" fill="#000" font-family="Times,serif" font-size="14" text-anchor="start">_balances: mapping(address=&gt;uint256)</text><text x="245.522" y="-564.9" fill="#000" font-family="Times,serif" font-size="14" text-anchor="start">_allowances: mapping(address=&gt;mapping(address=&gt;uint256))</text><text x="245.522" y="-548.1" fill="#000" font-family="Times,serif" font-size="14" text-anchor="start">_totalSupply: uint256</text><text x="245.522" y="-531.3" fill="#000" font-family="Times,serif" font-size="14" text-anchor="start">_name: string</text><text x="245.522" y="-514.5" fill="#000" font-family="Times,serif" font-size="14" text-anchor="start">_symbol: string</text><text x="245.522" y="-497.7" fill="#000" font-family="Times,serif" font-size="14" text-anchor="start">_decimals: uint8</text><polyline fill="none" stroke="#000" points="237.522 -489.5 672.622 -489.5"/><text x="245.522" y="-472.9" fill="#000" font-family="Times,serif" font-size="14" text-anchor="start">Internal:</text><text x="245.522" y="-456.1" fill="#000" font-family="Times,serif" font-size="14" text-anchor="start">_transfer(sender: address, recipient: address, amount: uint256)</text><text x="245.522" y="-439.3" fill="#000" font-family="Times,serif" font-size="14" text-anchor="start">_mint(account: address, amount: uint256)</text><text x="245.522" y="-422.5" fill="#000" font-family="Times,serif" font-size="14" text-anchor="start">_burn(account: address, amount: uint256)</text><text x="245.522" y="-405.7" fill="#000" font-family="Times,serif" font-size="14" text-anchor="start">_approve(owner: address, spender: address, amount: uint256)</text><text x="245.522" y="-388.9" fill="#000" font-family="Times,serif" font-size="14" text-anchor="start">_setupDecimals(decimals_: uint8)</text><text x="245.522" y="-372.1" fill="#000" font-family="Times,serif" font-size="14" text-anchor="start">_beforeTokenTransfer(from: address, to: address, amount: uint256)</text><text x="245.522" y="-355.3" fill="#000" font-family="Times,serif" font-size="14" text-anchor="start">Public:</text><text x="245.522" y="-338.5" fill="#000" font-family="Times,serif" font-size="14" text-anchor="start">constructor(name_: string, symbol_: string)</text><text x="245.522" y="-321.7" fill="#000" font-family="Times,serif" font-size="14" text-anchor="start">name(): string</text><text x="245.522" y="-304.9" fill="#000" font-family="Times,serif" font-size="14" text-anchor="start">symbol(): string</text><text x="245.522" y="-288.1" fill="#000" font-family="Times,serif" font-size="14" text-anchor="start">decimals(): uint8</text><text x="245.522" y="-271.3" fill="#000" font-family="Times,serif" font-size="14" text-anchor="start">totalSupply(): uint256</text><text x="245.522" y="-254.5" fill="#000" font-family="Times,serif" font-size="14" text-anchor="start">balanceOf(account: address): uint256</text><text x="245.522" y="-237.7" fill="#000" font-family="Times,serif" font-size="14" text-anchor="start">transfer(recipient: address, amount: uint256): bool</text><text x="245.522" y="-220.9" fill="#000" font-family="Times,serif" font-size="14" text-anchor="start">allowance(owner: address, spender: address): uint256</text><text x="245.522" y="-204.1" fill="#000" font-family="Times,serif" font-size="14" text-anchor="start">approve(spender: address, amount: uint256): bool</text><text x="245.522" y="-187.3" fill="#000" font-family="Times,serif" font-size="14" text-anchor="start">transferFrom(sender: address, recipient: address, amount: uint256): bool</text><text x="245.522" y="-170.5" fill="#000" font-family="Times,serif" font-size="14" text-anchor="start">increaseAllowance(spender: address, addedValue: uint256): bool</text><text x="245.522" y="-153.7" fill="#000" font-family="Times,serif" font-size="14" text-anchor="start">decreaseAllowance(spender: address, subtractedValue: uint256): bool</text></g><g id="edge1" class="edge"><title>3-&gt;0</title><path fill="none" stroke="#000" d="M255.7165,-639.9464C246.0018,-652.249 236.4106,-664.451 227.0723,-676.4 209.785,-698.5204 191.3186,-722.6016 174.25,-745.0536"/><polygon fill="none" stroke="#000" points="165.808 -738.809 156.056 -769.061 182.544 -751.493 165.808 -738.809"/></g><g id="edge2" class="edge"><title>3-&gt;1</title><path fill="none" stroke="#000" stroke-dasharray="5 2" d="M455.0723,-640.1061C455.0723,-653.6484 455.0723,-667.0467 455.0723,-680.0902"/><polygon fill="none" stroke="#000" points="444.572 -680.243 455.072 -710.243 465.572 -680.243 444.572 -680.243"/></g><g id="edge3" class="edge"><title>3-&gt;2</title><path fill="none" stroke="#000" stroke-dasharray="5 2" d="M672.6695,-630.4939C675.8204,-633.8215 678.956,-637.1251 682.0723,-640.4 691.2012,-649.9936 700.6275,-659.8098 710.1732,-669.6815"/><polygon fill="#000" stroke="#000" points="707.671 -672.129 717.143 -676.877 712.699 -667.259 707.671 -672.129"/></g><g id="node5" class="node"><title>4</title><polygon fill="#f2f2f2" stroke="#000" points="1125.383 -.5 1125.383 -108.5 1300.762 -108.5 1300.762 -.5 1125.383 -.5"/><text x="1213.072" y="-91.9" fill="#000" font-family="Times,serif" font-size="14" text-anchor="middle">&lt;&lt;Interface&gt;&gt;</text><text x="1213.072" y="-75.1" fill="#000" font-family="Times,serif" font-size="14" text-anchor="middle">IPayable</text><polyline fill="none" stroke="#000" points="1125.383 -66.9 1300.762 -66.9"/><polyline fill="none" stroke="#000" points="1125.383 -42.1 1300.762 -42.1"/><text x="1133.383" y="-25.5" fill="#000" font-family="Times,serif" font-size="14" text-anchor="start">External:</text><text x="1133.383" y="-8.7" fill="#000" font-family="Times,serif" font-size="14" text-anchor="start">pay(serviceName: string)</text></g><g id="node6" class="node"><title>5</title><polygon fill="#f2f2f2" stroke="#000" points="691.032 -338.7 691.032 -446.7 1007.112 -446.7 1007.112 -338.7 691.032 -338.7"/><text x="849.072" y="-430.1" fill="#000" font-family="Times,serif" font-size="14" text-anchor="middle">&lt;&lt;Abstract&gt;&gt;</text><text x="849.072" y="-413.3" fill="#000" font-family="Times,serif" font-size="14" text-anchor="middle">ServicePayer</text><polyline fill="none" stroke="#000" points="691.032 -405.1 1007.112 -405.1"/><polyline fill="none" stroke="#000" points="691.032 -380.3 1007.112 -380.3"/><text x="699.032" y="-363.7" fill="#000" font-family="Times,serif" font-size="14" text-anchor="start">Public:</text><text x="699.032" y="-346.9" fill="#000" font-family="Times,serif" font-size="14" text-anchor="start">constructor(receiver: address, serviceName: string)</text></g><g id="node7" class="node"><title>6</title><polygon fill="#f2f2f2" stroke="#000" points="1025.18 -313.5 1025.18 -471.9 1214.965 -471.9 1214.965 -313.5 1025.18 -313.5"/><text x="1120.072" y="-455.3" fill="#000" font-family="Times,serif" font-size="14" text-anchor="middle">GeneratorCopyright</text><polyline fill="none" stroke="#000" points="1025.18 -447.1 1214.965 -447.1"/><text x="1033.18" y="-430.5" fill="#000" font-family="Times,serif" font-size="14" text-anchor="start">Private:</text><text x="1033.18" y="-413.7" fill="#000" font-family="Times,serif" font-size="14" text-anchor="start">_GENERATOR: string</text><text x="1033.18" y="-396.9" fill="#000" font-family="Times,serif" font-size="14" text-anchor="start">_version: string</text><polyline fill="none" stroke="#000" points="1025.18 -388.7 1214.965 -388.7"/><text x="1033.18" y="-372.1" fill="#000" font-family="Times,serif" font-size="14" text-anchor="start">Public:</text><text x="1033.18" y="-355.3" fill="#000" font-family="Times,serif" font-size="14" text-anchor="start">constructor(version_: string)</text><text x="1033.18" y="-338.5" fill="#000" font-family="Times,serif" font-size="14" text-anchor="start">generator(): string</text><text x="1033.18" y="-321.7" fill="#000" font-family="Times,serif" font-size="14" text-anchor="start">version(): string</text></g><g id="node8" class="node"><title>7</title><polygon fill="#f2f2f2" stroke="#000" points="590.308 -8.9 590.308 -100.1 1107.836 -100.1 1107.836 -8.9 590.308 -8.9"/><text x="849.072" y="-83.5" fill="#000" font-family="Times,serif" font-size="14" text-anchor="middle">SimpleERC20</text><polyline fill="none" stroke="#000" points="590.308 -75.3 1107.836 -75.3"/><polyline fill="none" stroke="#000" points="590.308 -50.5 1107.836 -50.5"/><text x="598.308" y="-33.9" fill="#000" font-family="Times,serif" font-size="14" text-anchor="start">Public:</text><text x="598.308" y="-17.1" fill="#000" font-family="Times,serif" font-size="14" text-anchor="start">constructor(name: string, symbol: string, initialBalance: uint256, feeReceiver: address)</text></g><g id="edge4" class="edge"><title>7-&gt;3</title><path fill="none" stroke="#000" d="M751.6037,-100.2715C734.4597,-109.6739 716.8465,-120.2092 696.8934,-134.3626"/><polygon fill="none" stroke="#000" points="690.515 -126.021 672.781 -152.397 703.093 -142.837 690.515 -126.021"/></g><g id="edge5" class="edge"><title>7-&gt;5</title><path fill="none" stroke="#000" d="M849.0723,-100.1112C849.0723,-153.3352 849.0723,-242.4468 849.0723,-308.3714"/><polygon fill="none" stroke="#000" points="838.572 -308.613 849.072 -338.613 859.572 -308.613 838.572 -308.613"/></g><g id="edge6" class="edge"><title>7-&gt;6</title><path fill="none" stroke="#000" d="M959.1742,-100.2742C979.9532,-112.5414 1000.1355,-127.4001 1016.0723,-145 1051.6996,-184.3454 1076.2037,-237.6607 1092.4333,-284.7495"/><polygon fill="none" stroke="#000" points="1082.473 -288.076 1101.605 -313.457 1102.477 -281.685 1082.473 -288.076"/></g></g></svg>