<svg xmlns="http://www.w3.org/2000/svg" xmlns:xlink="http://www.w3.org/1999/xlink" width="3156" height="1426pt" viewBox="0 0 2367.41 1425.6"><g id="graph0" class="graph" transform="scale(1 1) rotate(0) translate(4 1421.6)"><title>UmlClassDiagram</title><polygon fill="#fff" stroke="transparent" points="-4 4 -4 -1421.6 2363.412 -1421.6 2363.412 4 -4 4"/><g id="node1" class="node"><title>0</title><polygon fill="#f2f2f2" stroke="#000" points="1011.46 -1132.7 1011.46 -1257.5 1229.605 -1257.5 1229.605 -1132.7 1011.46 -1132.7"/><text x="1120.532" y="-1240.9" fill="#000" font-family="Times,serif" font-size="14" text-anchor="middle">&lt;&lt;Abstract&gt;&gt;</text><text x="1120.532" y="-1224.1" fill="#000" font-family="Times,serif" font-size="14" text-anchor="middle">Context</text><polyline fill="none" stroke="#000" points="1011.46 -1215.9 1229.605 -1215.9"/><polyline fill="none" stroke="#000" points="1011.46 -1191.1 1229.605 -1191.1"/><text x="1019.46" y="-1174.5" fill="#000" font-family="Times,serif" font-size="14" text-anchor="start">Internal:</text><text x="1019.46" y="-1157.7" fill="#000" font-family="Times,serif" font-size="14" text-anchor="start">_msgSender(): (payable: address)</text><text x="1019.46" y="-1140.9" fill="#000" font-family="Times,serif" font-size="14" text-anchor="start">_msgData(): bytes</text></g><g id="node2" class="node"><title>1</title><polygon fill="#f2f2f2" stroke="#000" points="914.095 -187.5 914.095 -396.3 1398.969 -396.3 1398.969 -187.5 914.095 -187.5"/><text x="1156.532" y="-379.7" fill="#000" font-family="Times,serif" font-size="14" text-anchor="middle">&lt;&lt;Abstract&gt;&gt;</text><text x="1156.532" y="-362.9" fill="#000" font-family="Times,serif" font-size="14" text-anchor="middle">Ownable</text><polyline fill="none" stroke="#000" points="914.095 -354.7 1398.969 -354.7"/><text x="922.095" y="-338.1" fill="#000" font-family="Times,serif" font-size="14" text-anchor="start">Private:</text><text x="922.095" y="-321.3" fill="#000" font-family="Times,serif" font-size="14" text-anchor="start">_owner: address</text><polyline fill="none" stroke="#000" points="914.095 -313.1 1398.969 -313.1"/><text x="922.095" y="-296.5" fill="#000" font-family="Times,serif" font-size="14" text-anchor="start">Public:</text><text x="922.095" y="-279.7" fill="#000" font-family="Times,serif" font-size="14" text-anchor="start">&lt;&lt;event&gt;&gt; OwnershipTransferred(previousOwner: address, newOwner: address)</text><text x="922.095" y="-262.9" fill="#000" font-family="Times,serif" font-size="14" text-anchor="start">&lt;&lt;modifier&gt;&gt; onlyOwner()</text><text x="922.095" y="-246.1" fill="#000" font-family="Times,serif" font-size="14" text-anchor="start">constructor()</text><text x="922.095" y="-229.3" fill="#000" font-family="Times,serif" font-size="14" text-anchor="start">owner(): address</text><text x="922.095" y="-212.5" fill="#000" font-family="Times,serif" font-size="14" text-anchor="start">renounceOwnership()</text><text x="922.095" y="-195.7" fill="#000" font-family="Times,serif" font-size="14" text-anchor="start">transferOwnership(newOwner: address)</text></g><g id="edge6" class="edge"><title>1-&gt;0</title><path fill="none" stroke="#000" d="M1152.3675,-396.3909C1145.2783,-574.2513 1130.9793,-932.9956 1124.2253,-1102.4465"/><polygon fill="none" stroke="#000" points="1113.73 -1102.119 1123.027 -1132.513 1134.714 -1102.955 1113.73 -1102.119"/></g><g id="node3" class="node"><title>2</title><polygon fill="#f2f2f2" stroke="#000" points="179.232 -1073.9 179.232 -1316.3 617.832 -1316.3 617.832 -1073.9 179.232 -1073.9"/><text x="398.532" y="-1299.7" fill="#000" font-family="Times,serif" font-size="14" text-anchor="middle">&lt;&lt;Interface&gt;&gt;</text><text x="398.532" y="-1282.9" fill="#000" font-family="Times,serif" font-size="14" text-anchor="middle">IERC20</text><polyline fill="none" stroke="#000" points="179.232 -1274.7 617.832 -1274.7"/><polyline fill="none" stroke="#000" points="179.232 -1249.9 617.832 -1249.9"/><text x="187.232" y="-1233.3" fill="#000" font-family="Times,serif" font-size="14" text-anchor="start">External:</text><text x="187.232" y="-1216.5" fill="#000" font-family="Times,serif" font-size="14" text-anchor="start">totalSupply(): uint256</text><text x="187.232" y="-1199.7" fill="#000" font-family="Times,serif" font-size="14" text-anchor="start">balanceOf(account: address): uint256</text><text x="187.232" y="-1182.9" fill="#000" font-family="Times,serif" font-size="14" text-anchor="start">transfer(recipient: address, amount: uint256): bool</text><text x="187.232" y="-1166.1" fill="#000" font-family="Times,serif" font-size="14" text-anchor="start">allowance(owner: address, spender: address): uint256</text><text x="187.232" y="-1149.3" fill="#000" font-family="Times,serif" font-size="14" text-anchor="start">approve(spender: address, amount: uint256): bool</text><text x="187.232" y="-1132.5" fill="#000" font-family="Times,serif" font-size="14" text-anchor="start">transferFrom(sender: address, recipient: address, amount: uint256): bool</text><text x="187.232" y="-1115.7" fill="#000" font-family="Times,serif" font-size="14" text-anchor="start">Public:</text><text x="187.232" y="-1098.9" fill="#000" font-family="Times,serif" font-size="14" text-anchor="start">&lt;&lt;event&gt;&gt; Transfer(from: address, to: address, value: uint256)</text><text x="187.232" y="-1082.1" fill="#000" font-family="Times,serif" font-size="14" text-anchor="start">&lt;&lt;event&gt;&gt; Approval(owner: address, spender: address, value: uint256)</text></g><g id="node4" class="node"><title>3</title><polygon fill="#f2f2f2" stroke="#000" points="635.836 -1040.3 635.836 -1349.9 993.229 -1349.9 993.229 -1040.3 635.836 -1040.3"/><text x="814.532" y="-1333.3" fill="#000" font-family="Times,serif" font-size="14" text-anchor="middle">&lt;&lt;Library&gt;&gt;</text><text x="814.532" y="-1316.5" fill="#000" font-family="Times,serif" font-size="14" text-anchor="middle">SafeMath</text><polyline fill="none" stroke="#000" points="635.836 -1308.3 993.229 -1308.3"/><polyline fill="none" stroke="#000" points="635.836 -1283.5 993.229 -1283.5"/><text x="643.836" y="-1266.9" fill="#000" font-family="Times,serif" font-size="14" text-anchor="start">Internal:</text><text x="643.836" y="-1250.1" fill="#000" font-family="Times,serif" font-size="14" text-anchor="start">tryAdd(a: uint256, b: uint256): (bool, uint256)</text><text x="643.836" y="-1233.3" fill="#000" font-family="Times,serif" font-size="14" text-anchor="start">trySub(a: uint256, b: uint256): (bool, uint256)</text><text x="643.836" y="-1216.5" fill="#000" font-family="Times,serif" font-size="14" text-anchor="start">tryMul(a: uint256, b: uint256): (bool, uint256)</text><text x="643.836" y="-1199.7" fill="#000" font-family="Times,serif" font-size="14" text-anchor="start">tryDiv(a: uint256, b: uint256): (bool, uint256)</text><text x="643.836" y="-1182.9" fill="#000" font-family="Times,serif" font-size="14" text-anchor="start">tryMod(a: uint256, b: uint256): (bool, uint256)</text><text x="643.836" y="-1166.1" fill="#000" font-family="Times,serif" font-size="14" text-anchor="start">add(a: uint256, b: uint256): uint256</text><text x="643.836" y="-1149.3" fill="#000" font-family="Times,serif" font-size="14" text-anchor="start">sub(a: uint256, b: uint256): uint256</text><text x="643.836" y="-1132.5" fill="#000" font-family="Times,serif" font-size="14" text-anchor="start">mul(a: uint256, b: uint256): uint256</text><text x="643.836" y="-1115.7" fill="#000" font-family="Times,serif" font-size="14" text-anchor="start">div(a: uint256, b: uint256): uint256</text><text x="643.836" y="-1098.9" fill="#000" font-family="Times,serif" font-size="14" text-anchor="start">mod(a: uint256, b: uint256): uint256</text><text x="643.836" y="-1082.1" fill="#000" font-family="Times,serif" font-size="14" text-anchor="start">sub(a: uint256, b: uint256, errorMessage: string): uint256</text><text x="643.836" y="-1065.3" fill="#000" font-family="Times,serif" font-size="14" text-anchor="start">div(a: uint256, b: uint256, errorMessage: string): uint256</text><text x="643.836" y="-1048.5" fill="#000" font-family="Times,serif" font-size="14" text-anchor="start">mod(a: uint256, b: uint256, errorMessage: string): uint256</text></g><g id="node5" class="node"><title>4</title><polygon fill="#f2f2f2" stroke="#000" points="200.982 -441.7 200.982 -936.1 636.082 -936.1 636.082 -441.7 200.982 -441.7"/><text x="418.532" y="-919.5" fill="#000" font-family="Times,serif" font-size="14" text-anchor="middle">ERC20</text><polyline fill="none" stroke="#000" points="200.982 -911.3 636.082 -911.3"/><text x="208.982" y="-894.7" fill="#000" font-family="Times,serif" font-size="14" text-anchor="start">Private:</text><text x="208.982" y="-877.9" fill="#000" font-family="Times,serif" font-size="14" text-anchor="start">_balances: mapping(address=&gt;uint256)</text><text x="208.982" y="-861.1" fill="#000" font-family="Times,serif" font-size="14" text-anchor="start">_allowances: mapping(address=&gt;mapping(address=&gt;uint256))</text><text x="208.982" y="-844.3" fill="#000" font-family="Times,serif" font-size="14" text-anchor="start">_totalSupply: uint256</text><text x="208.982" y="-827.5" fill="#000" font-family="Times,serif" font-size="14" text-anchor="start">_name: string</text><text x="208.982" y="-810.7" fill="#000" font-family="Times,serif" font-size="14" text-anchor="start">_symbol: string</text><text x="208.982" y="-793.9" fill="#000" font-family="Times,serif" font-size="14" text-anchor="start">_decimals: uint8</text><polyline fill="none" stroke="#000" points="200.982 -785.7 636.082 -785.7"/><text x="208.982" y="-769.1" fill="#000" font-family="Times,serif" font-size="14" text-anchor="start">Internal:</text><text x="208.982" y="-752.3" fill="#000" font-family="Times,serif" font-size="14" text-anchor="start">_transfer(sender: address, recipient: address, amount: uint256)</text><text x="208.982" y="-735.5" fill="#000" font-family="Times,serif" font-size="14" text-anchor="start">_mint(account: address, amount: uint256)</text><text x="208.982" y="-718.7" fill="#000" font-family="Times,serif" font-size="14" text-anchor="start">_burn(account: address, amount: uint256)</text><text x="208.982" y="-701.9" fill="#000" font-family="Times,serif" font-size="14" text-anchor="start">_approve(owner: address, spender: address, amount: uint256)</text><text x="208.982" y="-685.1" fill="#000" font-family="Times,serif" font-size="14" text-anchor="start">_setupDecimals(decimals_: uint8)</text><text x="208.982" y="-668.3" fill="#000" font-family="Times,serif" font-size="14" text-anchor="start">_beforeTokenTransfer(from: address, to: address, amount: uint256)</text><text x="208.982" y="-651.5" fill="#000" font-family="Times,serif" font-size="14" text-anchor="start">Public:</text><text x="208.982" y="-634.7" fill="#000" font-family="Times,serif" font-size="14" text-anchor="start">constructor(name_: string, symbol_: string)</text><text x="208.982" y="-617.9" fill="#000" font-family="Times,serif" font-size="14" text-anchor="start">name(): string</text><text x="208.982" y="-601.1" fill="#000" font-family="Times,serif" font-size="14" text-anchor="start">symbol(): string</text><text x="208.982" y="-584.3" fill="#000" font-family="Times,serif" font-size="14" text-anchor="start">decimals(): uint8</text><text x="208.982" y="-567.5" fill="#000" font-family="Times,serif" font-size="14" text-anchor="start">totalSupply(): uint256</text><text x="208.982" y="-550.7" fill="#000" font-family="Times,serif" font-size="14" text-anchor="start">balanceOf(account: address): uint256</text><text x="208.982" y="-533.9" fill="#000" font-family="Times,serif" font-size="14" text-anchor="start">transfer(recipient: address, amount: uint256): bool</text><text x="208.982" y="-517.1" fill="#000" font-family="Times,serif" font-size="14" text-anchor="start">allowance(owner: address, spender: address): uint256</text><text x="208.982" y="-500.3" fill="#000" font-family="Times,serif" font-size="14" text-anchor="start">approve(spender: address, amount: uint256): bool</text><text x="208.982" y="-483.5" fill="#000" font-family="Times,serif" font-size="14" text-anchor="start">transferFrom(sender: address, recipient: address, amount: uint256): bool</text><text x="208.982" y="-466.7" fill="#000" font-family="Times,serif" font-size="14" text-anchor="start">increaseAllowance(spender: address, addedValue: uint256): bool</text><text x="208.982" y="-449.9" fill="#000" font-family="Times,serif" font-size="14" text-anchor="start">decreaseAllowance(spender: address, subtractedValue: uint256): bool</text></g><g id="edge7" class="edge"><title>4-&gt;0</title><path fill="none" stroke="#000" d="M636.2637,-790.808C795.9841,-866.1847 987.5789,-958.1669 1002.5323,-972.6 1040.3402,-1009.0923 1068.655,-1060.3554 1088.0578,-1104.4796"/><polygon fill="none" stroke="#000" points="1078.362 -1108.509 1099.531 -1132.218 1097.767 -1100.482 1078.362 -1108.509"/></g><g id="edge8" class="edge"><title>4-&gt;2</title><path fill="none" stroke="#000" stroke-dasharray="5 2" d="M408.752,-936.4391C407.3071,-973.0092 405.8561,-1009.7341 404.5197,-1043.5581"/><polygon fill="none" stroke="#000" points="394.021 -1043.326 403.328 -1073.718 415.004 -1044.156 394.021 -1043.326"/></g><g id="edge9" class="edge"><title>4-&gt;3</title><path fill="none" stroke="#000" stroke-dasharray="5 2" d="M612.182,-936.4391C637.5704,-968.8926 663.0542,-1001.4681 686.9626,-1032.0298"/><polygon fill="#000" stroke="#000" points="684.415 -1034.454 693.333 -1040.173 689.928 -1030.14 684.415 -1034.454"/></g><g id="node6" class="node"><title>5</title><polygon fill="#f2f2f2" stroke="#000" points="274.839 -229.5 274.839 -354.3 562.226 -354.3 562.226 -229.5 274.839 -229.5"/><text x="418.532" y="-337.7" fill="#000" font-family="Times,serif" font-size="14" text-anchor="middle">&lt;&lt;Abstract&gt;&gt;</text><text x="418.532" y="-320.9" fill="#000" font-family="Times,serif" font-size="14" text-anchor="middle">ERC20Burnable</text><polyline fill="none" stroke="#000" points="274.839 -312.7 562.226 -312.7"/><polyline fill="none" stroke="#000" points="274.839 -287.9 562.226 -287.9"/><text x="282.839" y="-271.3" fill="#000" font-family="Times,serif" font-size="14" text-anchor="start">Public:</text><text x="282.839" y="-254.5" fill="#000" font-family="Times,serif" font-size="14" text-anchor="start">burn(amount: uint256)</text><text x="282.839" y="-237.7" fill="#000" font-family="Times,serif" font-size="14" text-anchor="start">burnFrom(account: address, amount: uint256)</text></g><g id="edge10" class="edge"><title>5-&gt;0</title><path fill="none" stroke="#000" d="M489.5921,-354.401C514.1399,-373.205 542.742,-392.2583 571.5323,-405.2 642.3704,-437.0429 681.0231,-393.7804 742.5323,-441.2 962.219,-610.5642 1063.7692,-942.1504 1101.7193,-1103.0926"/><polygon fill="none" stroke="#000" points="1091.502 -1105.517 1108.378 -1132.451 1111.982 -1100.872 1091.502 -1105.517"/></g><g id="edge12" class="edge"><title>5-&gt;3</title><path fill="none" stroke="#000" stroke-dasharray="5 2" d="M497.1955,-354.4613C520.516,-371.8121 546.5198,-390.0331 571.5323,-405.2 602.8062,-424.1637 622.8411,-412.5157 645.5323,-441.2 779.3134,-610.3149 811.7183,-864.3265 817.3131,-1029.9216"/><polygon fill="#000" stroke="#000" points="813.823 -1030.318 817.63 -1040.205 820.82 -1030.102 813.823 -1030.318"/></g><g id="edge11" class="edge"><title>5-&gt;4</title><path fill="none" stroke="#000" d="M418.5323,-354.368C418.5323,-371.2133 418.5323,-390.577 418.5323,-411.3178"/><polygon fill="none" stroke="#000" points="408.032 -411.439 418.532 -441.439 429.032 -411.439 408.032 -411.439"/></g><g id="node7" class="node"><title>6</title><polygon fill="#f2f2f2" stroke="#000" points="0 -179.1 0 -404.7 257.065 -404.7 257.065 -179.1 0 -179.1"/><text x="128.532" y="-388.1" fill="#000" font-family="Times,serif" font-size="14" text-anchor="middle">&lt;&lt;Abstract&gt;&gt;</text><text x="128.532" y="-371.3" fill="#000" font-family="Times,serif" font-size="14" text-anchor="middle">ERC20Mintable</text><polyline fill="none" stroke="#000" points="0 -363.1 257.065 -363.1"/><text x="8" y="-346.5" fill="#000" font-family="Times,serif" font-size="14" text-anchor="start">Private:</text><text x="8" y="-329.7" fill="#000" font-family="Times,serif" font-size="14" text-anchor="start">_mintingFinished: bool</text><polyline fill="none" stroke="#000" points="0 -321.5 257.065 -321.5"/><text x="8" y="-304.9" fill="#000" font-family="Times,serif" font-size="14" text-anchor="start">Internal:</text><text x="8" y="-288.1" fill="#000" font-family="Times,serif" font-size="14" text-anchor="start">_finishMinting()</text><text x="8" y="-271.3" fill="#000" font-family="Times,serif" font-size="14" text-anchor="start">Public:</text><text x="8" y="-254.5" fill="#000" font-family="Times,serif" font-size="14" text-anchor="start">&lt;&lt;event&gt;&gt; MintFinished()</text><text x="8" y="-237.7" fill="#000" font-family="Times,serif" font-size="14" text-anchor="start">&lt;&lt;modifier&gt;&gt; canMint()</text><text x="8" y="-220.9" fill="#000" font-family="Times,serif" font-size="14" text-anchor="start">mintingFinished(): bool</text><text x="8" y="-204.1" fill="#000" font-family="Times,serif" font-size="14" text-anchor="start">mint(account: address, amount: uint256)</text><text x="8" y="-187.3" fill="#000" font-family="Times,serif" font-size="14" text-anchor="start">finishMinting()</text></g><g id="edge13" class="edge"><title>6-&gt;4</title><path fill="none" stroke="#000" d="M211.0527,-404.8676C214.0168,-408.9253 217.024,-413.0421 220.0677,-417.2089"/><polygon fill="none" stroke="#000" points="211.679 -423.526 237.854 -441.558 228.637 -411.139 211.679 -423.526"/></g><g id="node8" class="node"><title>7</title><polygon fill="#f2f2f2" stroke="#000" points="1899.916 -973.1 1899.916 -1417.1 2193.148 -1417.1 2193.148 -973.1 1899.916 -973.1"/><text x="2046.532" y="-1400.5" fill="#000" font-family="Times,serif" font-size="14" text-anchor="middle">&lt;&lt;Library&gt;&gt;</text><text x="2046.532" y="-1383.7" fill="#000" font-family="Times,serif" font-size="14" text-anchor="middle">EnumerableSet</text><polyline fill="none" stroke="#000" points="1899.916 -1375.5 2193.148 -1375.5"/><polyline fill="none" stroke="#000" points="1899.916 -1350.7 2193.148 -1350.7"/><text x="1907.916" y="-1334.1" fill="#000" font-family="Times,serif" font-size="14" text-anchor="start">Private:</text><text x="1907.916" y="-1317.3" fill="#000" font-family="Times,serif" font-size="14" text-anchor="start">_add(set: Set, value: bytes32): bool</text><text x="1907.916" y="-1300.5" fill="#000" font-family="Times,serif" font-size="14" text-anchor="start">_remove(set: Set, value: bytes32): bool</text><text x="1907.916" y="-1283.7" fill="#000" font-family="Times,serif" font-size="14" text-anchor="start">_contains(set: Set, value: bytes32): bool</text><text x="1907.916" y="-1266.9" fill="#000" font-family="Times,serif" font-size="14" text-anchor="start">_length(set: Set): uint256</text><text x="1907.916" y="-1250.1" fill="#000" font-family="Times,serif" font-size="14" text-anchor="start">_at(set: Set, index: uint256): bytes32</text><text x="1907.916" y="-1233.3" fill="#000" font-family="Times,serif" font-size="14" text-anchor="start">Internal:</text><text x="1907.916" y="-1216.5" fill="#000" font-family="Times,serif" font-size="14" text-anchor="start">add(set: Bytes32Set, value: bytes32): bool</text><text x="1907.916" y="-1199.7" fill="#000" font-family="Times,serif" font-size="14" text-anchor="start">remove(set: Bytes32Set, value: bytes32): bool</text><text x="1907.916" y="-1182.9" fill="#000" font-family="Times,serif" font-size="14" text-anchor="start">contains(set: Bytes32Set, value: bytes32): bool</text><text x="1907.916" y="-1166.1" fill="#000" font-family="Times,serif" font-size="14" text-anchor="start">length(set: Bytes32Set): uint256</text><text x="1907.916" y="-1149.3" fill="#000" font-family="Times,serif" font-size="14" text-anchor="start">at(set: Bytes32Set, index: uint256): bytes32</text><text x="1907.916" y="-1132.5" fill="#000" font-family="Times,serif" font-size="14" text-anchor="start">add(set: AddressSet, value: address): bool</text><text x="1907.916" y="-1115.7" fill="#000" font-family="Times,serif" font-size="14" text-anchor="start">remove(set: AddressSet, value: address): bool</text><text x="1907.916" y="-1098.9" fill="#000" font-family="Times,serif" font-size="14" text-anchor="start">contains(set: AddressSet, value: address): bool</text><text x="1907.916" y="-1082.1" fill="#000" font-family="Times,serif" font-size="14" text-anchor="start">length(set: AddressSet): uint256</text><text x="1907.916" y="-1065.3" fill="#000" font-family="Times,serif" font-size="14" text-anchor="start">at(set: AddressSet, index: uint256): address</text><text x="1907.916" y="-1048.5" fill="#000" font-family="Times,serif" font-size="14" text-anchor="start">add(set: UintSet, value: uint256): bool</text><text x="1907.916" y="-1031.7" fill="#000" font-family="Times,serif" font-size="14" text-anchor="start">remove(set: UintSet, value: uint256): bool</text><text x="1907.916" y="-1014.9" fill="#000" font-family="Times,serif" font-size="14" text-anchor="start">contains(set: UintSet, value: uint256): bool</text><text x="1907.916" y="-998.1" fill="#000" font-family="Times,serif" font-size="14" text-anchor="start">length(set: UintSet): uint256</text><text x="1907.916" y="-981.3" fill="#000" font-family="Times,serif" font-size="14" text-anchor="start">at(set: UintSet, index: uint256): uint256</text></g><g id="node9" class="node"><title>7struct0</title><polygon fill="#f2f2f2" stroke="#000" points="1929.736 -647.3 1929.736 -730.5 2163.328 -730.5 2163.328 -647.3 1929.736 -647.3"/><text x="2046.532" y="-713.9" fill="#000" font-family="Times,serif" font-size="14" text-anchor="middle">&lt;&lt;struct&gt;&gt;</text><text x="2046.532" y="-697.1" fill="#000" font-family="Times,serif" font-size="14" text-anchor="middle">Set</text><polyline fill="none" stroke="#000" points="1929.736 -688.9 2163.328 -688.9"/><text x="1937.736" y="-672.3" fill="#000" font-family="Times,serif" font-size="14" text-anchor="start">_values: bytes32[]</text><text x="1937.736" y="-655.5" fill="#000" font-family="Times,serif" font-size="14" text-anchor="start">_indexes: mapping(bytes32=&gt;uint256)</text></g><g id="edge1" class="edge"><title>7struct0-&gt;7</title><path fill="none" stroke="#000" d="M2046.5323,-730.7551C2046.5323,-782.0492 2046.5323,-873.0164 2046.5323,-960.9225"/><polygon fill="#000" stroke="#000" points="2046.532 -961.021 2050.532 -967.021 2046.532 -973.021 2042.532 -967.021 2046.532 -961.021"/></g><g id="node10" class="node"><title>7struct1</title><polygon fill="#f2f2f2" stroke="#000" points="2181.645 -655.7 2181.645 -722.1 2261.419 -722.1 2261.419 -655.7 2181.645 -655.7"/><text x="2221.532" y="-705.5" fill="#000" font-family="Times,serif" font-size="14" text-anchor="middle">&lt;&lt;struct&gt;&gt;</text><text x="2221.532" y="-688.7" fill="#000" font-family="Times,serif" font-size="14" text-anchor="middle">Bytes32Set</text><polyline fill="none" stroke="#000" points="2181.645 -680.5 2261.419 -680.5"/><text x="2189.645" y="-663.9" fill="#000" font-family="Times,serif" font-size="14" text-anchor="start">_inner: Set</text></g><g id="edge2" class="edge"><title>7struct1-&gt;7</title><path fill="none" stroke="#000" d="M2217.6886,-722.4613C2211.5352,-770.7567 2197.5446,-862.2253 2172.5323,-936.6 2169.7697,-944.8147 2166.8024,-953.104 2163.6708,-961.42"/><polygon fill="#000" stroke="#000" points="2163.612 -961.572 2165.191 -968.609 2159.302 -972.772 2157.724 -965.736 2163.612 -961.572"/></g><g id="node11" class="node"><title>7struct2</title><polygon fill="#f2f2f2" stroke="#000" points="2279.653 -655.7 2279.653 -722.1 2359.412 -722.1 2359.412 -655.7 2279.653 -655.7"/><text x="2319.532" y="-705.5" fill="#000" font-family="Times,serif" font-size="14" text-anchor="middle">&lt;&lt;struct&gt;&gt;</text><text x="2319.532" y="-688.7" fill="#000" font-family="Times,serif" font-size="14" text-anchor="middle">AddressSet</text><polyline fill="none" stroke="#000" points="2279.653 -680.5 2359.412 -680.5"/><text x="2287.653" y="-663.9" fill="#000" font-family="Times,serif" font-size="14" text-anchor="start">_inner: Set</text></g><g id="edge3" class="edge"><title>7struct2-&gt;7</title><path fill="none" stroke="#000" d="M2318.3274,-722.2768C2315.388,-771.5293 2305.2806,-865.5128 2270.5323,-936.6 2252.4339,-973.6253 2227.6862,-1009.5734 2201.2245,-1042.3074"/><polygon fill="#000" stroke="#000" points="2200.959 -1042.631 2200.242 -1049.807 2193.343 -1051.905 2194.059 -1044.73 2200.959 -1042.631"/></g><g id="node12" class="node"><title>7struct3</title><polygon fill="#f2f2f2" stroke="#000" points="1833.193 -655.7 1833.193 -722.1 1911.872 -722.1 1911.872 -655.7 1833.193 -655.7"/><text x="1872.532" y="-705.5" fill="#000" font-family="Times,serif" font-size="14" text-anchor="middle">&lt;&lt;struct&gt;&gt;</text><text x="1872.532" y="-688.7" fill="#000" font-family="Times,serif" font-size="14" text-anchor="middle">UintSet</text><polyline fill="none" stroke="#000" points="1833.193 -680.5 1911.872 -680.5"/><text x="1841.193" y="-663.9" fill="#000" font-family="Times,serif" font-size="14" text-anchor="start">_inner: Set</text></g><g id="edge4" class="edge"><title>7struct3-&gt;7</title><path fill="none" stroke="#000" d="M1876.2034,-722.4635C1882.1167,-770.7616 1895.6836,-862.2334 1920.5323,-936.6 1923.2789,-944.8201 1926.2325,-953.114 1929.3522,-961.4339"/><polygon fill="#000" stroke="#000" points="1929.41 -961.586 1935.293 -965.757 1933.706 -972.791 1927.823 -968.62 1929.41 -961.586"/></g><g id="node13" class="node"><title>8</title><polygon fill="#f2f2f2" stroke="#000" points="1247.474 -1048.7 1247.474 -1341.5 1813.59 -1341.5 1813.59 -1048.7 1247.474 -1048.7"/><text x="1530.532" y="-1324.9" fill="#000" font-family="Times,serif" font-size="14" text-anchor="middle">&lt;&lt;Library&gt;&gt;</text><text x="1530.532" y="-1308.1" fill="#000" font-family="Times,serif" font-size="14" text-anchor="middle">Address</text><polyline fill="none" stroke="#000" points="1247.474 -1299.9 1813.59 -1299.9"/><polyline fill="none" stroke="#000" points="1247.474 -1275.1 1813.59 -1275.1"/><text x="1255.474" y="-1258.5" fill="#000" font-family="Times,serif" font-size="14" text-anchor="start">Private:</text><text x="1255.474" y="-1241.7" fill="#000" font-family="Times,serif" font-size="14" text-anchor="start">_verifyCallResult(success: bool, returndata: bytes, errorMessage: string): bytes</text><text x="1255.474" y="-1224.9" fill="#000" font-family="Times,serif" font-size="14" text-anchor="start">Internal:</text><text x="1255.474" y="-1208.1" fill="#000" font-family="Times,serif" font-size="14" text-anchor="start">isContract(account: address): bool</text><text x="1255.474" y="-1191.3" fill="#000" font-family="Times,serif" font-size="14" text-anchor="start">sendValue(recipient: address, amount: uint256)</text><text x="1255.474" y="-1174.5" fill="#000" font-family="Times,serif" font-size="14" text-anchor="start">functionCall(target: address, data: bytes): bytes</text><text x="1255.474" y="-1157.7" fill="#000" font-family="Times,serif" font-size="14" text-anchor="start">functionCall(target: address, data: bytes, errorMessage: string): bytes</text><text x="1255.474" y="-1140.9" fill="#000" font-family="Times,serif" font-size="14" text-anchor="start">functionCallWithValue(target: address, data: bytes, value: uint256): bytes</text><text x="1255.474" y="-1124.1" fill="#000" font-family="Times,serif" font-size="14" text-anchor="start">functionCallWithValue(target: address, data: bytes, value: uint256, errorMessage: string): bytes</text><text x="1255.474" y="-1107.3" fill="#000" font-family="Times,serif" font-size="14" text-anchor="start">functionStaticCall(target: address, data: bytes): bytes</text><text x="1255.474" y="-1090.5" fill="#000" font-family="Times,serif" font-size="14" text-anchor="start">functionStaticCall(target: address, data: bytes, errorMessage: string): bytes</text><text x="1255.474" y="-1073.7" fill="#000" font-family="Times,serif" font-size="14" text-anchor="start">functionDelegateCall(target: address, data: bytes): bytes</text><text x="1255.474" y="-1056.9" fill="#000" font-family="Times,serif" font-size="14" text-anchor="start">functionDelegateCall(target: address, data: bytes, errorMessage: string): bytes</text></g><g id="node14" class="node"><title>9</title><polygon fill="#f2f2f2" stroke="#000" points="1204.236 -483.7 1204.236 -894.1 1814.829 -894.1 1814.829 -483.7 1204.236 -483.7"/><text x="1509.532" y="-877.5" fill="#000" font-family="Times,serif" font-size="14" text-anchor="middle">&lt;&lt;Abstract&gt;&gt;</text><text x="1509.532" y="-860.7" fill="#000" font-family="Times,serif" font-size="14" text-anchor="middle">AccessControl</text><polyline fill="none" stroke="#000" points="1204.236 -852.5 1814.829 -852.5"/><text x="1212.236" y="-835.9" fill="#000" font-family="Times,serif" font-size="14" text-anchor="start">Private:</text><text x="1212.236" y="-819.1" fill="#000" font-family="Times,serif" font-size="14" text-anchor="start">_roles: mapping(bytes32=&gt;RoleData)</text><text x="1212.236" y="-802.3" fill="#000" font-family="Times,serif" font-size="14" text-anchor="start">Public:</text><text x="1212.236" y="-785.5" fill="#000" font-family="Times,serif" font-size="14" text-anchor="start">DEFAULT_ADMIN_ROLE: bytes32</text><polyline fill="none" stroke="#000" points="1204.236 -777.3 1814.829 -777.3"/><text x="1212.236" y="-760.7" fill="#000" font-family="Times,serif" font-size="14" text-anchor="start">Private:</text><text x="1212.236" y="-743.9" fill="#000" font-family="Times,serif" font-size="14" text-anchor="start">_grantRole(role: bytes32, account: address)</text><text x="1212.236" y="-727.1" fill="#000" font-family="Times,serif" font-size="14" text-anchor="start">_revokeRole(role: bytes32, account: address)</text><text x="1212.236" y="-710.3" fill="#000" font-family="Times,serif" font-size="14" text-anchor="start">Internal:</text><text x="1212.236" y="-693.5" fill="#000" font-family="Times,serif" font-size="14" text-anchor="start">_setupRole(role: bytes32, account: address)</text><text x="1212.236" y="-676.7" fill="#000" font-family="Times,serif" font-size="14" text-anchor="start">_setRoleAdmin(role: bytes32, adminRole: bytes32)</text><text x="1212.236" y="-659.9" fill="#000" font-family="Times,serif" font-size="14" text-anchor="start">Public:</text><text x="1212.236" y="-643.1" fill="#000" font-family="Times,serif" font-size="14" text-anchor="start">&lt;&lt;event&gt;&gt; RoleAdminChanged(role: bytes32, previousAdminRole: bytes32, newAdminRole: bytes32)</text><text x="1212.236" y="-626.3" fill="#000" font-family="Times,serif" font-size="14" text-anchor="start">&lt;&lt;event&gt;&gt; RoleGranted(role: bytes32, account: address, sender: address)</text><text x="1212.236" y="-609.5" fill="#000" font-family="Times,serif" font-size="14" text-anchor="start">&lt;&lt;event&gt;&gt; RoleRevoked(role: bytes32, account: address, sender: address)</text><text x="1212.236" y="-592.7" fill="#000" font-family="Times,serif" font-size="14" text-anchor="start">hasRole(role: bytes32, account: address): bool</text><text x="1212.236" y="-575.9" fill="#000" font-family="Times,serif" font-size="14" text-anchor="start">getRoleMemberCount(role: bytes32): uint256</text><text x="1212.236" y="-559.1" fill="#000" font-family="Times,serif" font-size="14" text-anchor="start">getRoleMember(role: bytes32, index: uint256): address</text><text x="1212.236" y="-542.3" fill="#000" font-family="Times,serif" font-size="14" text-anchor="start">getRoleAdmin(role: bytes32): bytes32</text><text x="1212.236" y="-525.5" fill="#000" font-family="Times,serif" font-size="14" text-anchor="start">grantRole(role: bytes32, account: address)</text><text x="1212.236" y="-508.7" fill="#000" font-family="Times,serif" font-size="14" text-anchor="start">revokeRole(role: bytes32, account: address)</text><text x="1212.236" y="-491.9" fill="#000" font-family="Times,serif" font-size="14" text-anchor="start">renounceRole(role: bytes32, account: address)</text></g><g id="edge14" class="edge"><title>9-&gt;0</title><path fill="none" stroke="#000" d="M1301.0822,-894.3114C1278.9241,-919.8193 1257.5639,-946.2252 1238.5323,-972.6 1208.838,-1013.7517 1181.815,-1063.3216 1161.1445,-1105.2189"/><polygon fill="none" stroke="#000" points="1151.58 -1100.881 1148.05 -1132.469 1170.508 -1109.977 1151.58 -1100.881"/></g><g id="edge15" class="edge"><title>9-&gt;7</title><path fill="none" stroke="#000" stroke-dasharray="5 2" d="M1738.44,-894.166C1766.9376,-920.3689 1795.533,-946.9802 1822.5323,-972.6 1845.4137,-994.3123 1869.3271,-1017.5064 1892.6523,-1040.4189"/><polygon fill="#000" stroke="#000" points="1890.287 -1043.002 1899.87 -1047.519 1895.196 -1038.011 1890.287 -1043.002"/></g><g id="edge16" class="edge"><title>9-&gt;8</title><path fill="none" stroke="#000" stroke-dasharray="5 2" d="M1518.0587,-894.426C1520.0499,-942.4239 1522.1393,-992.7897 1524.0265,-1038.2794"/><polygon fill="#000" stroke="#000" points="1520.54 -1038.668 1524.451 -1048.514 1527.534 -1038.377 1520.54 -1038.668"/></g><g id="node15" class="node"><title>9struct0</title><polygon fill="#f2f2f2" stroke="#000" points="1620.787 -250.3 1620.787 -333.5 1848.278 -333.5 1848.278 -250.3 1620.787 -250.3"/><text x="1734.532" y="-316.9" fill="#000" font-family="Times,serif" font-size="14" text-anchor="middle">&lt;&lt;struct&gt;&gt;</text><text x="1734.532" y="-300.1" fill="#000" font-family="Times,serif" font-size="14" text-anchor="middle">RoleData</text><polyline fill="none" stroke="#000" points="1620.787 -291.9 1848.278 -291.9"/><text x="1628.787" y="-275.3" fill="#000" font-family="Times,serif" font-size="14" text-anchor="start">members: EnumerableSet.AddressSet</text><text x="1628.787" y="-258.5" fill="#000" font-family="Times,serif" font-size="14" text-anchor="start">adminRole: bytes32</text></g><g id="edge5" class="edge"><title>9struct0-&gt;9</title><path fill="none" stroke="#000" d="M1710.8786,-333.6356C1691.4158,-367.9767 1662.2125,-419.5042 1632.0415,-472.7394"/><polygon fill="#000" stroke="#000" points="1631.914 -472.965 1632.435 -480.157 1625.997 -483.405 1625.475 -476.212 1631.914 -472.965"/></g><g id="node16" class="node"><title>10</title><polygon fill="#f2f2f2" stroke="#000" points="1416.733 -229.5 1416.733 -354.3 1602.332 -354.3 1602.332 -229.5 1416.733 -229.5"/><text x="1509.532" y="-337.7" fill="#000" font-family="Times,serif" font-size="14" text-anchor="middle">Roles</text><polyline fill="none" stroke="#000" points="1416.733 -329.5 1602.332 -329.5"/><text x="1424.733" y="-312.9" fill="#000" font-family="Times,serif" font-size="14" text-anchor="start">Public:</text><text x="1424.733" y="-296.1" fill="#000" font-family="Times,serif" font-size="14" text-anchor="start">MINTER_ROLE: bytes32</text><polyline fill="none" stroke="#000" points="1416.733 -287.9 1602.332 -287.9"/><text x="1424.733" y="-271.3" fill="#000" font-family="Times,serif" font-size="14" text-anchor="start">Public:</text><text x="1424.733" y="-254.5" fill="#000" font-family="Times,serif" font-size="14" text-anchor="start">&lt;&lt;modifier&gt;&gt; onlyMinter()</text><text x="1424.733" y="-237.7" fill="#000" font-family="Times,serif" font-size="14" text-anchor="start">constructor()</text></g><g id="edge17" class="edge"><title>10-&gt;9</title><path fill="none" stroke="#000" d="M1509.5323,-354.368C1509.5323,-382.2282 1509.5323,-416.9769 1509.5323,-453.451"/><polygon fill="none" stroke="#000" points="1499.032 -453.674 1509.532 -483.674 1520.032 -453.674 1499.032 -453.674"/></g><g id="node17" class="node"><title>11</title><polygon fill="#f2f2f2" stroke="#000" points="1061.843 -17.3 1061.843 -125.3 1237.222 -125.3 1237.222 -17.3 1061.843 -17.3"/><text x="1149.532" y="-108.7" fill="#000" font-family="Times,serif" font-size="14" text-anchor="middle">&lt;&lt;Interface&gt;&gt;</text><text x="1149.532" y="-91.9" fill="#000" font-family="Times,serif" font-size="14" text-anchor="middle">IPayable</text><polyline fill="none" stroke="#000" points="1061.843 -83.7 1237.222 -83.7"/><polyline fill="none" stroke="#000" points="1061.843 -58.9 1237.222 -58.9"/><text x="1069.843" y="-42.3" fill="#000" font-family="Times,serif" font-size="14" text-anchor="start">External:</text><text x="1069.843" y="-25.5" fill="#000" font-family="Times,serif" font-size="14" text-anchor="start">pay(serviceName: string)</text></g><g id="node18" class="node"><title>12</title><polygon fill="#f2f2f2" stroke="#000" points="580.492 -237.9 580.492 -345.9 896.572 -345.9 896.572 -237.9 580.492 -237.9"/><text x="738.532" y="-329.3" fill="#000" font-family="Times,serif" font-size="14" text-anchor="middle">&lt;&lt;Abstract&gt;&gt;</text><text x="738.532" y="-312.5" fill="#000" font-family="Times,serif" font-size="14" text-anchor="middle">ServicePayer</text><polyline fill="none" stroke="#000" points="580.492 -304.3 896.572 -304.3"/><polyline fill="none" stroke="#000" points="580.492 -279.5 896.572 -279.5"/><text x="588.492" y="-262.9" fill="#000" font-family="Times,serif" font-size="14" text-anchor="start">Public:</text><text x="588.492" y="-246.1" fill="#000" font-family="Times,serif" font-size="14" text-anchor="start">constructor(receiver: address, serviceName: string)</text></g><g id="node19" class="node"><title>13</title><polygon fill="#f2f2f2" stroke="#000" points="433.303 -.5 433.303 -142.1 1043.762 -142.1 1043.762 -.5 433.303 -.5"/><text x="738.532" y="-125.5" fill="#000" font-family="Times,serif" font-size="14" text-anchor="middle">UnlimitedERC20</text><polyline fill="none" stroke="#000" points="433.303 -117.3 1043.762 -117.3"/><polyline fill="none" stroke="#000" points="433.303 -92.5 1043.762 -92.5"/><text x="441.303" y="-75.9" fill="#000" font-family="Times,serif" font-size="14" text-anchor="start">Internal:</text><text x="441.303" y="-59.1" fill="#000" font-family="Times,serif" font-size="14" text-anchor="start">_mint(account: address, amount: uint256)</text><text x="441.303" y="-42.3" fill="#000" font-family="Times,serif" font-size="14" text-anchor="start">_finishMinting()</text><text x="441.303" y="-25.5" fill="#000" font-family="Times,serif" font-size="14" text-anchor="start">Public:</text><text x="441.303" y="-8.7" fill="#000" font-family="Times,serif" font-size="14" text-anchor="start">constructor(name: string, symbol: string, decimals: uint8, initialBalance: uint256, feeReceiver: address)</text></g><g id="edge20" class="edge"><title>13-&gt;1</title><path fill="none" stroke="#000" d="M872.8029,-142.1615C891.8089,-152.1919 911.7644,-162.7234 931.9146,-173.3577"/><polygon fill="none" stroke="#000" points="927.02 -182.647 958.453 -187.363 936.822 -164.075 927.02 -182.647"/></g><g id="edge19" class="edge"><title>13-&gt;5</title><path fill="none" stroke="#000" d="M626.0189,-142.1453C607.6727,-154.1103 588.9734,-166.5587 571.5323,-178.6 556.3614,-189.0739 540.5385,-200.3621 525.0678,-211.6125"/><polygon fill="none" stroke="#000" points="518.755 -203.221 500.785 -229.439 531.182 -220.149 518.755 -203.221"/></g><g id="edge18" class="edge"><title>13-&gt;6</title><path fill="none" stroke="#000" d="M433.2427,-118.4561C384.596,-131.1391 335.3115,-147.1461 284.6816,-169.9221"/><polygon fill="none" stroke="#000" points="279.892 -160.572 257.249 -182.878 288.86 -179.561 279.892 -160.572"/></g><g id="edge21" class="edge"><title>13-&gt;10</title><path fill="none" stroke="#000" d="M1043.8053,-141.1474C1046.7264,-141.6417 1049.636,-142.1261 1052.5323,-142.6 1130.7854,-155.403 1336.817,-142.728 1407.5323,-178.6 1421.8817,-185.8791 1435.168,-196.0903 1447.087,-207.4306"/><polygon fill="none" stroke="#000" points="1439.462 -214.65 1467.614 -229.405 1454.808 -200.315 1439.462 -214.65"/></g><g id="edge22" class="edge"><title>13-&gt;12</title><path fill="none" stroke="#000" d="M738.5323,-142.3135C738.5323,-163.1313 738.5323,-186.0969 738.5323,-207.6541"/><polygon fill="none" stroke="#000" points="728.032 -207.816 738.532 -237.816 749.032 -207.816 728.032 -207.816"/></g></g></svg>